<svg width="160" height="160" viewBox="0 0 160 160" fill="none" xmlns="http://www.w3.org/2000/svg">
<circle cx="80" cy="80" r="77.5" fill="#00BCD4" stroke="#F6F6F6" stroke-width="5"/>
<path d="M80.0566 99.1709V122.515C80.0566 124.519 82.6329 125.339 83.7902 123.702L100.866 99.1709H80.0566Z" fill="#EBE0DA"/>
<path d="M132.906 105.159H79.2293C76.2914 105.159 73.9092 102.777 73.9092 99.838V27.2449C73.9092 24.307 76.2914 21.9248 79.2293 21.9248H132.906C135.845 21.9248 138.227 24.307 138.227 27.2449V99.838C138.227 102.777 135.845 105.159 132.906 105.159Z" fill="#FFF5F4"/>
<path d="M87.5057 105.159H79.2293C76.2905 105.159 73.9092 102.778 73.9092 99.838V27.2449C73.9092 24.3061 76.2905 21.9248 79.2293 21.9248H87.5057C84.5668 21.9248 82.1855 24.3061 82.1855 27.2449V99.838C82.1855 102.778 84.5668 105.159 87.5057 105.159Z" fill="#EBE0DA"/>
<path d="M72.6685 133.254C72.6685 135.819 70.5893 137.898 68.024 137.898H26.4169C25.1352 137.898 23.9716 137.377 23.132 136.536C22.2906 135.696 21.7725 134.535 21.7725 133.254C21.7725 126.753 24.6948 120.939 29.2963 117.047C30.9799 115.623 32.886 114.458 34.9551 113.611C37.4335 112.597 40.1453 112.038 42.988 112.038H51.4529C54.2957 112.038 57.0074 112.599 59.4858 113.611C61.5549 114.458 63.4601 115.623 65.1437 117.049C65.5978 117.43 66.0355 117.832 66.4539 118.253C70.2945 122.092 72.6685 127.397 72.6685 133.254Z" fill="#BEE299"/>
<path d="M51.2634 112.038C48.4216 112.038 45.7089 112.597 43.2315 113.611C41.1624 114.458 39.2563 115.623 37.5726 117.047C32.9712 120.939 30.0488 126.753 30.0488 133.254C30.0488 134.535 30.5661 135.696 31.4084 136.536C32.2479 137.377 33.4106 137.898 34.6924 137.898H26.4169C25.1352 137.898 23.9716 137.377 23.132 136.536C22.2906 135.696 21.7725 134.535 21.7725 133.254C21.7725 126.753 24.6948 120.939 29.2963 117.047C30.9799 115.623 32.886 114.458 34.9551 113.611C37.4335 112.597 40.1453 112.038 42.988 112.038H51.2634Z" fill="#AEDB81"/>
<path d="M59.0473 113.439C59.0464 113.439 59.0464 113.438 59.0454 113.438C57.6511 112.903 56.1853 112.51 54.6683 112.281C53.9606 112.173 53.2419 112.1 52.5122 112.065V116.879L47.7936 121.964C47.7927 121.966 47.7909 121.97 47.789 121.971C47.4796 122.483 46.7298 122.476 46.434 121.952L41.926 116.879V112.065C41.0535 112.108 40.1929 112.204 39.3506 112.35C37.9782 112.587 36.6489 112.957 35.38 113.444C35.38 113.444 35.3791 113.446 35.3772 113.446C33.1818 114.655 31.2921 116.883 31.3397 120.974C31.3489 121.771 32.3441 122.133 32.9245 121.6L36.7835 118.814C37.1277 118.634 37.5315 118.622 37.8849 118.781L46.1365 122.373C46.705 122.818 47.5034 122.824 48.0774 122.385L56.5552 118.781C56.9086 118.622 57.3123 118.634 57.6557 118.814L61.5155 121.6C62.0941 122.133 63.0912 121.771 63.1003 120.974C63.1479 116.874 61.2491 114.646 59.0473 113.439Z" fill="#8ECB51"/>
<path d="M48.994 122.374V137.898H45.4473V122.374C45.4473 121.395 46.2419 120.601 47.2206 120.601C48.1993 120.601 48.994 121.395 48.994 122.374Z" fill="#62A6FD"/>
<path d="M41.9258 105.505V116.878L46.4348 121.953C46.7305 122.476 47.4803 122.483 47.7897 121.972C47.7897 121.97 47.7925 121.968 47.7943 121.965L52.512 116.878V105.505C51.6285 105.464 42.7589 105.465 41.9258 105.505Z" fill="#FCB19F"/>
<path d="M68.1818 92.2388C68.1818 95.543 65.5039 98.2218 62.1989 98.2218C58.8947 98.2218 56.2168 95.543 56.2168 92.2388C56.2168 88.9347 58.8947 86.2559 62.1989 86.2559C65.5039 86.2559 68.1818 88.9347 68.1818 92.2388Z" fill="#FFCDBE"/>
<path d="M57.954 63.5449H36.4858C33.6495 63.5449 31.3506 65.8438 31.3506 68.6801V96.5002C31.3506 105.091 43.2891 112.055 47.2203 112.055C51.1516 112.055 63.0901 105.091 63.0901 96.5002V68.6801C63.0892 65.8438 60.7903 63.5449 57.954 63.5449Z" fill="#FFCDBE"/>
<path d="M51.3586 110.832C49.6868 111.619 48.2037 112.055 47.2204 112.055C43.2882 112.055 31.3516 105.091 31.3516 96.5002V68.681C31.3516 65.8429 33.6495 63.5449 36.4849 63.5449H44.7613C41.9259 63.5449 39.6279 65.8429 39.6279 68.681V96.5002C39.6279 102.944 46.3406 108.473 51.3586 110.832Z" fill="#FCB19F"/>
<path d="M65.6534 130.333H55.5488C54.5692 130.333 53.7754 131.127 53.7754 132.106C53.7754 133.085 54.5692 133.88 55.5488 133.88H65.6534C66.6331 133.88 67.4268 133.085 67.4268 132.106C67.4268 131.127 66.6331 130.333 65.6534 130.333Z" fill="#62A6FD"/>
<path d="M38.8908 130.333H28.787C27.8074 130.333 27.0137 131.127 27.0137 132.106C27.0137 133.085 27.8074 133.88 28.787 133.88H38.8908C39.8704 133.88 40.6642 133.085 40.6642 132.106C40.6642 131.127 39.8704 130.333 38.8908 130.333Z" fill="#62A6FD"/>
<path d="M129.078 39.5411H103.866C102.152 39.5411 100.748 38.1376 100.748 36.4219V34.6193C100.748 32.9045 102.152 31.501 103.866 31.501H129.078C130.794 31.501 132.197 32.9045 132.197 34.6193V36.4219C132.197 38.1376 130.794 39.5411 129.078 39.5411Z" fill="#AEDB81"/>
<path d="M119.073 57.1545H103.866C102.152 57.1545 100.748 55.751 100.748 54.0362V52.2335C100.748 50.5178 102.152 49.1152 103.866 49.1152H119.073C120.788 49.1152 122.192 50.5178 122.192 52.2335V54.0362C122.192 55.751 120.789 57.1545 119.073 57.1545Z" fill="#AEDB81"/>
<path d="M128.549 92.383H103.866C102.152 92.383 100.748 90.9795 100.748 89.2647V87.462C100.748 85.7473 102.152 84.3438 103.866 84.3438H128.549C130.264 84.3438 131.667 85.7473 131.667 87.462V89.2647C131.667 90.9795 130.264 92.383 128.549 92.383Z" fill="#AEDB81"/>
<path d="M124.399 74.7687H103.866C102.152 74.7687 100.748 73.3652 100.748 71.6504V69.8478C100.748 68.1321 102.152 66.7295 103.866 66.7295H124.399C126.114 66.7295 127.517 68.1321 127.517 69.8478V71.6504C127.517 73.3652 126.114 74.7687 124.399 74.7687Z" fill="#AEDB81"/>
<path d="M79.9384 33.9257H93.8901C94.8698 33.9257 95.6635 33.131 95.6635 32.1523C95.6635 31.1727 94.8698 30.3789 93.8901 30.3789H79.9384C78.9588 30.3789 78.165 31.1727 78.165 32.1523C78.165 33.131 78.9588 33.9257 79.9384 33.9257Z" fill="#C8BEBC"/>
<path d="M93.8901 37.1172H79.9384C78.9588 37.1172 78.165 37.9119 78.165 38.8906C78.165 39.8702 78.9588 40.6639 79.9384 40.6639H93.8901C94.8698 40.6639 95.6635 39.8702 95.6635 38.8906C95.6635 37.9119 94.8698 37.1172 93.8901 37.1172Z" fill="#C8BEBC"/>
<path d="M79.9384 51.5399H90.4615C91.4411 51.5399 92.2349 50.7462 92.2349 49.7665C92.2349 48.7869 91.4411 47.9932 90.4615 47.9932H79.9384C78.9588 47.9932 78.165 48.7869 78.165 49.7665C78.165 50.7462 78.9588 51.5399 79.9384 51.5399Z" fill="#C8BEBC"/>
<path d="M93.8901 54.7314H79.9384C78.9588 54.7314 78.165 55.5261 78.165 56.5048C78.165 57.4844 78.9588 58.2791 79.9384 58.2791H93.8901C94.8698 58.2791 95.6635 57.4844 95.6635 56.5048C95.6635 55.5261 94.8698 54.7314 93.8901 54.7314Z" fill="#C8BEBC"/>
<path d="M93.8901 83.2207H79.9384C78.9588 83.2207 78.165 84.0145 78.165 84.9941C78.165 85.9737 78.9588 86.7675 79.9384 86.7675H93.8901C94.8698 86.7675 95.6635 85.9737 95.6635 84.9941C95.6635 84.0145 94.8698 83.2207 93.8901 83.2207Z" fill="#C8BEBC"/>
<path d="M93.8901 89.96H79.9384C78.9588 89.96 78.165 90.7537 78.165 91.7333C78.165 92.713 78.9588 93.5067 79.9384 93.5067H93.8901C94.8698 93.5067 95.6635 92.713 95.6635 91.7333C95.6635 90.7537 94.8698 89.96 93.8901 89.96Z" fill="#C8BEBC"/>
<path d="M93.8901 65.6064H79.9384C78.9588 65.6064 78.165 66.4002 78.165 67.3798C78.165 68.3594 78.9588 69.1532 79.9384 69.1532H93.8901C94.8698 69.1532 95.6635 68.3594 95.6635 67.3798C95.6635 66.4002 94.8698 65.6064 93.8901 65.6064Z" fill="#C8BEBC"/>
<path d="M79.9384 75.8924H86.9138C87.8934 75.8924 88.6881 75.0977 88.6881 74.119C88.6881 73.1394 87.8934 72.3447 86.9138 72.3447H79.9384C78.9588 72.3447 78.165 73.1394 78.165 74.119C78.165 75.0977 78.9588 75.8924 79.9384 75.8924Z" fill="#C8BEBC"/>
<path d="M112.143 39.5411H103.866C102.15 39.5411 100.748 38.1386 100.748 36.4219V34.6202C100.748 32.9036 102.15 31.501 103.866 31.501H112.143C110.426 31.501 109.023 32.9036 109.023 34.6202V36.4219C109.023 38.1386 110.426 39.5411 112.143 39.5411Z" fill="#8ECB51"/>
<path d="M112.143 57.1544H103.866C102.15 57.1544 100.748 55.7518 100.748 54.0352V52.2335C100.748 50.5168 102.15 49.1143 103.866 49.1143H112.143C110.426 49.1143 109.023 50.5168 109.023 52.2335V54.0352C109.023 55.7518 110.426 57.1544 112.143 57.1544Z" fill="#8ECB51"/>
<path d="M112.143 92.3829H103.866C102.15 92.3829 100.748 90.9803 100.748 89.2637V87.462C100.748 85.7481 102.15 84.3428 103.866 84.3428H112.143C110.426 84.3428 109.023 85.7481 109.023 87.462V89.2637C109.023 90.9803 110.426 92.3829 112.143 92.3829Z" fill="#8ECB51"/>
<path d="M112.143 74.7687H103.866C102.15 74.7687 100.748 73.3661 100.748 71.6495V69.8477C100.748 68.1339 102.15 66.7285 103.866 66.7285H112.143C110.426 66.7285 109.023 68.1339 109.023 69.8477V71.6495C109.023 73.3661 110.426 74.7687 112.143 74.7687Z" fill="#8ECB51"/>
<path d="M38.2247 92.2379C38.2247 95.542 35.5459 98.2208 32.2418 98.2208C28.9376 98.2208 26.2588 95.542 26.2588 92.2379C26.2588 88.9337 28.9376 86.2549 32.2418 86.2549C35.5459 86.2549 38.2247 88.9337 38.2247 92.2379Z" fill="#FCB19F"/>
<path d="M50.3855 95.4316C49.4059 95.4316 48.6121 96.2263 48.6121 97.205C48.6121 97.9731 47.9877 98.5966 47.2205 98.5966C46.4533 98.5966 45.8289 97.9731 45.8289 97.205C45.8289 96.2263 45.0342 95.4316 44.0555 95.4316C43.0759 95.4316 42.2812 96.2263 42.2812 97.205C42.2812 99.9287 44.4968 102.144 47.2205 102.144C49.9433 102.144 52.1589 99.9287 52.1589 97.205C52.1589 96.2263 51.3651 95.4316 50.3855 95.4316Z" fill="#B56D3C"/>
<path d="M57.2327 90.7789C57.2327 91.8171 56.3914 92.6594 55.3531 92.6594C54.314 92.6594 53.4727 91.8171 53.4727 90.7789C53.4727 89.7407 54.314 88.8984 55.3531 88.8984C56.3914 88.8984 57.2327 89.7407 57.2327 90.7789Z" fill="#B56D3C"/>
<path d="M40.968 90.7789C40.968 91.8171 40.1257 92.6594 39.0875 92.6594C38.0493 92.6594 37.207 91.8171 37.207 90.7789C37.207 89.7407 38.0493 88.8984 39.0875 88.8984C40.1257 88.8984 40.968 89.7407 40.968 90.7789Z" fill="#B56D3C"/>
<path d="M59.9481 85.5555C57.2198 83.8398 52.936 84.6674 52.4572 84.7672C51.4996 84.9668 50.8862 85.9034 51.0839 86.861C51.2817 87.8187 52.2192 88.4357 53.1777 88.2398C54.454 87.9789 56.9085 87.8342 58.0593 88.5584C58.3532 88.7424 58.6791 88.8303 59.0023 88.8303C59.591 88.8303 60.1678 88.5364 60.5047 87.9999C61.0266 87.1714 60.7766 86.0764 59.9481 85.5555Z" fill="#B56D3C"/>
<path d="M43.357 86.8647C43.5575 85.9061 42.9422 84.9668 41.9827 84.7672C41.5039 84.6674 37.2211 83.8398 34.4928 85.5555C33.6634 86.0764 33.4143 87.1714 33.9353 87.9999C34.2722 88.5364 34.849 88.8303 35.4386 88.8303C35.7608 88.8303 36.0877 88.7424 36.3806 88.5575C37.5315 87.8342 39.9851 87.978 41.2613 88.2389C42.219 88.4385 43.1574 87.8232 43.357 86.8647Z" fill="#B56D3C"/>
<path d="M30.9806 55.2957C28.3091 57.9599 26.8076 61.578 26.8076 65.3518V78.6334C26.8076 80.3994 28.0079 81.8313 29.4883 81.8313H32.1204C41.7682 81.9394 49.9274 78.898 54.6241 74.1244C54.8292 76.9067 57.2947 79.1049 60.3077 79.1049H63.2273C65.5967 79.1049 67.5175 77.3004 67.5175 75.0738V68.7182C67.5175 65.7611 64.9659 63.3633 61.8174 63.3633H60.2903C59.3711 63.3651 58.6194 62.6144 58.6194 61.6952C58.6194 59.3478 56.717 57.4453 54.3696 57.4453H46.7414C46.7414 57.4453 38.7964 57.6413 35.8265 52.7505C35.5921 52.366 35.2048 52.1481 34.7974 52.106C34.2637 52.052 33.7528 52.3468 33.4745 52.8063L30.9806 55.2957Z" fill="#FF7C48"/>
<path d="M67.5165 71.0862V75.0724C67.5165 77.2999 65.5967 79.1044 63.2273 79.1044H60.3068C57.2947 79.1044 54.8282 76.9053 54.625 74.1248C49.9283 78.8966 41.7682 81.9398 32.1204 81.8308H29.4892C28.006 81.8308 26.8076 80.398 26.8076 78.6338V65.3522C26.8076 61.5784 28.3091 57.9603 30.9806 55.2952L33.4754 52.8077C33.6173 52.5687 33.8233 52.3774 34.0595 52.252C33.4424 53.8578 33.1183 55.579 33.1183 57.3331V70.6156C33.1183 72.3817 34.3177 73.8126 35.7981 73.8126H38.4321C48.0771 73.9216 56.2372 70.8802 60.933 66.1066C61.139 68.8889 63.6054 71.0862 66.6175 71.0862H67.5165Z" fill="#F76937"/>
<path d="M53.7754 132.024C53.7754 133.003 54.5692 133.798 55.5488 133.798H65.6534C66.6331 133.798 67.4268 133.003 67.4268 132.024C67.4268 131.045 66.6331 130.25 65.6534 130.25H55.5488C54.5692 130.25 53.7754 131.045 53.7754 132.024Z" fill="black"/>
<path d="M38.8917 130.25H28.787C27.8074 130.25 27.0137 131.045 27.0137 132.024C27.0137 133.003 27.8074 133.798 28.787 133.798H38.8917C39.8713 133.798 40.6651 133.003 40.6651 132.024C40.6651 131.045 39.8713 130.25 38.8917 130.25Z" fill="black"/>
<path d="M133.971 34.7022C133.971 32.0051 131.776 29.8105 129.079 29.8105H103.866C101.169 29.8105 98.9746 32.0051 98.9746 34.7022V36.5058C98.9746 39.2029 101.169 41.3975 103.866 41.3975H129.079C131.776 41.3975 133.971 39.2029 133.971 36.5058V34.7022ZM130.424 36.5058C130.424 37.2474 129.821 37.8507 129.079 37.8507H103.866C103.125 37.8507 102.521 37.2474 102.521 36.5058V34.7022C102.521 33.9615 103.125 33.3573 103.866 33.3573H129.079C129.821 33.3573 130.424 33.9615 130.424 34.7022V36.5058Z" fill="black"/>
<path d="M79.9384 34.0087H93.8901C94.8698 34.0087 95.6635 33.2149 95.6635 32.2353C95.6635 31.2557 94.8698 30.4619 93.8901 30.4619H79.9384C78.9588 30.4619 78.165 31.2557 78.165 32.2353C78.165 33.2149 78.9588 34.0087 79.9384 34.0087Z" fill="black"/>
<path d="M103.866 59.0117H119.074C121.771 59.0117 123.966 56.8172 123.966 54.1201V52.3174C123.966 49.6193 121.771 47.4248 119.074 47.4248H103.866C101.169 47.4248 98.9746 49.6193 98.9746 52.3174V54.1201C98.9746 56.8172 101.169 59.0117 103.866 59.0117ZM102.521 52.3174C102.521 51.5758 103.125 50.9725 103.866 50.9725H119.074C119.816 50.9725 120.419 51.5758 120.419 52.3174V54.1201C120.419 54.8616 119.816 55.465 119.074 55.465H103.866C103.125 55.465 102.521 54.8616 102.521 54.1201V52.3174Z" fill="black"/>
<path d="M98.9746 89.3477C98.9746 92.0448 101.169 94.2393 103.866 94.2393H128.549C131.247 94.2393 133.441 92.0448 133.441 89.3477V87.545C133.441 84.8478 131.247 82.6533 128.549 82.6533H121.973C120.993 82.6533 120.199 83.4471 120.199 84.4267C120.199 85.4063 120.993 86.2001 121.973 86.2001H128.549C129.291 86.2001 129.894 86.8034 129.894 87.545V89.3477C129.894 90.0892 129.29 90.6926 128.549 90.6926H103.866C103.125 90.6926 102.521 90.0892 102.521 89.3477V87.545C102.521 86.8034 103.125 86.2001 103.866 86.2001H114.878C115.858 86.2001 116.652 85.4063 116.652 84.4267C116.652 83.4471 115.858 82.6533 114.878 82.6533H103.866C101.169 82.6533 98.9746 84.8478 98.9746 87.545V89.3477Z" fill="black"/>
<path d="M98.9746 71.7334C98.9746 74.4305 101.169 76.6251 103.866 76.6251H124.399C127.097 76.6251 129.291 74.4305 129.291 71.7334V69.9307C129.291 67.2336 127.097 65.0391 124.399 65.0391H103.866C101.169 65.0391 98.9746 67.2336 98.9746 69.9307V71.7334ZM102.521 69.9307C102.521 69.1891 103.125 68.5858 103.866 68.5858H124.399C125.14 68.5858 125.744 69.1891 125.744 69.9307V71.7334C125.744 72.475 125.14 73.0783 124.399 73.0783H103.866C103.125 73.0783 102.521 72.475 102.521 71.7334V69.9307Z" fill="black"/>
<path d="M50.3858 95.3506C49.4062 95.3506 48.6124 96.1443 48.6124 97.124C48.6124 97.8912 47.988 98.5156 47.2208 98.5156C46.4536 98.5156 45.8292 97.8912 45.8292 97.124C45.8292 96.1443 45.0355 95.3506 44.0558 95.3506C40.738 95.3506 42.2724 102.062 47.2208 102.062C52.1693 102.062 53.7028 95.3506 50.3858 95.3506Z" fill="black"/>
<path d="M57.2327 90.697C57.2327 91.7352 56.3914 92.5775 55.3531 92.5775C54.3149 92.5775 53.4727 91.7352 53.4727 90.697C53.4727 89.6588 54.3149 88.8174 55.3531 88.8174C56.3914 88.8174 57.2327 89.6588 57.2327 90.697Z" fill="black"/>
<path d="M40.9681 90.697C40.9681 91.7352 40.1258 92.5775 39.0876 92.5775C38.0494 92.5775 37.208 91.7352 37.208 90.697C37.208 89.6588 38.0494 88.8174 39.0876 88.8174C40.1258 88.8174 40.9681 89.6588 40.9681 90.697Z" fill="black"/>
<path d="M53.1819 88.1569C54.253 87.9335 56.855 87.7183 58.0607 88.4755C58.3537 88.6604 58.6805 88.7483 59.0028 88.7483C60.7725 88.7483 61.4537 86.4192 59.9485 85.4735C57.2203 83.7578 52.9374 84.5854 52.4577 84.6852C51.4991 84.8848 50.8839 85.8241 51.0835 86.7827C51.2831 87.7412 52.2242 88.3574 53.1819 88.1569Z" fill="black"/>
<path d="M43.357 86.7818C43.5575 85.8232 42.9422 84.8839 41.9827 84.6843C41.5039 84.5845 37.2202 83.7569 34.4928 85.4717C33.6634 85.9935 33.4143 87.0885 33.9353 87.9171C34.4571 88.7465 35.5521 88.9965 36.3806 88.4746C37.5315 87.7513 39.986 87.896 41.2622 88.1569C42.2208 88.3556 43.1574 87.7394 43.357 86.7818Z" fill="black"/>
<path d="M55.3842 110.519C59.2899 107.958 63.1113 104.142 64.4077 99.5899C67.6093 98.6414 69.9567 95.6687 69.9567 92.1549C69.9567 88.8169 67.8336 85.9605 64.8608 84.8701V80.6623C67.4133 79.9775 69.2911 77.7326 69.2911 75.0739V68.7183C69.2911 64.788 65.9384 61.59 61.8176 61.59H60.3922C60.3363 58.317 57.6556 55.6721 54.3698 55.6721C54.3314 55.6721 46.7361 55.6721 46.6986 55.673C46.6272 55.6721 39.7141 55.7343 37.3419 51.8305C36.1948 49.9418 33.4628 49.7742 32.0996 51.6749C29.5425 54.2246 25.0345 57.906 25.0345 65.3519V78.6335C25.0345 81.2345 26.8719 83.6048 29.5792 83.6048V84.8701C26.6064 85.9577 24.4833 88.8169 24.4833 92.1558C24.4833 95.665 26.8289 98.6396 30.0333 99.5899C31.3287 104.139 35.1501 107.956 39.054 110.519C39.054 110.519 33.3246 111.234 28.1509 115.61C22.9727 119.993 20 126.392 20 133.17C20 136.673 22.8235 139.589 26.4178 139.589H68.0249C71.5652 139.589 74.44 136.712 74.44 133.17C74.44 122.524 67.1359 112.751 55.3842 110.519ZM29.5792 95.4114C28.6353 94.6378 28.0301 93.465 28.0301 92.1549C28.0301 90.843 28.6353 89.6729 29.5792 88.8993V95.4114ZM56.3602 114.356C56.5186 114.356 57.8406 114.799 58.2947 114.969C59.8932 115.877 60.8536 117.237 61.1887 119.095C57.3654 116.338 57.8781 116.208 53.9038 117.901C54.3982 117.277 54.2865 116.936 54.2865 113.935C55.0171 114.052 55.6415 114.162 56.3602 114.356ZM66.4099 92.1549C66.4099 93.4678 65.8047 94.6406 64.8608 95.4133V88.8993C65.8047 89.6729 66.4099 90.843 66.4099 92.1549ZM32.1207 80.0581H29.4885C29.0601 80.0581 28.5812 79.4483 28.5812 78.6335V65.3519C28.5812 59.5274 32.0255 56.7579 34.6301 54.1605C38.2135 59.2756 46.1484 59.2289 46.7609 59.2188H54.3698C55.7349 59.2188 56.8463 60.3294 56.8463 61.6953C56.8463 63.5511 58.3377 65.1377 60.3088 65.1377H61.8185C63.9828 65.1377 65.7443 66.7435 65.7443 68.7183V75.0739C65.7443 76.319 64.6155 77.3316 63.2275 77.3316H60.3088C58.2507 77.3316 56.5314 75.8659 56.3931 73.9945C56.2814 72.4757 54.4266 71.7982 53.3609 72.8812C48.8409 77.4735 40.9061 80.1569 32.1207 80.0581ZM33.8492 99.7455C32.9684 97.6774 33.0792 95.4362 33.1168 83.6039C41.3492 83.5169 48.6853 81.2418 53.7949 77.2355C55.083 79.4135 57.5366 80.8784 60.3079 80.8784H61.3168C61.3443 92.6539 61.5274 97.5556 60.5908 99.7455C58.1976 105.366 50.5035 109.89 47.5125 110.185C43.8898 110.185 36.1407 105.125 33.8492 99.7455ZM40.1508 113.935C40.1508 116.936 40.0354 117.293 40.56 117.93L38.609 117.08C37.46 116.565 36.2991 116.889 35.7434 117.293L33.2532 119.095C33.9014 115.517 36.4273 114.485 40.1508 113.935ZM45.448 136.043H26.4178C24.8523 136.043 23.5468 134.782 23.5468 133.17C23.5468 127.783 25.7669 122.67 29.678 118.998C29.4208 120.866 29.4254 122.56 31.1777 123.314C32.1326 123.728 33.2349 123.567 34.0268 122.909L37.4463 120.443C47.2122 124.695 44.776 123.623 45.448 123.959V136.043ZM43.6984 116.125V112.949C46.4294 113.998 47.9922 114.004 50.7397 112.952V116.1L47.1335 119.987L43.6984 116.125ZM68.0249 136.043H48.9948V123.839L56.9919 120.441L60.4132 122.909C61.2033 123.567 62.3047 123.728 63.2605 123.316C65.0128 122.561 65.022 120.876 64.762 119.001C68.4534 122.401 70.8932 127.499 70.8932 133.17C70.8932 134.756 69.6097 136.043 68.0249 136.043Z" fill="black"/>
<path d="M132.907 20.2344H130.137C129.156 20.2344 128.364 21.0291 128.364 22.0078C128.364 22.9865 129.156 23.7811 130.137 23.7811H132.907C134.862 23.7811 136.453 25.3723 136.453 27.3279V99.9219C136.453 101.877 134.862 103.469 132.907 103.469C75.4902 103.469 78.9784 103.531 78.2844 103.34C76.7875 102.927 75.6825 101.551 75.6825 99.9219V27.3279C75.6825 25.3723 77.2746 23.7811 79.2302 23.7811H123.044C124.022 23.7811 124.817 22.9865 124.817 22.0078C124.817 21.0291 124.022 20.2344 123.044 20.2344H79.2302C75.319 20.2344 72.1357 23.4167 72.1357 27.3279V99.9219C72.1357 103.511 74.8173 106.488 78.2844 106.949V122.598C78.2844 126.37 83.101 127.833 85.2452 124.8L97.624 107.015H132.907C136.818 107.015 140 103.832 140 99.9219V27.3279C140 23.4167 136.818 20.2344 132.907 20.2344ZM82.342 122.762C82.1846 122.99 81.8312 122.88 81.8312 122.598V107.015H93.3018L82.342 122.762Z" fill="black"/>
<path d="M93.8901 37.2002H79.9384C78.9588 37.2002 78.165 37.9949 78.165 38.9736C78.165 39.9532 78.9588 40.7479 79.9384 40.7479H93.8901C94.8698 40.7479 95.6635 39.9532 95.6635 38.9736C95.6635 37.9949 94.8698 37.2002 93.8901 37.2002Z" fill="black"/>
<path d="M79.9384 51.622H90.4615C91.4411 51.622 92.2349 50.8282 92.2349 49.8486C92.2349 48.869 91.4411 48.0752 90.4615 48.0752H79.9384C78.9588 48.0752 78.165 48.869 78.165 49.8486C78.165 50.8282 78.9588 51.622 79.9384 51.622Z" fill="black"/>
<path d="M93.8901 54.8145H79.9384C78.9588 54.8145 78.165 55.6082 78.165 56.5878C78.165 57.5665 78.9588 58.3612 79.9384 58.3612H93.8901C94.8698 58.3612 95.6635 57.5665 95.6635 56.5878C95.6635 55.6082 94.8698 54.8145 93.8901 54.8145Z" fill="black"/>
<path d="M93.8901 83.3027H79.9384C78.9588 83.3027 78.165 84.0965 78.165 85.0761C78.165 86.0557 78.9588 86.8495 79.9384 86.8495H93.8901C94.8698 86.8495 95.6635 86.0557 95.6635 85.0761C95.6635 84.0965 94.8698 83.3027 93.8901 83.3027Z" fill="black"/>
<path d="M93.8901 90.042H79.9384C78.9588 90.042 78.165 90.8358 78.165 91.8154C78.165 92.795 78.9588 93.5887 79.9384 93.5887H93.8901C94.8698 93.5887 95.6635 92.795 95.6635 91.8154C95.6635 90.8358 94.8698 90.042 93.8901 90.042Z" fill="black"/>
<path d="M93.8901 65.6895H79.9384C78.9588 65.6895 78.165 66.4832 78.165 67.4628C78.165 68.4424 78.9588 69.2362 79.9384 69.2362H93.8901C94.8698 69.2362 95.6635 68.4424 95.6635 67.4628C95.6635 66.4832 94.8698 65.6895 93.8901 65.6895Z" fill="black"/>
<path d="M79.9384 75.9755H86.9147C87.8943 75.9755 88.6881 75.1808 88.6881 74.2021C88.6881 73.2225 87.8943 72.4287 86.9147 72.4287H79.9384C78.9588 72.4287 78.165 73.2225 78.165 74.2021C78.165 75.1808 78.9588 75.9755 79.9384 75.9755Z" fill="black"/>
</svg>
