<svg width="160" height="160" viewBox="0 0 160 160" fill="none" xmlns="http://www.w3.org/2000/svg">
<circle cx="80" cy="80" r="77.5" fill="#00BCD4" stroke="#F6F6F6" stroke-width="5"/>
<g clip-path="url(#clip0)">
<path d="M100.267 48.3047H98.09C105.291 48.3047 111.127 42.4673 111.127 35.2676C111.127 28.0679 105.291 22.2314 98.09 22.2314H61.8205C54.6208 22.2314 48.7834 28.0679 48.7834 35.2676C48.7834 42.4673 54.6208 48.3047 61.8205 48.3047H59.6434C50.9779 48.3047 43.9521 55.3296 43.9521 63.9951V102.3H115.958V63.9951C115.958 55.3296 108.934 48.3047 100.267 48.3047Z" fill="#A0CAFE"/>
<path d="M60.8244 44.487C63.1837 46.8463 66.4448 48.3047 70.0447 48.3047H67.8666C59.2012 48.3047 52.1763 55.3305 52.1763 63.996V102.3H43.9521V63.996C43.9521 55.3305 50.9779 48.3047 59.6434 48.3047H61.8214C58.2216 48.3047 54.9604 46.8463 52.6011 44.487C50.2418 42.1277 48.7834 38.8666 48.7834 35.2667C48.7834 28.0679 54.6199 22.2314 61.8214 22.2314H70.0447C62.8431 22.2314 57.0067 28.0679 57.0067 35.2667C57.0067 38.8666 58.466 42.1277 60.8244 44.487Z" fill="#81B8FD"/>
<path d="M105.242 97.6825C105.242 100.232 103.176 102.298 100.627 102.298H59.2831C58.0096 102.298 56.8533 101.78 56.0193 100.945C55.1834 100.11 54.668 98.956 54.668 97.6825C54.668 91.2234 57.5729 85.4456 62.1451 81.5784C63.8177 80.1639 65.712 79.0057 67.7673 78.1644C70.2301 77.1564 72.9254 76.6016 75.7489 76.6016H84.1608C86.9852 76.6016 89.6805 77.1591 92.1423 78.1644C94.1986 79.0057 96.0919 80.1639 97.7655 81.5811C98.2159 81.9592 98.6508 82.3584 99.0665 82.7768C102.882 86.5927 105.242 91.8625 105.242 97.6825Z" fill="#BEE299"/>
<path d="M83.9731 76.6016C81.1487 76.6016 78.4534 77.1564 75.9915 78.1644C73.9352 79.0057 72.0419 80.1639 70.3683 81.5784C65.7962 85.4456 62.8922 91.2234 62.8922 97.6825C62.8922 98.956 63.4067 100.11 64.2435 100.945C65.0775 101.78 66.2329 102.298 67.5064 102.298H59.2831C58.0096 102.298 56.8533 101.78 56.0193 100.945C55.1834 100.11 54.668 98.956 54.668 97.6825C54.668 91.2234 57.5729 85.4456 62.1451 81.5784C63.8177 80.1639 65.712 79.0057 67.7673 78.1644C70.2301 77.1564 72.9254 76.6016 75.7489 76.6016H83.9731Z" fill="#AEDB81"/>
<path d="M91.7073 77.993C91.7064 77.993 91.7055 77.993 91.7055 77.993C90.3194 77.4611 88.8637 77.0711 87.3558 76.8431C86.6527 76.7351 85.9386 76.6628 85.2135 76.6289V81.4125L80.5251 86.4653C80.5233 86.4672 80.5223 86.4699 80.5205 86.4717C80.2129 86.9808 79.4667 86.9725 79.1738 86.4525L74.6941 81.4125V76.6289C73.8271 76.671 72.972 76.7662 72.1352 76.9118C70.7711 77.1471 69.4509 77.5151 68.1902 77.9985C68.1902 77.9985 68.1884 78.0004 68.1865 78.0004C66.0057 79.2015 64.128 81.4162 64.1747 85.4811C64.1838 86.2731 65.1726 86.6329 65.7494 86.1028L69.5836 83.3342C69.926 83.1557 70.327 83.1438 70.6786 83.3013L78.8781 86.8709C79.4429 87.314 80.2358 87.3186 80.8062 86.8828L89.2299 83.3013C89.5815 83.1438 89.9834 83.1557 90.324 83.3342L94.16 86.1028C94.735 86.632 95.7256 86.2731 95.7347 85.4811C95.7814 81.407 93.8954 79.1933 91.7073 77.993Z" fill="#8ECB51"/>
<path d="M74.6943 70.11V81.4121L79.1749 86.4539C79.4688 86.974 80.2141 86.9804 80.5217 86.4732C80.5217 86.4704 80.5235 86.4686 80.5262 86.4658L85.2137 81.4121V70.11C84.3358 70.0688 75.522 70.0715 74.6943 70.11Z" fill="#E3A76F"/>
<path d="M100.784 56.9279C100.784 60.2109 98.123 62.8724 94.8391 62.8724C91.556 62.8724 88.8945 60.2109 88.8945 56.9279C88.8945 53.6448 91.556 50.9824 94.8391 50.9824C98.123 50.9824 100.784 53.6448 100.784 56.9279Z" fill="#F2BB88"/>
<path d="M90.6224 28.416H69.2897C66.4717 28.416 64.1865 30.7003 64.1865 33.5192V61.1626C64.1865 69.699 76.049 76.6185 79.9556 76.6194C83.8621 76.6194 95.7246 69.699 95.7246 61.1626V33.5192C95.7246 30.7003 93.4404 28.416 90.6224 28.416Z" fill="#F2BB88"/>
<path d="M84.0673 75.4045C82.4065 76.1864 80.9334 76.6185 79.9556 76.6185C76.0482 76.6185 64.1875 69.699 64.1875 61.1635V33.5201C64.1875 30.7003 66.4717 28.416 69.2888 28.416H77.5121C74.695 28.416 72.4108 30.7003 72.4108 33.5201V61.1635C72.4108 67.5658 79.0822 73.059 84.0673 75.4045Z" fill="#E3A76F"/>
<path d="M91.4223 22.2314H77.0385C72.9772 22.2314 69.5632 24.8279 68.5707 28.3499C68.0406 28.1952 67.4776 28.1119 66.8935 28.1119H65.3929C62.2646 28.1119 59.7295 30.4941 59.7295 33.432V39.7482C59.7295 41.9601 61.6384 43.7527 63.9922 43.7527H66.8935C69.8873 43.7527 72.3372 41.5692 72.5414 38.8052C77.2078 43.5477 85.3157 46.5707 94.9013 46.4627H97.5179C98.9891 46.4627 100.181 45.04 100.181 43.2849V30.4602C100.181 25.9155 96.2599 22.2314 91.4223 22.2314Z" fill="#D19A75"/>
<path d="M100.181 39.1985V43.2845C100.181 45.0396 98.9901 46.4633 97.5189 46.4633H94.9014C85.3149 46.5695 77.207 43.5473 72.5405 38.804C72.3382 41.5688 69.8873 43.7515 66.8945 43.7515H63.9922C61.6375 43.7515 59.7305 41.9589 59.7305 39.7479V33.4326C59.7305 31.9146 60.407 30.545 61.4919 29.5791V32.6708C61.4919 34.8818 63.3999 36.6744 65.7546 36.6744H68.6559C71.6497 36.6744 74.1006 34.4918 74.302 31.726C78.9684 36.4703 87.0773 39.4915 96.6638 39.3835H99.2812C99.5962 39.3835 99.8992 39.3185 100.181 39.1985Z" fill="#C9885B"/>
<path d="M73.217 102.297H28.5311C27.882 102.297 27.3564 101.77 27.3564 101.122V90.8299C27.3564 90.1808 27.882 89.6553 28.5311 89.6553H73.217C73.8661 89.6553 74.3917 90.1808 74.3917 90.8299V101.122C74.3917 101.77 73.8661 102.297 73.217 102.297Z" fill="#FFF5F4"/>
<path d="M36.7552 102.297H28.532C27.8829 102.297 27.3564 101.771 27.3564 101.122V90.8309C27.3564 90.1827 27.8829 89.6562 28.532 89.6562H36.7552C36.1071 89.6562 35.5806 90.1827 35.5806 90.8309V101.122C35.5806 101.771 36.1071 102.297 36.7552 102.297Z" fill="#EBE0DA"/>
<path d="M134.077 59.4385V97.6343C134.077 100.211 131.989 102.299 129.412 102.299H97.8047L98.1215 102.291C100.28 102.162 102.006 100.354 102.006 98.1644L102.001 90.4071V63.736C102.001 61.3629 103.925 59.4385 106.298 59.4385H134.077Z" fill="#FFF5F4"/>
<path d="M94.8139 91.1611H102.004V98.1631C102.004 100.437 100.143 102.299 97.869 102.299H97.8141C95.539 102.299 93.6777 100.437 93.6777 98.1631V92.2973C93.6777 91.6693 94.1868 91.1611 94.8139 91.1611Z" fill="#C8BEBC"/>
<path d="M134.077 89.4492H132.13C129.052 89.4492 126.557 86.9534 126.557 83.8754C126.557 80.7965 129.052 78.3008 132.13 78.3008H134.077V89.4492Z" fill="#F2BB88"/>
<path d="M110.358 63.735V90.4052L110.366 98.1643C110.366 100.354 108.639 102.161 106.479 102.29L106.163 102.3H97.7617L98.1206 102.29C100.28 102.161 102.007 100.354 102.007 98.1643L102 90.4052V63.735C102 61.3619 103.924 59.4375 106.297 59.4375H114.656C112.283 59.4375 110.358 61.3619 110.358 63.735Z" fill="#EBE0DA"/>
<path d="M110.37 63.572V71.3164C110.37 71.9435 110.878 72.4517 111.506 72.4517H137.105C137.732 72.4517 138.241 71.9435 138.241 71.3164V63.572C138.241 61.2978 136.38 59.4374 134.107 59.4374H134.05C134.008 59.4374 133.967 59.4393 133.925 59.4402V59.4365H106.439L106.74 59.4686C108.779 59.7185 110.37 61.469 110.37 63.572Z" fill="#C8BEBC"/>
<path d="M133.115 137.785H26.7948C26.3087 137.785 25.9141 137.391 25.9141 136.905V110.412H133.997V136.905C133.997 137.391 133.602 137.785 133.115 137.785Z" fill="#C9885B"/>
<path d="M35.019 137.785H26.7948C26.3087 137.785 25.9141 137.391 25.9141 136.905V110.412H34.1373V136.905C34.1373 137.391 34.5319 137.785 35.019 137.785Z" fill="#B56D3C"/>
<path d="M136.726 114.245H23.0994C22.3615 114.245 21.7637 113.647 21.7637 112.909V103.635C21.7637 102.898 22.3615 102.299 23.0994 102.299H136.726C137.464 102.299 138.062 102.898 138.062 103.635V112.909C138.062 113.647 137.464 114.245 136.726 114.245Z" fill="#D19A75"/>
<path d="M31.3235 114.245H23.0994C22.3615 114.245 21.7627 113.646 21.7627 112.908V103.636C21.7627 102.899 22.3615 102.3 23.0994 102.3H31.3235C30.5856 102.3 29.986 102.899 29.986 103.636V112.908C29.986 113.646 30.5856 114.245 31.3235 114.245Z" fill="#C9885B"/>
<path d="M71.0168 56.9269C71.0168 60.21 68.3545 62.8714 65.0714 62.8714C61.7883 62.8714 59.126 60.21 59.126 56.9269C59.126 53.6438 61.7883 50.9814 65.0714 50.9814C68.3545 50.9814 71.0168 53.6438 71.0168 56.9269Z" fill="#E3A76F"/>
<path d="M67.2321 94.0078H60.361C59.3878 94.0078 58.5986 94.797 58.5986 95.7702C58.5986 96.7443 59.3878 97.5326 60.361 97.5326H67.2321C68.2062 97.5326 68.9944 96.7443 68.9944 95.7702C68.9944 94.797 68.2062 94.0078 67.2321 94.0078Z" fill="black"/>
<path d="M53.312 94.0078H34.5153C33.5412 94.0078 32.7529 94.797 32.7529 95.7702C32.7529 96.7443 33.5412 97.5326 34.5153 97.5326H53.312C54.2852 97.5326 55.0744 96.7443 55.0744 95.7702C55.0744 94.797 54.2852 94.0078 53.312 94.0078Z" fill="black"/>
<path d="M140 71.319V63.5745C140 60.3473 137.387 57.6749 134.077 57.6749C121.378 57.6749 117.605 57.6776 116.537 57.6776C114.722 53.0185 110.961 49.3271 106.259 47.6022C110.254 44.9472 112.89 40.4099 112.89 35.2664C112.89 27.1063 106.25 20.4688 98.0899 20.4688C97.0096 20.4688 62.9071 20.4688 61.8213 20.4688C53.6603 20.4688 47.0209 27.1063 47.0209 35.2664C47.0209 40.4099 49.6567 44.9472 53.6511 47.6022C46.9687 50.0531 42.1896 56.4764 42.1896 63.9957V70.5133C42.1896 71.4865 42.9797 72.2757 43.952 72.2757C44.9252 72.2757 45.7144 71.4865 45.7144 70.5133V63.9957C45.7144 56.3144 51.962 50.0668 59.6432 50.0668H61.5604C55.3687 53.2446 56.243 62.3431 62.8787 64.3152C64.166 68.8361 67.9608 72.6282 71.8417 75.1724C71.8417 75.1724 66.149 75.882 61.0083 80.2335C58.4824 82.3676 56.4847 84.985 55.1077 87.8937H45.7144V77.562C45.7144 76.5869 44.9252 75.8005 43.952 75.8005C42.9797 75.8005 42.1896 76.5869 42.1896 77.562V87.8937H28.5318C26.9104 87.8937 25.5948 89.2093 25.5948 90.8307V100.537H23.0991C21.3907 100.537 20 101.926 20 103.636V112.908C20 114.616 21.3907 116.007 23.0991 116.007H24.1519V136.905C24.1519 138.361 25.3384 139.548 26.795 139.548H32.0822C33.0545 139.548 33.8437 138.759 33.8437 137.785C33.8437 136.813 33.0545 136.023 32.0822 136.023H27.6758V116.007H132.234V136.023H39.1309C38.1577 136.023 37.3685 136.813 37.3685 137.785C37.3685 138.759 38.1577 139.548 39.1309 139.548H133.115C134.573 139.548 135.759 138.361 135.759 136.905V116.007H136.724C138.435 116.007 139.824 114.616 139.824 112.908V103.636C139.824 101.926 138.435 100.537 136.724 100.537H135.143C136.08 98.6951 135.839 99.9539 135.839 74.2166H137.103C138.701 74.2166 140 72.9175 140 71.319ZM112.677 57.6749H106.297C104.704 57.6749 103.254 58.291 102.171 59.3036C103.333 55.7495 101.748 51.8118 98.3463 50.0668H100.268C105.676 50.0668 110.372 53.1622 112.677 57.6749ZM124.794 83.8754C124.794 87.7051 127.802 91.2115 132.314 91.2115V97.6331C132.314 99.2352 131.012 100.537 129.413 100.537C123.102 100.537 106.095 100.537 103.268 100.537C104.034 98.6273 103.762 101.692 103.762 63.7347C103.762 62.3367 104.899 61.1996 106.297 61.1996C107.459 61.1996 108.605 62.2131 108.605 63.5754V71.3199C108.605 72.9175 109.906 74.2166 111.504 74.2166H132.314V76.5384C127.81 76.5384 124.794 80.0403 124.794 83.8754ZM132.314 80.0632V87.6868C127.01 87.6868 127.009 80.0632 132.314 80.0632ZM88.2306 98.3051H91.9193C91.9385 99.097 92.1124 99.8486 92.4155 100.534H81.7175V88.41L89.6661 85.0317L93.0664 87.4872C93.8483 88.14 94.946 88.3002 95.8954 87.8909C97.6367 87.1393 97.6431 85.4666 97.3849 83.6035C98.4488 84.585 99.4128 85.7083 100.238 86.9489V89.3997H94.8141C93.2166 89.3997 91.9174 90.6989 91.9174 92.2964V94.7803H88.2306C87.2583 94.7803 86.4682 95.5695 86.4682 96.5427C86.4682 97.515 87.2583 98.3051 88.2306 98.3051ZM73.2169 87.8937H66.1746C66.5152 87.7499 66.2396 87.9239 70.2423 85.0345C79.9487 89.2587 77.5281 88.194 78.1927 88.5281V100.534H76.1539V90.8307C76.1539 89.2093 74.8355 87.8937 73.2169 87.8937ZM76.4569 80.7434V77.5903C79.1678 78.6313 80.7214 78.6359 83.4515 77.5931V80.7205L79.8682 84.5831L76.4569 80.7434ZM86.9763 78.5681C87.7042 78.6835 88.3221 78.7933 89.0363 78.9865C89.1965 78.9865 90.5103 79.426 90.9607 79.5944C92.5491 80.499 93.5013 81.8503 93.8373 83.6951C90.0351 80.9549 90.5478 80.8286 86.5955 82.5085C87.0889 81.8878 86.9763 81.5518 86.9763 78.5681ZM95.4413 92.9245H100.24C100.244 98.0066 100.68 99.6692 98.6841 100.393C97.2266 100.927 95.4413 99.9182 95.4413 98.1641C95.4413 96.1938 95.4413 94.8782 95.4413 92.9245ZM100.238 81.4465C97.103 78.3585 92.9749 76.1053 88.0685 75.1724C91.9476 72.6282 95.7452 68.8361 97.0325 64.3152C98.3435 63.927 99.5062 63.1992 100.425 62.2333C100.166 63.255 100.238 62.1884 100.238 81.4465ZM97.4857 60.166V53.6905C99.5364 55.3705 99.5328 58.4879 97.4857 60.166ZM62.4246 60.1633C60.3738 58.4824 60.3784 55.3677 62.4246 53.6905V60.1633ZM62.4246 46.543C54.9576 46.543 50.5447 41.0297 50.5447 35.2664C50.5447 29.05 55.6039 23.9935 61.8213 23.9935H69.0182C68.3838 24.7031 67.8473 25.4996 67.4362 26.3684C67.0627 26.3455 67.0279 26.3501 65.3928 26.3501C61.2994 26.3501 57.9678 29.527 57.9678 33.4317V39.747C57.9678 42.4094 59.8593 44.6561 62.4246 45.318V46.543ZM61.4917 39.747V33.4317C61.4917 31.4578 63.2541 29.874 65.3928 29.874C66.9693 29.874 67.3611 29.8318 68.078 30.0415C69.0063 30.3116 69.9951 29.7852 70.2679 28.8266C71.0855 25.9244 73.9172 23.9935 77.0374 23.9935H91.4212C95.2609 23.9935 98.4003 26.8784 98.4186 30.426C98.4232 31.3708 99.1849 32.1793 100.19 32.1793C101.165 32.1747 101.948 31.38 101.943 30.4077C101.931 28.0063 101.018 25.8026 99.5117 24.0823C105.061 24.7827 109.366 29.5316 109.366 35.2664C109.366 40.4291 105.879 44.7925 101.135 46.1246C102.175 44.4757 101.943 43.4778 101.943 37.4655C101.943 36.4932 101.156 35.704 100.181 35.704C99.2078 35.704 98.4186 36.4932 98.4186 37.4655V43.2855C98.4186 43.9529 98.045 44.7 97.4857 44.7C94.8306 44.7 81.5179 45.4169 73.7973 37.569C72.7444 36.496 70.8932 37.1606 70.7852 38.6758C70.6461 40.5344 68.9377 41.991 66.8942 41.991C65.5383 41.991 66.1041 41.991 63.992 41.991C62.6077 41.991 61.4917 40.9766 61.4917 39.747ZM66.6681 64.4681C65.6738 62.1362 65.9494 62.3972 65.9494 45.5157H66.8942C69.6472 45.5157 72.0862 44.0591 73.367 41.8948C79.003 46.3086 86.7163 48.1552 93.9618 48.223C93.9618 62.0282 94.2355 62.1371 93.2422 64.4681C90.8627 70.0528 83.2162 74.548 80.2463 74.841C76.6446 74.841 68.9478 69.8157 66.6681 64.4681ZM72.9321 78.5681C72.9321 81.55 72.8149 81.9043 73.3386 82.536L71.4005 81.6928C70.256 81.181 69.1025 81.5024 68.5522 81.907L66.0757 83.6951C66.7203 80.1419 69.2297 79.1129 72.9321 78.5681ZM62.5262 83.6008C62.106 86.611 62.8851 87.3242 64.025 87.8937H59.093C60.0168 86.3217 61.1703 84.8743 62.5262 83.6008ZM29.1187 91.4175H72.6291V100.534C70.4758 100.534 31.4578 100.534 29.1187 100.534V91.4175ZM136.299 104.061V112.482C133.437 112.482 27.5348 112.482 23.5248 112.482V104.061H136.299ZM136.475 70.6918C134.069 70.6918 114.655 70.6918 112.129 70.6918C112.129 63.0133 112.274 62.6572 111.631 61.2015C111.742 61.2015 133.993 61.2042 134.105 61.2015C135.415 61.2015 136.475 62.2699 136.475 63.5745V70.6918Z" fill="black"/>
<path d="M83.1007 60.1006C82.1266 60.1006 81.3383 60.8898 81.3383 61.863C81.3383 62.6256 80.7176 63.2454 79.955 63.2454C79.1932 63.2454 78.5725 62.6256 78.5725 61.863C78.5725 60.8898 77.7843 60.1006 76.8101 60.1006C73.5133 60.1006 75.0386 66.7702 79.955 66.7702C84.8723 66.7702 86.3966 60.1006 83.1007 60.1006Z" fill="black"/>
<path d="M89.9052 55.478C89.9052 56.5098 89.0684 57.3466 88.0366 57.3466C87.0048 57.3466 86.1689 56.5098 86.1689 55.478C86.1689 54.4462 87.0048 53.6104 88.0366 53.6104C89.0684 53.6104 89.9052 54.4462 89.9052 55.478Z" fill="black"/>
<path d="M73.7421 55.478C73.7421 56.5098 72.9062 57.3466 71.8745 57.3466C70.8427 57.3466 70.0059 56.5098 70.0059 55.478C70.0059 54.4462 70.8427 53.6104 71.8745 53.6104C72.9062 53.6104 73.7421 54.4462 73.7421 55.478Z" fill="black"/>
<path d="M85.8789 52.953C86.9437 52.7305 89.5292 52.5163 90.7267 53.2698C91.0178 53.4529 91.3428 53.5398 91.6633 53.5398C93.422 53.5398 94.0986 51.2263 92.6026 50.286C89.8917 48.5813 85.6363 49.4035 85.1603 49.5024C84.2072 49.701 83.5956 50.6349 83.7943 51.587C83.993 52.5401 84.9277 53.1516 85.8789 52.953Z" fill="black"/>
<path d="M76.1172 51.587C76.3159 50.6349 75.7043 49.701 74.7513 49.5024C74.2752 49.4035 70.0189 48.5813 67.3089 50.286C66.485 50.8033 66.2369 51.891 66.7551 52.7159C67.2723 53.5398 68.3609 53.787 69.1849 53.2697C70.3284 52.5501 72.7664 52.6939 74.0353 52.953C74.9875 53.1507 75.9186 52.5392 76.1172 51.587Z" fill="black"/>
</g>
<defs>
<clipPath id="clip0">
<rect width="120" height="120" fill="white" transform="translate(20 20)"/>
</clipPath>
</defs>
</svg>
