<svg width="160" height="160" viewBox="0 0 160 160" fill="none" xmlns="http://www.w3.org/2000/svg">
<circle cx="80" cy="80" r="77.5" fill="#00BCD4" stroke="#F6F6F6" stroke-width="5"/>
<g clip-path="url(#clip0)">
<path d="M97.1276 43.8287V133.314C97.1276 136.172 94.8103 138.489 91.953 138.489H37.7771C34.9199 138.489 32.6025 136.172 32.6025 133.314V43.8287C32.6025 42.6045 33.0279 41.4792 33.7396 40.5932C34.6852 39.4114 36.1441 38.6533 37.7771 38.6533H91.953C93.5908 38.6533 95.0528 39.4153 95.9968 40.6034C96.7062 41.487 97.1276 42.6084 97.1276 43.8287Z" fill="#FFEE9D"/>
<path d="M95.9974 40.6044L85.9292 57.9698C84.9224 59.7049 83.0696 60.7721 81.0631 60.7721H48.8088C46.814 60.7721 44.9675 59.7143 43.9591 57.9957L33.7402 40.5942C34.6858 39.4116 36.1423 38.6543 37.7761 38.6543H91.9529C93.5906 38.6543 95.0518 39.4155 95.9974 40.6044Z" fill="#EEC707"/>
<path d="M95.9968 40.603L85.9286 57.97C84.9218 59.7043 83.0706 60.7715 81.064 60.7715H48.8089C46.8149 60.7715 44.9669 59.7145 43.9585 57.9959L39.6613 50.6774L33.7396 40.5928C33.0279 41.4787 32.6025 42.6041 32.6025 43.8282V133.313C32.6025 136.171 34.9199 138.489 37.7771 138.489H44.8358C41.9786 138.489 39.6613 136.171 39.6613 133.313V61.8239L43.9585 69.0223C44.9669 70.74 46.8149 71.7971 48.8089 71.7971H97.1276V43.8282C97.1276 42.608 96.7062 41.4866 95.9968 40.603Z" fill="#FFE046"/>
<path d="M131.022 43.8289V133.314C131.022 136.171 128.705 138.489 125.848 138.489H71.6716C68.8144 138.489 66.4971 136.171 66.4971 133.314V43.8289C66.4971 42.6047 66.9232 41.4786 67.6357 40.5942C68.5805 39.4116 70.0378 38.6543 71.6716 38.6543H125.848C128.715 38.6543 131.022 40.9842 131.022 43.8289Z" fill="#FFEE9D"/>
<path d="M78.7303 138.489H71.6716C68.8144 138.489 66.4971 136.172 66.4971 133.314V43.8287C66.4971 42.6045 66.9224 41.4792 67.6365 40.5932C68.5798 39.4114 70.0386 38.6533 71.6716 38.6533H78.7303C77.0973 38.6533 75.6393 39.4114 74.6952 40.5932C73.9811 41.4792 73.5558 42.6045 73.5558 43.8287V133.314C73.5558 136.172 75.8731 138.489 78.7303 138.489Z" fill="#FFE565"/>
<path d="M112.743 136.975C111.292 136.975 73.1149 136.975 71.6718 136.975C69.6534 136.975 68.0094 135.333 68.0094 133.314V102.045C68.0094 101.209 67.3322 100.533 66.4972 100.533C65.6622 100.533 64.9842 101.209 64.9842 102.045V133.314C64.9842 134.664 65.3876 135.922 66.0774 136.975H37.7774C35.7567 136.975 34.115 135.333 34.115 133.314V77.4407C34.115 76.6034 33.4378 75.9277 32.6028 75.9277C31.7679 75.9277 31.0898 76.6034 31.0898 77.4407V133.314C31.0898 137.001 34.0891 140 37.7774 140H112.743C113.578 140 114.255 139.324 114.255 138.487C114.255 137.652 113.578 136.975 112.743 136.975Z" fill="black"/>
<path d="M125.848 37.1426C123.796 37.1426 39.5297 37.1426 37.7774 37.1426C34.0091 37.1426 31.0898 40.2164 31.0898 43.8285V71.3901C31.0898 72.2251 31.7679 72.9023 32.6028 72.9023C33.4378 72.9023 34.115 72.2251 34.115 71.3901V44.2178L42.6545 58.7605C43.9289 60.935 46.2886 62.284 48.8092 62.284H64.9842V95.9948C64.9842 96.8297 65.6622 97.5077 66.4972 97.5077C67.3322 97.5077 68.0094 96.8297 68.0094 95.9948C68.0094 94.5297 68.0094 44.7161 68.0094 43.8285C68.0094 41.8243 69.6307 40.1677 71.6718 40.1677H125.848C127.875 40.1677 129.51 41.811 129.51 43.8285V133.314C129.51 135.333 127.868 136.975 125.848 136.975H118.793C117.958 136.975 117.28 137.652 117.28 138.487C117.28 139.324 117.958 140 118.793 140H125.848C129.536 140 132.535 137 132.535 133.314V43.8285C132.535 40.2274 129.632 37.1426 125.848 37.1426ZM64.9842 43.8285V59.2588H48.8092C47.3575 59.2588 45.9983 58.4827 45.2638 57.2303L35.6476 40.8512C35.8493 40.6496 36.7737 40.1677 37.7774 40.1677H66.0774C65.3672 41.2491 64.9842 42.5274 64.9842 43.8285Z" fill="black"/>
<path d="M125.476 102.89C126.311 102.89 126.988 102.213 126.988 101.378C126.988 100.542 126.311 99.8652 125.476 99.8652H109.644C108.809 99.8652 108.131 100.542 108.131 101.378C108.131 102.213 108.809 102.89 109.644 102.89H125.476Z" fill="black"/>
<path d="M101.779 110.151C101.779 110.987 102.457 111.664 103.291 111.664H125.477C126.312 111.664 126.989 110.987 126.989 110.151C126.989 109.316 126.312 108.639 125.477 108.639H103.291C102.457 108.639 101.779 109.316 101.779 110.151Z" fill="black"/>
<path d="M103.291 120.437H125.477C126.312 120.437 126.989 119.76 126.989 118.924C126.989 118.089 126.312 117.412 125.477 117.412H103.291C102.457 117.412 101.779 118.089 101.779 118.924C101.779 119.76 102.457 120.437 103.291 120.437Z" fill="black"/>
</g>
<g clip-path="url(#clip1)">
<path d="M146.345 113.212H89.083C86.5529 113.212 84.502 111.161 84.502 108.631V51.3691C84.502 48.8391 86.5529 46.7881 89.083 46.7881H146.345C148.875 46.7881 150.926 48.8391 150.926 51.3691V108.631C150.926 111.161 148.875 113.212 146.345 113.212Z" fill="#3CAFE6"/>
<path d="M89.083 106.341V46.7881C86.5529 46.7881 84.502 48.8391 84.502 51.3691V108.631C84.502 111.161 86.5529 113.212 89.083 113.212H146.345C148.875 113.212 150.926 111.161 150.926 108.631H91.3736C90.1085 108.631 89.083 107.606 89.083 106.341Z" fill="#1C9AD6"/>
<path d="M103.971 71.9834H94.8096V102.905H103.971V71.9834Z" fill="white"/>
<path d="M98.2452 71.9834H94.8096V102.905H98.2452V71.9834Z" fill="#E5E5E5"/>
<path d="M130.312 71.9834C128.021 71.9834 122.534 72.3174 120.005 77.7096C120.005 76.5644 120.005 71.9834 120.005 71.9834H110.843V102.905H120.005V88.0168C120.005 84.5811 122.903 82.2905 125.731 82.2905C128.893 82.2905 131.457 84.581 131.457 88.0168V92.539V102.905H140.619V81.1453C140.619 76.0854 135.418 71.9834 130.312 71.9834Z" fill="white"/>
<path d="M114.278 71.9834H110.843V102.905H114.278V71.9834Z" fill="#E5E5E5"/>
<path d="M134.893 88.0163C134.893 84.5806 132.329 82.29 129.167 82.29C128.611 82.29 128.052 82.3799 127.513 82.5485C129.803 83.2368 131.457 85.2564 131.457 88.0162V92.5384V102.904H134.893V92.5384V88.0163H134.893Z" fill="#E5E5E5"/>
<path d="M99.3906 66.2568C101.921 66.2568 103.972 64.2058 103.972 61.6758C103.972 59.1457 101.921 57.0947 99.3906 57.0947C96.8606 57.0947 94.8096 59.1457 94.8096 61.6758C94.8096 64.2058 96.8606 66.2568 99.3906 66.2568Z" fill="white"/>
<path d="M101.681 63.9666C99.1511 63.9666 97.1002 61.9157 97.1002 59.3856C97.1002 58.7136 97.246 58.0761 97.506 57.501C95.9164 58.2198 94.8096 59.8181 94.8096 61.6761C94.8096 64.2061 96.8606 66.2571 99.3906 66.2571C101.249 66.2571 102.847 65.1503 103.566 63.5607C102.991 63.8208 102.353 63.9666 101.681 63.9666Z" fill="#E5E5E5"/>
<path d="M150.926 58.1684C151.519 58.1684 152 57.6878 152 57.0947V51.3685C152 48.2506 149.463 45.7139 146.346 45.7139H89.0833C85.9655 45.7139 83.4287 48.2506 83.4287 51.3685V108.631C83.4287 111.749 85.9655 114.285 89.0833 114.285H146.345C149.463 114.285 152 111.749 152 108.631V61.6757C152 61.0828 151.519 60.602 150.926 60.602C150.333 60.602 149.853 61.0827 149.853 61.6757V108.631C149.853 110.565 148.279 112.138 146.345 112.138H89.0833C87.1494 112.138 85.576 110.565 85.576 108.631V51.3685C85.576 49.4345 87.1494 47.8611 89.0833 47.8611H146.345C148.279 47.8611 149.853 49.4345 149.853 51.3685V57.0947C149.853 57.6878 150.333 58.1684 150.926 58.1684Z" fill="black"/>
<path d="M103.972 77.7091C104.565 77.7091 105.046 77.2285 105.046 76.6354V71.9829C105.046 71.39 104.565 70.9092 103.972 70.9092H94.81C94.2171 70.9092 93.7363 71.3898 93.7363 71.9829V102.904C93.7363 103.497 94.217 103.978 94.81 103.978H103.972C104.565 103.978 105.046 103.497 105.046 102.904V81.3595C105.046 80.7666 104.565 80.2858 103.972 80.2858C103.379 80.2858 102.898 80.7665 102.898 81.3595V101.831H95.8837V73.0566H102.898V76.6354C102.898 77.2283 103.379 77.7091 103.972 77.7091Z" fill="black"/>
<path d="M131.458 103.978H140.62C141.213 103.978 141.693 103.497 141.693 102.904V81.1447C141.693 78.4345 140.409 75.8439 138.079 73.8502C135.893 71.9813 133.062 70.9092 130.312 70.9092C125.773 70.9092 122.898 72.4183 121.079 74.2776V71.9829C121.079 71.39 120.598 70.9092 120.005 70.9092H110.843C110.25 70.9092 109.77 71.3898 109.77 71.9829V102.904C109.77 103.497 110.25 103.978 110.843 103.978H120.005C120.598 103.978 121.079 103.497 121.079 102.904V88.0161C121.079 85.1424 123.494 83.3636 125.731 83.3636C128.427 83.3636 130.384 85.3203 130.384 88.0161V102.904C130.384 103.497 130.864 103.978 131.458 103.978ZM125.731 81.2163C122.461 81.2163 118.932 83.8161 118.932 88.0161V101.831H111.917V73.0565H118.932V77.709C118.932 78.1986 119.276 78.6366 119.752 78.7522C120.242 78.8711 120.763 78.6219 120.977 78.1649C122.567 74.7752 125.708 73.0565 130.313 73.0565C134.671 73.0565 139.546 76.5156 139.546 81.1447V101.831H132.531V88.0161C132.531 84.1394 129.608 81.2163 125.731 81.2163Z" fill="black"/>
<path d="M99.3909 56.0205C96.2729 56.0205 93.7363 58.5573 93.7363 61.6751C93.7363 64.793 96.2731 67.3297 99.3909 67.3297C102.509 67.3297 105.046 64.793 105.046 61.6751C105.046 58.5573 102.509 56.0205 99.3909 56.0205ZM99.3909 65.1826C97.457 65.1826 95.8836 63.6092 95.8836 61.6752C95.8836 59.7413 97.457 58.1679 99.3909 58.1679C101.325 58.1679 102.898 59.7413 102.898 61.6752C102.898 63.6092 101.325 65.1826 99.3909 65.1826Z" fill="black"/>
</g>
<g clip-path="url(#clip2)">
<path d="M42.2852 87.4982C60.6277 87.4982 75.4973 72.6287 75.4973 54.2862C75.4973 35.9437 60.6277 21.0742 42.2852 21.0742C23.9428 21.0742 9.07324 35.9437 9.07324 54.2862C9.07324 72.6287 23.9428 87.4982 42.2852 87.4982Z" fill="#47B0D3"/>
<path d="M46.8663 86.3519C28.5238 86.3519 13.6543 71.4824 13.6543 53.1399C13.6543 38.4088 23.246 25.9199 36.5239 21.5723C20.9278 24.3003 9.07324 37.9077 9.07324 54.2851C9.07324 72.6276 23.9428 87.4971 42.2853 87.4971C45.8966 87.4971 49.3725 86.9186 52.6276 85.8528C50.7562 86.1799 48.8313 86.3519 46.8663 86.3519Z" fill="#3298BA"/>
<path d="M33.2634 73.7542L30.626 57.9293L58.3193 35.5107L33.2634 73.7542Z" fill="#B2B2B2"/>
<path d="M36.5603 59.9074L33.2637 73.7542L58.3196 35.5107L36.5603 59.9074Z" fill="#CCCCCC"/>
<path d="M36.5596 59.9074L58.3188 35.5107L56.3976 68.1691C56.3703 68.6341 55.8825 68.9248 55.4605 68.7278L36.5596 59.9074Z" fill="#E5E5E5"/>
<path d="M58.3188 35.5107L21.3996 52.6973C20.885 52.9369 20.8935 53.6716 21.4137 53.899L30.6254 57.929L58.3188 35.5107Z" fill="#E5E5E5"/>
<path d="M73.7088 40.5503C71.8744 36.3594 69.2576 32.6273 65.9312 29.4584C65.5017 29.0493 64.8223 29.0656 64.4131 29.4953C64.0041 29.9246 64.0206 30.6042 64.45 31.0131C70.8817 37.1404 74.424 45.4056 74.424 54.2857C74.424 72.0069 60.0069 86.4241 42.2856 86.4241C24.5643 86.4241 10.1473 72.0069 10.1473 54.2857C10.1473 36.5646 24.5646 22.1473 42.2857 22.1473C48.7593 22.1473 54.9996 24.0633 60.3315 27.6878C60.8218 28.0211 61.4896 27.8937 61.8231 27.4036C62.1564 26.9131 62.0291 26.2454 61.5387 25.912C55.8492 22.0444 49.1916 20 42.2857 20C33.1277 20 24.5178 23.5663 18.0421 30.0421C11.5664 36.5178 8 45.1277 8 54.2857C8 63.4437 11.5664 72.0536 18.0421 78.5293C24.5178 85.0052 33.1277 88.5714 42.2857 88.5714C51.4437 88.5714 60.0536 85.0052 66.5293 78.5293C73.005 72.0536 76.5714 63.4437 76.5714 54.2857C76.5714 49.5109 75.6083 44.8896 73.7088 40.5503Z" fill="black"/>
<path d="M59.3919 35.4819C59.3706 34.7217 58.5542 34.2193 57.866 34.5376L37.2175 44.1497C36.6799 44.3999 36.447 45.0388 36.6973 45.5764C36.9475 46.1139 37.5863 46.3471 38.1236 46.0967L50.861 40.1671L44.6686 45.1802L30.4578 56.6841L22.6851 53.2834L33.577 48.2131C34.1146 47.9628 34.3475 47.3241 34.0972 46.7865C33.8469 46.2489 33.208 46.0158 32.6709 46.2662L20.9468 51.7241C20.3234 52.0142 19.93 52.6488 19.9458 53.3359C19.9612 54.0082 20.3675 54.6133 20.9835 54.8828L29.6623 58.6796L32.2041 73.9306C32.3605 74.8736 33.6374 75.1421 34.1612 74.3425L41.3714 63.3374L55.0068 69.7006C56.0993 70.2109 57.3993 69.4312 57.4697 68.232L59.3907 35.5736C59.3928 35.5435 59.3927 35.5124 59.3919 35.4819ZM40.5943 60.6053L38.322 59.545L49.5009 47.0111L47.8839 49.4792L40.5943 60.6053ZM37.2994 61.4372L39.4053 62.42L35.7297 68.0303L37.2994 61.4372ZM48.712 44.6694L35.7587 59.1927C35.6422 59.3234 35.5557 59.4879 35.5155 59.6587L33.4489 68.3382L31.7876 58.3701L48.712 44.6694ZM55.3621 67.497L42.5604 61.5228L57.0109 39.4669L55.3621 67.497Z" fill="black"/>
</g>
<defs>
<clipPath id="clip0">
<rect width="102.857" height="102.857" fill="white" transform="translate(30.2861 37.1426)"/>
</clipPath>
<clipPath id="clip1">
<rect width="68.5714" height="68.5714" fill="white" transform="translate(83.4287 45.7139)"/>
</clipPath>
<clipPath id="clip2">
<rect width="68.5714" height="68.5714" fill="white" transform="translate(8 20)"/>
</clipPath>
</defs>
</svg>
