<?xml version="1.0" standalone="no"?>
<!DOCTYPE svg PUBLIC "-//W3C//DTD SVG 20010904//EN"
 "http://www.w3.org/TR/2001/REC-SVG-20010904/DTD/svg10.dtd">
<svg version="1.0" xmlns="http://www.w3.org/2000/svg"
 width="296.000000pt" height="296.000000pt" viewBox="0 0 296.000000 296.000000"
 preserveAspectRatio="xMidYMid meet">
<metadata>
Created by potrace 1.11, written by Peter Selinger 2001-2013
</metadata>
<g transform="translate(0.000000,296.000000) scale(0.100000,-0.100000)"
fill="#000000" stroke="none">
<path d="M1805 1830 c4 -6 11 -7 17 -4 7 4 8 2 4 -5 -4 -6 -12 -9 -17 -6 -5 4
-9 3 -9 0 0 -9 33 -40 39 -37 3 1 6 -1 6 -5 0 -16 17 -33 26 -28 5 4 9 1 9 -5
0 -6 18 -29 41 -51 22 -21 38 -39 34 -39 -3 0 5 -11 19 -24 15 -13 26 -30 26
-37 0 -11 2 -11 10 1 8 13 10 12 10 -3 0 -11 4 -15 12 -11 6 4 8 3 5 -3 -3 -5
6 -22 21 -38 17 -18 22 -30 14 -33 -7 -2 -12 -10 -12 -18 0 -8 -7 -17 -15 -20
-8 -4 -12 -10 -9 -15 3 -5 0 -9 -5 -9 -6 0 -11 -7 -11 -16 0 -8 -4 -13 -9 -10
-5 4 -15 -7 -23 -24 -7 -16 -16 -30 -20 -30 -5 0 -7 -6 -6 -12 2 -7 -3 -12
-10 -10 -8 1 -11 -2 -8 -7 4 -5 2 -12 -4 -16 -5 -3 -17 -22 -26 -41 -12 -26
-19 -32 -25 -22 -6 9 -9 6 -9 -9 0 -13 -5 -23 -11 -23 -5 0 -8 -4 -5 -9 3 -5
-1 -11 -9 -15 -8 -3 -15 -10 -15 -16 0 -6 -7 -18 -15 -27 -8 -8 -13 -18 -11
-22 3 -4 68 -8 146 -9 77 0 138 3 135 8 -3 4 2 10 10 14 8 3 15 12 15 21 0 8
5 15 10 15 6 0 10 8 10 18 0 14 2 15 10 2 8 -12 10 -12 10 5 1 24 24 58 33 48
4 -3 7 -1 7 6 0 7 7 19 15 28 8 8 13 19 10 24 -4 5 -1 9 5 9 7 0 11 -21 10
-57 -1 -32 -1 -77 -1 -99 l1 -41 117 1 118 1 0 52 c1 28 -2 50 -6 47 -9 -5 -6
17 4 33 4 6 3 14 -2 17 -10 7 -9 25 2 42 3 6 3 14 0 18 -10 10 -13 37 -3 31 5
-3 7 1 6 7 -10 46 -20 68 -33 68 -8 0 -12 4 -9 8 3 5 -4 14 -14 22 -10 8 -17
17 -14 22 3 4 -2 8 -10 8 -9 0 -16 7 -16 16 0 8 -5 12 -10 9 -6 -4 -10 -3 -9
2 3 20 -2 34 -11 28 -5 -3 -10 1 -10 9 0 9 -4 16 -10 16 -5 0 -10 7 -10 16 0
8 -4 12 -10 9 -9 -5 -11 0 -10 21 1 3 -13 18 -31 35 -17 16 -28 29 -25 29 3 0
-2 8 -11 18 -10 11 -21 17 -26 15 -4 -3 -7 -1 -6 4 3 19 -2 34 -10 29 -5 -3
-14 8 -21 24 -7 16 -16 27 -21 24 -5 -3 -9 2 -9 11 0 9 -4 13 -10 10 -5 -3
-10 -3 -10 2 0 4 -72 9 -161 11 -107 1 -158 -1 -154 -8z"/>
<path d="M2200 1823 c0 -22 44 -75 54 -65 4 4 7 3 6 -3 -5 -21 0 -36 10 -30 6
3 10 -1 10 -9 0 -9 3 -16 8 -16 4 0 18 -16 31 -36 13 -19 42 -54 63 -77 21
-23 38 -46 38 -50 0 -11 50 -60 56 -55 3 4 6 186 5 314 l-1 41 -121 2 c-87 1
-125 -2 -137 -11 -12 -10 -14 -10 -8 0 4 6 2 12 -3 12 -6 0 -11 -8 -11 -17z"/>
<path d="M2533 1821 c9 -12 9 -13 0 -7 -8 4 -13 2 -13 -6 0 -8 6 -20 13 -27 7
-9 7 -11 1 -8 -9 5 -12 -11 -11 -52 0 -36 5 -57 10 -54 6 4 7 1 1 -8 -13 -20
-13 -240 -1 -232 6 4 7 1 1 -8 -13 -22 -15 -81 -2 -73 7 5 8 2 2 -7 -13 -22
-15 -81 -2 -73 7 5 8 2 2 -7 -14 -23 -15 -81 -1 -72 9 5 9 4 0 -8 -6 -8 -11
-24 -9 -34 3 -18 13 -20 118 -23 90 -3 115 -1 116 10 0 7 2 85 2 173 1 104 6
165 13 174 9 12 9 13 0 7 -10 -5 -13 9 -12 61 1 60 4 69 20 70 12 1 17 -3 13
-9 -5 -7 -2 -8 7 -2 8 5 25 10 37 12 17 2 22 -1 16 -10 -6 -10 -4 -10 9 1 9 7
30 11 47 9 22 -3 30 -1 31 11 3 75 0 191 -5 200 -4 7 -79 10 -211 9 -180 -2
-203 -4 -192 -17z"/>
<path d="M427 1773 c10 -4 10 -7 0 -18 -7 -7 -15 -11 -18 -9 -3 2 -6 -3 -6
-11 0 -8 4 -12 9 -9 5 4 9 0 7 -7 -4 -33 2 -38 51 -37 l49 0 -2 46 -2 47 -50
1 c-27 1 -45 -1 -38 -3z"/>
<path d="M852 1759 c-14 -22 -15 -32 -4 -25 5 3 9 -1 9 -9 0 -8 -4 -12 -9 -9
-4 3 -6 -5 -4 -18 2 -13 9 -22 16 -20 7 1 28 3 49 4 50 1 66 15 46 38 -12 14
-13 20 -4 26 8 4 10 3 5 -4 -4 -7 -2 -12 3 -12 16 0 13 15 -6 32 -21 18 -53
20 -53 4 0 -7 -3 -7 -8 -1 -12 17 -27 15 -40 -6z"/>
<path d="M987 1773 c-3 -5 -7 -26 -8 -48 l-4 -40 50 -1 c50 -1 50 -1 55 35 8
48 2 65 -16 50 -8 -6 -14 -7 -14 -2 0 11 -57 16 -63 6z"/>
<path d="M1536 1764 c-11 -7 -23 -11 -29 -7 -6 3 -7 1 -3 -5 4 -7 1 -12 -8
-12 -9 0 -16 -4 -16 -9 0 -5 -15 -16 -34 -25 -18 -8 -39 -22 -46 -31 -7 -8
-21 -15 -32 -15 -10 0 -16 -4 -13 -10 3 -5 -1 -10 -10 -10 -32 0 -46 -27 -44
-83 l2 -53 103 1 c57 0 106 4 110 8 4 3 16 2 27 -4 10 -6 17 -7 14 -2 -4 5 0
10 8 10 8 0 12 -4 9 -9 -3 -4 0 -8 5 -8 6 0 11 5 11 11 0 8 4 9 13 0 8 -6 17
-8 21 -4 3 4 14 8 22 9 9 1 13 0 10 -3 -3 -3 -1 -14 4 -24 7 -12 7 -20 0 -24
-6 -4 -8 -10 -6 -14 3 -4 -1 -8 -9 -8 -8 0 -11 5 -8 11 4 6 0 5 -9 -2 -10 -8
-19 -9 -22 -3 -5 8 -27 8 -46 1 -3 -1 -9 -1 -15 0 -24 7 -193 5 -189 -2 7 -10
-10 -10 -20 -1 -4 5 -24 9 -43 9 -23 1 -31 -1 -22 -7 10 -6 8 -8 -8 -6 -12 0
-19 5 -17 9 3 4 -2 8 -11 8 -10 0 -13 4 -8 13 11 17 11 249 1 264 -5 6 -22 9
-39 6 -17 -2 -37 1 -47 9 -11 9 -14 10 -8 1 4 -7 3 -13 -2 -13 -5 0 -10 -49
-11 -111 -2 -88 1 -109 11 -103 10 6 10 5 1 -7 -12 -15 -14 -141 -1 -133 4 3
8 -2 8 -10 0 -9 9 -16 20 -16 11 0 20 -5 20 -10 0 -7 7 -7 21 1 17 9 20 8 14
-2 -6 -9 -3 -10 8 -6 10 4 25 10 35 13 14 5 15 4 2 -5 -12 -9 -10 -10 13 -9
15 1 27 7 27 13 0 6 3 7 8 0 8 -12 46 -20 39 -8 -3 4 6 9 20 10 19 1 22 -1 12
-8 -10 -6 -2 -9 24 -9 28 0 36 3 31 13 -6 10 -4 10 7 0 14 -14 33 -18 26 -5
-3 4 6 8 20 9 19 1 22 -1 12 -8 -10 -6 -2 -9 24 -9 28 0 36 3 31 13 -6 10 -4
10 7 0 14 -14 33 -18 25 -5 -2 4 4 8 14 8 10 0 17 -3 15 -6 -2 -4 9 -7 25 -7
16 0 27 3 26 6 -2 3 7 7 21 8 19 1 22 -1 12 -8 -9 -6 1 -8 31 -8 25 0 40 3 33
5 -7 3 -9 12 -6 20 5 13 7 13 14 2 7 -10 9 -10 9 3 0 8 -6 21 -12 28 -10 11
-10 13 0 7 8 -5 12 0 12 16 0 13 -6 30 -12 37 -10 11 -10 13 0 7 8 -5 12 0 12
16 0 13 -6 30 -12 37 -10 11 -10 13 0 7 19 -11 14 22 -8 55 -14 19 -26 26 -37
22 -9 -4 -14 -2 -10 3 8 14 -95 14 -112 0 -12 -8 -13 -8 -7 2 10 16 -25 13
-36 -3 -5 -6 -8 -6 -8 2 0 6 -15 11 -35 10 -19 -1 -41 5 -48 12 -8 9 -8 12 0
7 6 -3 18 1 27 9 8 9 18 16 21 15 20 -1 25 1 20 9 -3 5 5 11 17 13 28 4 34 34
15 70 -11 23 -15 24 -31 12z"/>
<path d="M46 1645 c-11 -8 -16 -15 -10 -15 5 0 3 -4 -3 -8 -7 -4 -14 -17 -16
-27 -1 -11 -7 -26 -11 -34 -6 -9 -5 -12 1 -8 6 4 10 -26 11 -81 1 -48 6 -88
12 -90 6 -2 8 -8 4 -13 -3 -5 5 -9 18 -9 18 0 20 -2 8 -10 -21 -13 -3 -13 22
1 15 8 19 8 14 0 -10 -15 7 -14 22 1 8 8 12 9 12 1 0 -7 21 -11 55 -10 38 2
55 -2 55 -10 0 -7 -7 -13 -16 -13 -9 0 -12 -5 -8 -12 6 -10 4 -10 -7 0 -7 6
-17 12 -22 12 -4 0 -5 -6 -1 -12 6 -10 5 -10 -7 -1 -14 11 -16 6 -18 -41 -1
-34 3 -57 10 -62 8 -4 9 -3 5 4 -8 13 6 16 18 5 11 -11 85 -10 79 1 -4 5 1 7
10 3 10 -4 17 -1 17 5 0 6 3 9 6 5 14 -14 34 25 34 67 0 35 5 48 19 56 25 13
41 13 21 0 -11 -7 -5 -10 23 -10 21 0 36 4 33 8 -3 5 1 9 9 9 8 0 12 -3 10 -7
-2 -4 2 -7 10 -7 8 0 12 4 10 8 -8 12 33 17 44 6 12 -12 74 -19 67 -8 -2 3 7
7 21 8 19 1 22 -1 12 -8 -10 -6 -6 -9 14 -9 20 0 26 4 21 13 -6 10 -4 10 7 0
7 -7 17 -13 22 -13 4 0 5 6 1 13 -4 6 -4 9 0 5 5 -4 19 -3 32 2 16 7 27 5 37
-4 10 -10 18 -11 32 -4 13 8 16 7 11 -1 -9 -14 0 -14 24 -1 13 7 21 7 25 0 3
-5 11 -10 16 -10 6 0 8 3 6 8 -3 4 6 8 20 9 19 1 22 -1 12 -8 -10 -6 -2 -9 24
-9 28 0 36 3 31 13 -6 10 -4 10 7 0 15 -15 33 -18 25 -5 -3 5 1 9 9 9 8 0 15
-4 15 -9 0 -14 14 -9 42 15 25 22 27 29 29 113 3 171 1 184 -22 184 -13 0 -18
-4 -13 -12 6 -10 4 -10 -7 0 -7 6 -23 12 -36 12 -23 0 -23 -2 -23 -105 0 -93
-2 -104 -17 -98 -10 4 -14 2 -10 -4 8 -13 -11 -12 -32 1 -9 6 -12 5 -7 -2 7
-11 -12 -11 -31 1 -8 5 -13 4 -13 -2 0 -6 -5 -11 -11 -11 -5 0 -8 4 -5 9 7 10
-20 9 -30 -2 -4 -4 -14 -7 -23 -7 -14 0 -14 2 -1 10 9 6 10 10 3 10 -6 0 -15
-4 -18 -10 -3 -5 -10 -10 -14 -10 -8 0 -9 5 -13 65 -2 22 -7 46 -12 54 -6 10
-6 12 2 7 16 -10 15 16 0 33 -11 11 -10 13 0 7 9 -5 12 1 10 23 -2 25 -5 28
-17 18 -11 -9 -13 -9 -8 0 5 8 -6 11 -39 10 -39 -2 -48 -6 -50 -22 -2 -11 -1
-27 3 -35 10 -23 11 -50 2 -44 -5 3 -9 1 -9 -5 0 -5 4 -12 9 -16 6 -3 9 -14 8
-25 -1 -10 -5 -16 -9 -14 -13 8 -9 -11 5 -25 10 -10 9 -12 -3 -9 -8 2 -14 -2
-13 -9 1 -6 -5 -10 -15 -8 -9 2 -17 4 -17 5 0 1 -13 3 -30 5 -24 4 -26 3 -10
-5 17 -7 15 -8 -11 -7 l-31 2 -2 75 c-1 41 -4 76 -6 78 -2 2 0 15 5 27 11 28
-2 34 -65 32 l-40 -2 1 -47 c0 -27 -3 -45 -9 -41 -5 3 -4 -4 2 -15 14 -27 14
-35 -1 -26 -10 6 -10 4 0 -8 26 -32 0 -76 -42 -74 -22 1 -22 3 -25 184 -1 17
-6 32 -12 32 -5 0 -7 -5 -4 -11 4 -6 -2 -5 -14 3 -17 11 -25 11 -42 0 -12 -8
-19 -9 -15 -4 8 13 -56 13 -73 -1 -9 -7 -12 -8 -8 -1 9 15 -53 16 -72 1 -12
-9 -13 -9 -7 1 4 6 3 12 -1 12 -5 0 -15 -6 -22 -12 -11 -10 -13 -10 -7 0 9 15
6 15 -18 -3z m126 -101 c7 -4 8 -3 4 4 -10 16 7 15 23 0 9 -8 12 -9 7 -1 -4 7
1 10 11 9 14 -2 18 -13 19 -49 1 -26 -2 -47 -8 -47 -5 0 -7 -4 -4 -9 4 -5 -2
-8 -11 -6 -10 2 -18 4 -18 5 0 1 -8 3 -18 5 -9 2 -15 -1 -11 -6 3 -5 0 -9 -5
-9 -6 0 -11 5 -11 11 0 8 -4 8 -13 1 -11 -9 -13 0 -14 48 -1 52 1 58 18 55 11
-2 24 -7 31 -11z"/>
<path d="M581 1271 c3 -52 13 -62 38 -38 11 10 13 10 7 0 -4 -8 -2 -13 6 -13
8 0 20 6 27 13 11 10 13 10 7 0 -4 -7 -2 -13 3 -13 10 0 13 12 14 45 1 6 9 18
18 27 17 16 18 16 16 -2 -1 -10 -4 -17 -8 -14 -3 2 -6 -8 -6 -21 0 -32 13 -41
34 -23 13 10 15 10 9 0 -6 -10 2 -12 33 -11 34 3 38 5 28 18 -9 12 -9 13 1 7
9 -5 12 4 12 33 l0 41 -60 0 c-47 0 -60 -3 -60 -15 0 -8 -4 -15 -10 -15 -5 0
-9 6 -7 13 1 8 -15 13 -51 15 l-53 3 2 -50z"/>
</g>
</svg>
