<?xml version="1.0" encoding="UTF-8" standalone="no"?>
<svg
   xmlns:dc="http://purl.org/dc/elements/1.1/"
   xmlns:cc="http://creativecommons.org/ns#"
   xmlns:rdf="http://www.w3.org/1999/02/22-rdf-syntax-ns#"
   xmlns:svg="http://www.w3.org/2000/svg"
   xmlns="http://www.w3.org/2000/svg"
   viewBox="0 0 754.96002 456.44"
   height="456.44"
   width="754.96002"
   xml:space="preserve"
   id="svg2"
   version="1.1"><metadata
     id="metadata8"><rdf:RDF><cc:Work
         rdf:about=""><dc:format>image/svg+xml</dc:format><dc:type
           rdf:resource="http://purl.org/dc/dcmitype/StillImage" /></cc:Work></rdf:RDF></metadata><defs
     id="defs6" /><g
     transform="matrix(1.3333333,0,0,-1.3333333,0,456.44)"
     id="g10"><g
       transform="scale(0.1)"
       id="g12"><path
         id="path14"
         style="fill:#795aa4;fill-opacity:1;fill-rule:nonzero;stroke:none"
         d="M 5662.18,0 H 0 V 3423.33 H 5662.18 V 0" />
         <path
         id="path16"
         style="fill:#513b7e;fill-opacity:1;fill-rule:nonzero;stroke:none"
         d="m 2357.12,2535.95 v 222.49 c 0,4.15 0,8.82 0,14.01 0,5.19 0.29,10.61 0.89,16.24 -1.49,-1.48 -2.52,-3.05 -3.11,-4.67 -0.6,-1.64 -1.64,-3.19 -3.12,-4.67 -4.45,-4.45 -10.53,-11.27 -18.24,-20.47 -7.72,-9.2 -16.25,-20.02 -25.59,-32.48 -9.34,-12.46 -19.29,-26.25 -29.81,-41.39 -10.54,-15.13 -20.77,-30.99 -30.7,-47.61 -9.95,-16.61 -19.36,-33.52 -28.26,-50.72 -8.9,-17.22 -16.62,-34.12 -23.14,-50.73 z m 167.76,-67.19 h -82.77 v -148.62 h -84.99 v 148.62 h -243.4 l -5.34,26.25 c 3.26,18.69 10.31,40.2 21.14,64.53 10.82,24.32 23.95,49.68 39.38,76.09 15.42,26.39 32.4,52.95 50.95,79.64 18.53,26.7 37.07,51.84 55.62,75.43 18.53,23.58 36.33,44.72 53.4,63.4 17.05,18.7 31.96,33.23 44.71,43.61 h 68.53 v -361.76 h 82.77 v -67.19" /><path
         id="path18"
         style="fill:#513b7e;fill-opacity:1;fill-rule:nonzero;stroke:none"
         d="m 2907.64,2603.59 c 0,77.42 -8.89,135.34 -26.7,173.75 -17.8,38.42 -43.9,57.63 -78.31,57.63 -36.79,0 -64.52,-19.51 -83.21,-58.51 -18.69,-39.02 -28.03,-98.12 -28.03,-177.33 0,-72.97 9.19,-127.56 27.58,-163.75 18.39,-36.19 45.39,-54.28 80.99,-54.28 35.3,0 62.07,18.39 80.31,55.18 18.25,36.78 27.37,92.55 27.37,167.31 z m 87.21,6.23 c 0,-46.57 -4.52,-88.34 -13.57,-125.27 -9.05,-36.93 -22.18,-68.15 -39.38,-93.66 -17.2,-25.52 -38.19,-45.02 -62.95,-58.52 -24.78,-13.49 -52.89,-20.24 -84.33,-20.24 -31.15,0 -58.59,6.31 -82.32,18.91 -23.74,12.6 -43.61,30.99 -59.63,55.17 -16.01,24.18 -28.1,53.92 -36.26,89.22 -8.16,35.3 -12.24,75.65 -12.24,121.03 0,49.25 4.08,92.93 12.24,131.05 8.16,38.12 20.61,70.22 37.37,96.34 16.76,26.1 37.75,45.9 62.97,59.4 25.21,13.5 54.73,20.25 88.55,20.25 126.37,0 189.55,-97.89 189.55,-293.68" /><path
         id="path20"
         style="fill:#513b7e;fill-opacity:1;fill-rule:nonzero;stroke:none"
         d="m 3322.89,2535.95 v 222.49 c 0,4.15 0,8.82 0,14.01 0,5.19 0.29,10.61 0.89,16.24 -1.49,-1.48 -2.53,-3.05 -3.12,-4.67 -0.59,-1.64 -1.63,-3.19 -3.11,-4.67 -4.45,-4.45 -10.54,-11.27 -18.24,-20.47 -7.73,-9.2 -16.24,-20.02 -25.59,-32.48 -9.34,-12.46 -19.29,-26.25 -29.81,-41.39 -10.54,-15.13 -20.78,-30.99 -30.71,-47.61 -9.94,-16.61 -19.35,-33.52 -28.26,-50.72 -8.9,-17.22 -16.61,-34.12 -23.13,-50.73 z m 167.75,-67.19 h -82.76 v -148.62 h -84.99 v 148.62 h -243.41 l -5.33,26.25 c 3.26,18.69 10.3,40.2 21.13,64.53 10.83,24.32 23.96,49.68 39.39,76.09 15.42,26.39 32.4,52.95 50.95,79.64 18.53,26.7 37.08,51.84 55.61,75.43 18.55,23.58 36.34,44.72 53.4,63.4 17.06,18.7 31.96,33.23 44.73,43.61 h 68.52 v -361.76 h 82.76 v -67.19" /><path
         id="path22"
         style="fill:#f5f9fc;fill-opacity:1;fill-rule:nonzero;stroke:none"
         d="m 2333.78,2565.95 v 222.49 c 0,4.15 0,8.82 0,14.01 0,5.19 0.3,10.61 0.9,16.24 -1.49,-1.48 -2.53,-3.05 -3.12,-4.67 -0.6,-1.64 -1.63,-3.19 -3.11,-4.67 -4.46,-4.45 -10.53,-11.27 -18.25,-20.47 -7.71,-9.2 -16.24,-20.02 -25.59,-32.48 -9.34,-12.46 -19.28,-26.25 -29.81,-41.39 -10.53,-15.13 -20.77,-30.99 -30.7,-47.61 -9.94,-16.61 -19.36,-33.52 -28.26,-50.72 -8.9,-17.22 -16.61,-34.12 -23.13,-50.73 z m 167.76,-67.19 h -82.77 v -148.62 h -84.99 v 148.62 h -243.39 l -5.35,26.25 c 3.27,18.69 10.31,40.2 21.14,64.53 10.83,24.32 23.95,49.68 39.38,76.09 15.42,26.39 32.41,52.95 50.95,79.64 18.54,26.7 37.08,51.84 55.62,75.43 18.54,23.58 36.34,44.72 53.4,63.4 17.05,18.7 31.96,33.23 44.72,43.61 h 68.52 v -361.76 h 82.77 v -67.19" /><path
         id="path24"
         style="fill:#f5f9fc;fill-opacity:1;fill-rule:nonzero;stroke:none"
         d="m 2884.31,2633.59 c 0,77.42 -8.9,135.34 -26.7,173.75 -17.8,38.42 -43.91,57.63 -78.32,57.63 -36.79,0 -64.52,-19.51 -83.21,-58.51 -18.69,-39.02 -28.03,-98.12 -28.03,-177.33 0,-72.97 9.19,-127.56 27.59,-163.75 18.39,-36.19 45.39,-54.28 80.99,-54.28 35.29,0 62.07,18.4 80.31,55.18 18.25,36.78 27.37,92.55 27.37,167.31 z m 87.21,6.23 c 0,-46.57 -4.53,-88.34 -13.57,-125.27 -9.05,-36.93 -22.18,-68.15 -39.38,-93.66 -17.2,-25.52 -38.2,-45.02 -62.96,-58.52 -24.78,-13.49 -52.89,-20.24 -84.33,-20.24 -31.14,0 -58.58,6.31 -82.32,18.91 -23.73,12.6 -43.6,30.99 -59.62,55.17 -16.02,24.18 -28.11,53.92 -36.27,89.22 -8.16,35.3 -12.24,75.65 -12.24,121.03 0,49.25 4.08,92.93 12.24,131.05 8.16,38.12 20.62,70.22 37.38,96.34 16.76,26.1 37.75,45.9 62.96,59.4 25.21,13.5 54.73,20.25 88.55,20.25 126.38,0 189.56,-97.89 189.56,-293.68" /><path
         id="path26"
         style="fill:#f5f9fc;fill-opacity:1;fill-rule:nonzero;stroke:none"
         d="m 3299.56,2565.95 v 222.49 c 0,4.15 0,8.82 0,14.01 0,5.19 0.29,10.61 0.89,16.24 -1.49,-1.48 -2.53,-3.05 -3.12,-4.67 -0.59,-1.64 -1.63,-3.19 -3.11,-4.67 -4.45,-4.45 -10.54,-11.27 -18.24,-20.47 -7.73,-9.2 -16.24,-20.02 -25.59,-32.48 -9.35,-12.46 -19.29,-26.25 -29.81,-41.39 -10.54,-15.13 -20.78,-30.99 -30.71,-47.61 -9.94,-16.61 -19.35,-33.52 -28.26,-50.72 -8.9,-17.22 -16.61,-34.12 -23.13,-50.73 z m 167.75,-67.19 h -82.76 v -148.62 h -84.99 v 148.62 h -243.41 l -5.34,26.25 c 3.27,18.69 10.31,40.2 21.14,64.53 10.83,24.32 23.96,49.68 39.39,76.09 15.42,26.39 32.4,52.95 50.95,79.64 18.53,26.7 37.08,51.84 55.61,75.43 18.55,23.58 36.34,44.72 53.4,63.4 17.06,18.7 31.96,33.23 44.73,43.61 h 68.52 v -361.76 h 82.76 v -67.19" />
       
        <path
         id="path90"
         style="fill:#f5f9fc;fill-opacity:1;fill-rule:nonzero;stroke:none"
         d="M 4586.67,1008.89 H 0 v 210 h 4586.67 v -210" /><path
         id="path92"
         style="fill:#f5f9fc;fill-opacity:1;fill-rule:nonzero;stroke:none"
         d="m 4941.65,723.891 h -40 c -215.39,0 -390,174.609 -390,389.999 v 0 c 0,215.39 174.61,390 390,390 h 40 V 723.891" /><path
         id="path94"
         style="fill:#f5f9fc;fill-opacity:1;fill-rule:nonzero;stroke:none"
         d="m 5451.65,1293.89 h -370 c -43.99,0 -80,36 -80,80 v 0 c 0,44 36.01,80 80,80 h 370 c 44,0 80,-36 80,-80 v 0 c 0,-44 -36,-80 -80,-80" /><path
         id="path96"
         style="fill:#f5f9fc;fill-opacity:1;fill-rule:nonzero;stroke:none"
         d="m 5451.65,793.891 h -370 c -43.99,0 -80,36 -80,80 v 0 c 0,44 36.01,80 80,80 h 370 c 44,0 80,-36 80,-80 v 0 c 0,-44 -36,-80 -80,-80" /><path
         id="path98"
         style="fill:#795aa4;fill-opacity:1;fill-rule:nonzero;stroke:none"
         d="m 2384.26,1243.33 -127.63,-91.55 72.95,-35.67 -97.54,-37.03 97.54,-32.31 -135.7,-57.879 H 3340.3 l -55.11,49.809 55.11,48.46 -55.11,28.95 55.11,51.83 -117.9,32.3 117.9,43.09 h -956.04" /><path
         id="path100"
         style="fill:#ef8a2b;fill-opacity:1;fill-rule:nonzero;stroke:none"
         d="m 2365.24,1293.89 -71.91,80 36.25,42.78 z" /><path
         id="path102"
         style="fill:#ef8a2b;fill-opacity:1;fill-rule:nonzero;stroke:none"
         d="m 2609.5,1176.67 72.21,240 103.72,-61.39 z" /><path
         id="path104"
         style="fill:#ef8a2b;fill-opacity:1;fill-rule:nonzero;stroke:none"
         d="m 2529.53,1036.67 121.55,-193.338 -60.77,-49.441 z" /><path
         id="path106"
         style="fill:#ef8a2b;fill-opacity:1;fill-rule:nonzero;stroke:none"
         d="m 3123.72,1209.81 -208.14,124.24 61.29,75.95 z" /><path
         id="path108"
         style="fill:#ef8a2b;fill-opacity:1;fill-rule:nonzero;stroke:none"
         d="m 2866.69,784.32 199.15,218.75 -105.57,-236.129 z" /><path
         id="path110"
         style="fill:#ef8a2b;fill-opacity:1;fill-rule:nonzero;stroke:none"
         d="m 3033.87,1119.54 -66.26,-110.64 -35.54,60.51 z" /><path
         id="path112"
         style="fill:#ef8a2b;fill-opacity:1;fill-rule:nonzero;stroke:none"
         d="m 2774.03,919.262 -103.16,115.408 141.11,-50.26 z" /><path
         id="path114"
         style="fill:#ef8a2b;fill-opacity:1;fill-rule:nonzero;stroke:none"
         d="m 3222.4,1036.67 -30.7,-121.389 h 61.63 z" /><path
         id="path116"
         style="fill:#ef8a2b;fill-opacity:1;fill-rule:nonzero;stroke:none"
         d="m 2365.24,1008.89 101.13,-134.999 -101.13,-7.5 z" /><path
         id="path118"
         style="fill:#ef8a2b;fill-opacity:1;fill-rule:nonzero;stroke:none"
         d="m 2428.8,1195.5 69.97,-18.83 -69.97,-18.84 -18.83,-69.98 -18.84,69.98 -69.97,18.84 69.97,18.83 18.84,69.98 18.83,-69.98" /><path
         id="path120"
         style="fill:#ef8a2b;fill-opacity:1;fill-rule:nonzero;stroke:none"
         d="m 3253.96,820.082 49.84,-13.402 -49.84,-13.418 -13.41,-49.84 -13.41,49.84 -49.84,13.418 49.84,13.402 13.41,49.84 13.41,-49.84" /><path
         id="path122"
         style="fill:#ef8a2b;fill-opacity:1;fill-rule:nonzero;stroke:none"
         d="m 2886.77,1256.74 49.83,-13.41 -49.83,-13.41 -13.41,-49.84 -13.42,49.84 -49.83,13.41 49.83,13.41 13.42,49.84 13.41,-49.84" /></g></g></svg>