<?xml version="1.0" encoding="UTF-8" standalone="no"?>
<svg
   xmlns:dc="http://purl.org/dc/elements/1.1/"
   xmlns:cc="http://creativecommons.org/ns#"
   xmlns:rdf="http://www.w3.org/1999/02/22-rdf-syntax-ns#"
   xmlns:svg="http://www.w3.org/2000/svg"
   xmlns="http://www.w3.org/2000/svg"
   viewBox="0 0 3733.3333 2666.6667"
   height="2666.6667"
   width="3733.3333"
   xml:space="preserve"
   id="svg2"
   version="1.1"><metadata
     id="metadata8"><rdf:RDF><cc:Work
         rdf:about=""><dc:format>image/svg+xml</dc:format><dc:type
           rdf:resource="http://purl.org/dc/dcmitype/StillImage" /></cc:Work></rdf:RDF></metadata><defs
     id="defs6" /><g
     transform="matrix(1.3333333,0,0,-1.3333333,0,2666.6667)"
     id="g10"><g
       transform="scale(0.1)"
       id="g12"><g
         transform="scale(1.71779)"
         id="g14"><path
           id="path16"
           style="fill:#ffffff;fill-opacity:1;fill-rule:nonzero;stroke:none"
           d="M 16300,0 H 0 V 11642.9 H 16300 V 0" /></g><g
         transform="scale(1.46583)"
         id="g18"><path
           id="path20"
           style="fill:#b75742;fill-opacity:1;fill-rule:nonzero;stroke:none"
           d="m 13512.6,3176.84 c -207.8,173.83 -314.4,334.69 -333.6,365.18 l 730.9,461.72 c 0,0 -1,1.71 -3.2,4.85 0.7,-0.89 61.5,-90.46 183.2,-187.06 155.4,-123.28 336.1,-202.01 536.9,-234 255.6,-40.66 519.4,44.55 695.7,123.21 196.4,87.73 328.2,185.96 329.4,186.92 l 648.1,-125.25 -121.8,-560.64 c -253.2,-194.36 -655.8,-386.4 -1028.9,-460.42 -619,-122.87 -1210,68.56 -1636.7,425.49" /></g><g
         transform="scale(1.35561)"
         id="g22"><path
           id="path24"
           style="fill:#86b1f2;fill-opacity:1;fill-rule:nonzero;stroke:none"
           d="m 15754.8,10012.6 185.5,96.1 184.4,-98.3 c 21,-11.19 45.7,6.6 41.8,30 l -34.1,206.2 150.4,144.9 c 17.2,16.5 7.9,45.5 -15.6,49.1 l -206.6,31.2 -91.4,187.9 c -10.4,21.4 -40.8,21.6 -51.5,0.3 l -93.5,-186.8 -206.9,-28.8 c -23.6,-3.3 -33.1,-32.2 -16.2,-48.9 l 148.7,-146.7 -36.5,-205.7 c -4.1,-23.5 20.4,-41.5 41.5,-30.5" /></g><g
         transform="scale(1.27792)"
         id="g26"><path
           id="path28"
           style="fill:#f47257;fill-opacity:1;fill-rule:nonzero;stroke:none"
           d="M 16300,6617.47 H 6618.13 V 5604.03 H 16300 v 1013.44" /></g><g
         transform="scale(1.18284)"
         id="g30"><path
           id="path32"
           style="fill:#3c8f7c;fill-opacity:1;fill-rule:nonzero;stroke:none"
           d="M 14828,3274.07 C 12469.2,4521.24 9907.17,5288.88 7276.85,5536.59 7374.32,6677.91 7471.77,7819.23 7569.22,8960.58 10610.5,8674.18 13572.7,7786.6 16300,6344.56 15809.3,5321.01 15318.6,4297.54 14828,3274.07" /></g><g
         transform="scale(1.15013)"
         id="g34"><path
           id="path36"
           style="fill:#96d9c9;fill-opacity:1;fill-rule:nonzero;stroke:none"
           d="m 7722.29,6337.9 c 68.31,732.09 136.6,1464.1 204.9,2196.19 284.28,-29.22 538.97,154.24 569.92,417.23 2607.59,-327.5 5148.89,-1088.98 7528.49,-2255.81 -105.8,-240.49 18.3,-537.5 274.4,-670.27 -309.8,-659.67 -619.6,-1319.33 -929.4,-1979.08 -235.7,122.24 -514.6,21.21 -620.3,-219.2 -2089.6,1024.67 -4321.3,1693.38 -6611.18,1981 30.95,262.75 -155.23,503.07 -416.83,529.94" /></g><path
         id="path38"
         style="fill:#50bfa5;fill-opacity:1;fill-rule:nonzero;stroke:none"
         d="m 15319.9,7150.5 c -251.5,-724.3 -1027.1,-1093.2 -1746.4,-872.1 -718.9,222.9 -1180.8,973.8 -1019.2,1725.7 161.2,750.7 959.2,1200.5 1768.1,950.3 809.2,-249.3 1248.7,-1081 997.5,-1803.9" /><path
         id="path40"
         style="fill:#3c8f7c;fill-opacity:1;fill-rule:nonzero;stroke:none"
         d="m 13567.5,6533.4 c 20.1,80.8 40.2,161.6 60.2,242.5 -108.3,35.2 -211,84.8 -293.2,137.3 -68.5,43.7 -93.4,132.5 -56.4,203.2 1.5,2.8 3,5.6 4.5,8.5 40.8,77.8 141.1,102.8 216.9,52.9 77.1,-50.7 167.8,-96.2 268.8,-124.4 146.9,-41.1 261.8,-14.6 288.4,87.2 25.1,96.6 -41.8,182.4 -219.6,300.3 -257,169.8 -421.1,346.9 -364.4,596 51.2,225.6 259.4,360.6 562.8,334.1 19.8,80.9 39.6,161.8 59.5,242.8 89.2,-24.7 178.3,-49.9 267.3,-75.6 -19.1,-74.7 -38.2,-149.5 -57.3,-224.2 97.2,-32.5 174.6,-68.7 237.5,-105.8 76.8,-45.3 103.9,-139.9 61.9,-211.3 v 0 c -43.5,-73.7 -143.3,-94.8 -220.7,-46.7 -58.1,36.1 -132.1,72.9 -226.6,99.9 -174.1,49.4 -248,-7.2 -265.4,-78.6 -20.7,-84.5 59.9,-163.1 263.4,-309.3 286.5,-198.2 372.2,-377.6 309.3,-605.3 -62.7,-225.7 -276.6,-367.3 -582.2,-333.7 -22.3,-86.6 -44.7,-173.2 -67.1,-259.7 -82.5,23.7 -165,47 -247.6,69.9" /><path
         id="path42"
         style="fill:#50bfa5;fill-opacity:1;fill-rule:nonzero;stroke:none"
         d="m 12128.3,8032.2 c -711.1,164.1 -1429.1,297.8 -2152.13,400.5 16.73,129.8 33.43,259.6 50.13,389.4 733.2,-104.1 1461.2,-239.7 2182.3,-406.1 -26.8,-127.9 -53.5,-255.9 -80.3,-383.8" /><g
         transform="scale(1.09394)"
         id="g44"><path
           id="path46"
           style="fill:#50bfa5;fill-opacity:1;fill-rule:nonzero;stroke:none"
           d="m 16155.7,5542.63 c -605,295.81 -1220.6,565.12 -1845,807.45 39.5,112.35 79,224.7 118.5,336.95 633.3,-245.72 1257.4,-518.77 1870.8,-818.78 -48.1,-108.51 -96.3,-217.11 -144.3,-325.62" /></g><g
         transform="scale(1.156)"
         id="g48"><path
           id="path50"
           style="fill:#3c8f7c;fill-opacity:1;fill-rule:nonzero;stroke:none"
           d="M 16300,7358.39 C 13809.9,6838.15 11438.6,5795.59 9311.16,4285.55 8736.33,5277.51 8161.54,6269.29 7586.72,7261.16 10046.5,9007.1 12788.2,10212.6 15667.4,10814.1 15878.3,9662.2 16089.2,8510.29 16300,7358.39" /></g><g
         transform="scale(1.1357)"
         id="g52"><path
           id="path54"
           style="fill:#96d9c9;fill-opacity:1;fill-rule:nonzero;stroke:none"
           d="m 9293.83,5034.17 c -360.57,633.35 -721.11,1266.7 -1081.68,1900.15 228.89,159.55 316.13,471.25 191.4,702.91 2133.45,1415.61 4461.35,2439.17 6896.25,3032.17 56.2,-261.8 316,-420.9 582.1,-362.9 139.3,-730.65 278.7,-1461.29 418.1,-2191.94 -245,-53.45 -396.7,-314.43 -340.6,-576.03 C 13821.3,7017.79 11777,6118.96 9903.5,4875.85 c -124.68,231.49 -398.96,305.19 -609.67,158.32" /></g><path
         id="path56"
         style="fill:#50bfa5;fill-opacity:1;fill-rule:nonzero;stroke:none"
         d="m 15384.6,9701 c 216.5,-735.7 -151.1,-1522.2 -804.9,-1803.8 -654.3,-280 -1412.3,23.2 -1710.5,723.8 -297.8,699.3 41.5,1564.4 777.5,1879.9 735.8,316.4 1522,-65.4 1737.9,-799.9" /><path
         id="path58"
         style="fill:#3c8f7c;fill-opacity:1;fill-rule:nonzero;stroke:none"
         d="m 14433.7,8096 c -30,77.1 -60.1,154.1 -90.1,231.2 -99.6,-40.9 -202.9,-66.8 -292.7,-77.4 -74.9,-8.8 -142.6,46 -154.5,125.7 -0.5,3.2 -0.9,6.4 -1.4,9.6 -13.1,87.9 47.1,171.5 130.7,180.1 85.2,8.7 177.3,30.2 267.5,71.9 131.3,60.8 201.4,155 164.5,252.8 -35.1,92.8 -132.1,118.4 -328.8,99.1 -284,-28.4 -503.5,8.1 -600,242.1 -87.5,211.9 -8.7,451.7 229.9,623.5 -30.2,77 -60.5,153.9 -90.8,230.8 79.6,37.1 159.3,73.8 239.3,110 27.4,-71.6 54.8,-143.1 82.2,-214.7 89.8,36 167.1,56.4 234,66.9 81.9,12.8 154.4,-45.2 163,-128.6 v 0 c 8.8,-86.3 -53.1,-166.5 -136.9,-177.5 -63,-8.2 -138,-26 -222.7,-64.7 -156.1,-71.4 -179.2,-163.4 -152.3,-231.2 31.6,-80.4 134.7,-91.6 366.1,-78.4 321.6,24.6 484.5,-63.6 564.4,-284.6 79,-219.3 -0.2,-467.9 -244.4,-635.5 31.6,-83.1 63.1,-166.1 94.6,-249.2 -74,-33.6 -147.9,-67.5 -221.6,-101.9" /><path
         id="path60"
         style="fill:#50bfa5;fill-opacity:1;fill-rule:nonzero;stroke:none"
         d="m 12539.2,8372.5 c -616.1,-321.8 -1220.3,-672.1 -1811,-1050.2 -59.8,113.8 -119.5,227.6 -179.2,341.5 599,383.4 1211.7,738.6 1836.4,1064.8 51.2,-118.7 102.5,-237.4 153.8,-356.1" /><g
         transform="scale(1.08745)"
         id="g62"><path
           id="path64"
           style="fill:#50bfa5;fill-opacity:1;fill-rule:nonzero;stroke:none"
           d="m 16300,9502.24 c -614.5,-150.39 -1221.9,-328.7 -1821,-534.41 -33.4,115.13 -66.8,230.19 -100.2,345.29 607.5,208.56 1223.5,389.42 1846.5,541.92 25,-117.61 49.8,-235.2 74.7,-352.8" /></g><g
         transform="scale(1.19679)"
         id="g66"><path
           id="path68"
           style="fill:#3c8f7c;fill-opacity:1;fill-rule:nonzero;stroke:none"
           d="M 16128.2,5004.97 C 13626.8,5156.62 11121.7,4789.47 8744.8,3922.91 8417.59,4997.36 8090.34,6071.82 7763.09,7146.28 10511.3,8148.2 13407.8,8572.72 16300,8397.44 16242.8,7266.6 16185.5,6135.82 16128.2,5004.97" /></g><g
         transform="scale(1.18089)"
         id="g70"><path
           id="path72"
           style="fill:#96d9c9;fill-opacity:1;fill-rule:nonzero;stroke:none"
           d="m 8837.91,4647.94 c -201.88,681.52 -403.74,1363.04 -605.62,2044.47 254.03,90.19 406.96,358.12 339.97,605.56 2351.14,773.4 4799.84,1132.28 7254.14,1063.19 -5.2,-258.03 206.9,-472.45 473.6,-486.25 -30.8,-715.65 -61.6,-1431.21 -92.5,-2146.86 -245.5,12.79 -448.5,-191.46 -453.6,-449.23 -2155.3,60.72 -4305.6,-254.47 -6370.21,-933.62 -66.99,247.19 -312.05,385.72 -545.78,302.74" /></g><path
         id="path74"
         style="fill:#50bfa5;fill-opacity:1;fill-rule:nonzero;stroke:none"
         d="m 16152.2,8063.3 c 43.3,-769.4 -504.3,-1433.1 -1218,-1532.3 -713.9,-97.4 -1394.7,397.1 -1527.1,1154.2 -132.3,755.8 405.5,1503 1208.7,1613.2 803,111 1493.5,-467 1536.4,-1235.1" /><path
         id="path76"
         style="fill:#3c8f7c;fill-opacity:1;fill-rule:nonzero;stroke:none"
         d="m 14835.8,6762.2 c -11.9,82.5 -23.7,165.1 -35.6,247.6 -108.2,-13.2 -216.6,-10.8 -308.1,2.8 -76.3,11.3 -130.7,82.3 -123.9,162.6 0.3,3.2 0.5,6.4 0.8,9.7 7.5,88.5 86.7,153.5 171.6,139.5 86.4,-14.1 182.8,-17.7 281.9,-1.2 144.3,23.9 235.7,96.5 221.9,201 -13.2,99 -103.4,149.6 -302.9,183.1 -288.1,47.8 -497.2,141.3 -538.3,393.4 -37.4,228.3 96.5,439.4 373.1,542.5 -12,82.4 -24.1,164.9 -36.3,247.4 87.6,14.8 175.2,29.1 262.8,43 10.6,-76.6 21.1,-153.1 31.6,-229.6 97.4,11 178.7,10.3 247.5,2.7 84.2,-9.3 142.6,-84.7 131.7,-167.7 v 0 c -11.4,-85.9 -91.4,-147.1 -177.2,-135.5 -64.3,8.8 -142.8,11.4 -235.8,-3.5 -171.3,-27.8 -215.6,-110.6 -204.8,-183.4 12.6,-86.2 112.2,-124.4 344.7,-173 324.5,-61.5 465.5,-190 493.2,-425.1 27.2,-233.2 -109.2,-452.7 -390.3,-550.2 11.9,-88.8 23.8,-177.5 35.7,-266.3 -81.2,-12.8 -162.3,-26.1 -243.3,-39.8" /><path
         id="path78"
         style="fill:#50bfa5;fill-opacity:1;fill-rule:nonzero;stroke:none"
         d="m 13022,7532.2 c -685.6,-148 -1366.2,-326.8 -2039.9,-536 -32.7,126 -65.4,252 -98.1,378 683.2,212.2 1373.2,393.4 2068.5,543.5 23.2,-128.5 46.3,-257 69.5,-385.5" /><g
         transform="scale(1.14288)"
         id="g80"><path
           id="path82"
           style="fill:#50bfa5;fill-opacity:1;fill-rule:nonzero;stroke:none"
           d="m 16292.3,7047.39 c -612.9,16.62 -1225.5,5.69 -1836.2,-32.55 -5.9,114.45 -11.9,228.81 -17.9,343.25 619.2,38.77 1240.3,49.88 1861.8,33.08 -2.5,-114.63 -5.2,-229.16 -7.7,-343.78" /></g><g
         transform="scale(1.27792)"
         id="g84"><path
           id="path86"
           style="fill:#f47257;fill-opacity:1;fill-rule:nonzero;stroke:none"
           d="M 6618.13,6617.47 V 2356.41 H 16300 V 6617.47 H 6618.13" /></g><g
         transform="scale(1.27792)"
         id="g88"><path
           id="path90"
           style="fill:#b75742;fill-opacity:1;fill-rule:nonzero;stroke:none"
           d="m 16300,3444.27 h -2395.8 c -106.2,0 -192.3,-90.15 -192.3,-201.35 v 0 c 0,-111.27 86.1,-201.42 192.3,-201.42 h -310.6 c -106.2,0 -192.4,-90.14 -192.4,-201.42 v 0 c 0,-111.19 86.2,-201.42 192.4,-201.42 h 53.8 c -106.2,0 -192.3,-90.14 -192.3,-201.34 0,-28.8 5.8,-56.11 16.2,-80.91 H 16300 v 1087.86" /></g><g
         transform="scale(1.23782)"
         id="g92"><path
           id="path94"
           style="fill:#b75742;fill-opacity:1;fill-rule:nonzero;stroke:none"
           d="M 16300,6273.6 H 7200.88 v 341.65 H 16300 V 6273.6" /></g><path
         id="path96"
         style="fill:#3c8f7c;fill-opacity:1;fill-rule:nonzero;stroke:none"
         d="M 13819.7,3078.9 H 8736.96 c -229.58,0 -415.69,186.1 -415.69,415.7 V 6045 c 0,229.6 186.11,415.7 415.69,415.7 h 5082.74 c 229.6,0 415.7,-186.1 415.7,-415.7 V 3494.6 c 0,-229.6 -186.1,-415.7 -415.7,-415.7" /><path
         id="path98"
         style="fill:#f7cc7f;fill-opacity:1;fill-rule:nonzero;stroke:none"
         d="M 10157.9,4941.4 H 8701.51 v 846.8 h 1456.39 v -846.8" /><path
         id="path100"
         style="fill:#f7cc7f;fill-opacity:1;fill-rule:nonzero;stroke:none"
         d="m 13861,5844.6 h -2582.7 v 158.1 H 13861 v -158.1" /><path
         id="path102"
         style="fill:#f7cc7f;fill-opacity:1;fill-rule:nonzero;stroke:none"
         d="M 13669.1,4001 H 8916.03 v 195.3 H 13669.1 V 4001" /><path
         id="path104"
         style="fill:#f7cc7f;fill-opacity:1;fill-rule:nonzero;stroke:none"
         d="M 13669.1,3541.2 H 8916.03 v 195.3 h 4753.07 v -195.3" /><path
         id="path106"
         style="fill:#b75742;fill-opacity:1;fill-rule:nonzero;stroke:none"
         d="M 14308,6926 H 9056.46 v 140.3 H 14308 V 6926" /><g
         transform="scale(1.14371)"
         id="g108"><path
           id="path110"
           style="fill:#fae0b2;fill-opacity:1;fill-rule:nonzero;stroke:none"
           d="m 15975.5,8581.32 c 324.5,-462.27 212.8,-1100.11 -249.6,-1424.5 -462.3,-324.47 -1100,-212.73 -1424.4,249.54 -324.5,462.27 -212.7,1100.11 249.5,1424.52 462.3,324.44 1100.1,212.7 1424.5,-249.56" /></g><g
         transform="scale(1.1306)"
         id="g112"><path
           id="path114"
           style="fill:#f7cc7f;fill-opacity:1;fill-rule:nonzero;stroke:none"
           d="m 16024.6,8585.22 c 275.4,-392.46 180.5,-933.76 -211.9,-1209.19 -392.4,-275.43 -933.8,-180.53 -1209.2,211.83 -275.4,392.45 -180.6,933.85 211.9,1209.19 392.3,275.43 933.7,180.57 1209.2,-211.83" /></g><g
         transform="scale(1.09188)"
         id="g116"><path
           id="path118"
           style="fill:#ffffff;fill-opacity:1;fill-rule:nonzero;stroke:none"
           d="m 15960.9,7740.98 -39.2,144.89 c -66.3,-14.75 -133.8,-19.78 -191.5,-16.85 -48,2.56 -85.9,41.94 -86.5,90.02 l -0.1,5.86 c -0.6,53.04 43.9,95.8 96.8,92.32 54,-3.48 113.4,0.1 173.1,16.21 86.8,23.54 137.3,73.18 120.8,134.18 -15.6,57.88 -74.4,81.32 -197.5,88.93 -178,10.8 -310,56.87 -349.9,204.78 -36.4,134.18 29.8,264.96 184.3,341.16 l -39.2,144.79 149.4,40.39 36.3,-134.17 c 56.2,12.55 103.7,17.4 144.5,17.58 49.9,0.19 90.6,-40.2 91.3,-90.21 v 0 c 0.6,-51.56 -41.6,-93.6 -93.2,-92.4 -38.7,0.82 -85.3,-2.66 -139.1,-17.22 -99.1,-26.84 -119.6,-78.22 -108.1,-120.9 13.7,-50.28 75.7,-67.86 218.5,-81.6 198.8,-15.02 294.6,-79.04 331.7,-216.32 36.7,-135.64 -28,-277.51 -195.1,-355.45 l 42,-155.51 -149.3,-40.48" /></g><g
         transform="scale(1.2114)"
         id="g120"><path
           id="path122"
           style="fill:#fae0b2;fill-opacity:1;fill-rule:nonzero;stroke:none"
           d="m 15993.7,5011.81 c 306.3,-436.44 200.8,-1038.55 -235.7,-1344.89 -436.5,-306.26 -1038.6,-200.76 -1344.8,235.68 -306.4,436.43 -200.9,1038.55 235.6,1344.89 436.4,306.26 1038.5,200.76 1344.9,-235.68" /></g><g
         transform="scale(1.19829)"
         id="g124"><path
           id="path126"
           style="fill:#f7cc7f;fill-opacity:1;fill-rule:nonzero;stroke:none"
           d="m 16040.1,4976.43 c 259.9,-370.19 170.4,-881.01 -199.8,-1140.87 -370.3,-259.88 -881.1,-170.33 -1140.9,199.95 -259.9,370.19 -170.4,881 199.9,1140.87 370.1,259.79 881,170.33 1140.8,-199.95" /></g><g
         transform="scale(1.15957)"
         id="g128"><path
           id="path130"
           style="fill:#ffffff;fill-opacity:1;fill-rule:nonzero;stroke:none"
           d="m 15980.7,4061.07 -37,136.43 c -62.3,-13.97 -125.9,-18.71 -180.2,-15.86 -45.3,2.32 -80.9,39.41 -81.5,84.77 l -0.1,5.43 c -0.6,49.93 41.3,90.21 91.2,87.01 50.8,-3.36 106.7,0.09 163,15.27 81.8,22.08 129.2,68.82 113.7,126.25 -14.7,54.59 -70,76.58 -186,83.74 -167.6,10.18 -291.8,53.64 -329.4,192.92 -34.3,126.34 28,249.49 173.5,321.15 l -36.9,136.43 140.7,38.03 34.2,-126.34 c 52.8,11.73 97.6,16.39 136.1,16.47 47,0.18 85.2,-37.86 85.8,-84.86 v 0 c 0.6,-48.63 -39.1,-88.22 -87.7,-87.1 -36.4,0.86 -80.2,-2.5 -131,-16.21 -93.3,-25.27 -112.6,-73.56 -101.7,-113.75 12.8,-47.43 71.2,-63.99 205.7,-76.92 187.2,-14.06 277.4,-74.43 312.3,-203.61 34.6,-127.81 -26.3,-261.39 -183.7,-334.78 l 39.6,-146.44 -140.6,-38.03" /></g><g
         transform="scale(1.0622)"
         id="g132"><path
           id="path134"
           style="fill:#fae0b2;fill-opacity:1;fill-rule:nonzero;stroke:none"
           d="m 16300,6461.76 c 0,-608.17 -492.9,-1101.1 -1101.1,-1101.1 -608.1,0 -1101.1,492.93 -1101.1,1101.1 0,608.08 493,1101.02 1101.1,1101.02 608.2,0 1101.1,-492.94 1101.1,-1101.02" /></g><g
         transform="scale(1.05066)"
         id="g136"><path
           id="path138"
           style="fill:#f7cc7f;fill-opacity:1;fill-rule:nonzero;stroke:none"
           d="m 16300,6532.77 c 0,-515.87 -418.2,-934.18 -934.1,-934.18 -515.8,0 -934.1,418.31 -934.1,934.18 0,515.87 418.3,934.09 934.1,934.09 515.9,0 934.1,-418.22 934.1,-934.09" /></g><g
         transform="scale(1.02033)"
         id="g140"><path
           id="path142"
           style="fill:#ffffff;fill-opacity:1;fill-rule:nonzero;stroke:none"
           d="m 15525,6109.33 54.6,151.03 c -67,27.73 -129.3,64.78 -177.9,102.81 -40.6,31.75 -49.5,89.58 -20.5,132.11 l 3.5,5.1 c 32,46.95 97.3,57.04 141.5,21.46 45.1,-36.26 99.4,-69.68 161.6,-92.22 90.6,-32.84 165.3,-20.29 188.3,43.22 21.9,60.37 -15.2,117.02 -118.4,199.35 -149.2,118.88 -236.4,240.41 -180.5,394.48 50.7,139.86 189,213.75 371.1,185.53 l 54.7,150.93 155.8,-56.45 -50.8,-139.86 c 56.8,-23.52 101.5,-48.51 137.4,-73.51 43.9,-30.48 54.6,-90.85 24.5,-135.05 v 0 c -31.2,-45.57 -94,-56.45 -138.5,-23.72 -33.3,24.6 -76.3,50.09 -132.4,70.47 -103.3,37.44 -152.8,5 -168.9,-39.5 -19,-52.43 24.5,-105.94 141.2,-205.72 164.8,-135.34 209.4,-250.41 157.6,-393.4 -51.3,-141.43 -195.3,-225.91 -389.5,-191.41 l -58.7,-162.11 -155.7,56.46" /></g><g
         transform="scale(1.23782)"
         id="g144"><path
           id="path146"
           style="fill:#f48c7f;fill-opacity:1;fill-rule:nonzero;stroke:none"
           d="M 16300,2706.69 H 12020.6 V 5000.07 H 16300 V 2706.69" /></g><g
         transform="scale(1.23782)"
         id="g148"><path
           id="path150"
           style="fill:#b75742;fill-opacity:1;fill-rule:nonzero;stroke:none"
           d="m 14156.1,3347.98 v 0 c 0,-114.88 88.9,-207.95 198.5,-207.95 h -320.7 c -109.6,0 -198.6,-93.06 -198.6,-207.95 v 0 c 0,-114.79 89,-207.94 198.6,-207.94 h 55.6 c -28.4,0 -55.3,-6.22 -79.8,-17.45 H 16300 v 849.15 h -1945.4 c -109.6,0 -198.5,-93.06 -198.5,-207.86" /></g><g
         transform="scale(1.44086)"
         id="g152"><path
           id="path154"
           style="fill:#13375b;fill-opacity:1;fill-rule:nonzero;stroke:none"
           d="m 2864.33,2147.54 v 0 c 0,-31.79 23.93,-57.61 53.46,-57.61 H 16246.5 c 29.6,0 53.5,25.82 53.5,57.61 v 0 c 0,31.85 -23.9,57.6 -53.5,57.6 H 2917.79 c -29.53,0 -53.46,-25.75 -53.46,-57.6" /></g><g
         transform="scale(1.29391)"
         id="g156"><path
           id="path158"
           style="fill:#f7cc7f;fill-opacity:1;fill-rule:nonzero;stroke:none"
           d="M 16122.5,2208.26 H 13679 c -98,0 -177.5,79.45 -177.5,177.52 v 0 c 0,98 79.5,177.53 177.5,177.53 h 2443.5 c 98.1,0 177.5,-79.53 177.5,-177.53 v 0 c 0,-98.07 -79.4,-177.52 -177.5,-177.52" /></g><g
         transform="scale(1.28998)"
         id="g160"><path
           id="path162"
           style="fill:#fae0b2;fill-opacity:1;fill-rule:nonzero;stroke:none"
           d="M 16121.9,2571.14 H 13671 c -98.3,0 -178.1,79.69 -178.1,178.06 v 0 c 0,98.3 79.8,178.07 178.1,178.07 h 2450.9 c 98.3,0 178.1,-79.77 178.1,-178.07 v 0 c 0,-98.37 -79.8,-178.06 -178.1,-178.06" /></g><g
         transform="scale(1.31274)"
         id="g164"><path
           id="path166"
           style="fill:#f7cc7f;fill-opacity:1;fill-rule:nonzero;stroke:none"
           d="m 16125,2876.51 h -2408.5 c -96.6,0 -174.9,78.31 -174.9,174.98 v 0 c 0,96.59 78.3,174.98 174.9,174.98 H 16125 c 96.6,0 175,-78.39 175,-174.98 v 0 c 0,-96.67 -78.4,-174.98 -175,-174.98" /></g><g
         transform="scale(1.06615)"
         id="g168"><path
           id="path170"
           style="fill:#466eb6;fill-opacity:1;fill-rule:nonzero;stroke:none"
           d="m 16082.6,12871.2 37.8,-255.2 -404.1,-106.1 9.2,-380 -289.4,-128.8 65.2,-146.5 387,172.3 -8.6,360.1 420.3,110.3 -56.8,384.1 -160.6,-10.2" /></g><g
         transform="scale(1.00301)"
         id="g172"><path
           id="path174"
           style="fill:#96d9c9;fill-opacity:1;fill-rule:nonzero;stroke:none"
           d="m 13034.1,14540.4 82.7,205.4 c -91.1,41.5 -175.1,95.7 -240.3,150.4 -54.3,45.7 -63.9,125.8 -21.8,183 l 5.1,6.9 c 46.3,63.1 136.9,73.9 196.1,22.7 60.3,-52.2 133.6,-100.8 218.1,-134.9 123.3,-49.7 226.8,-36.1 261.6,50.4 33.1,82.1 -15.2,161.9 -153.4,280.4 -199.9,171 -314.1,342.7 -229.7,552.4 76.7,190.2 270.8,285.4 520.4,237.6 l 82.8,205.3 211.9,-85.4 -76.7,-190.2 c 77.2,-35.2 137.5,-71.7 185.7,-107.9 58.9,-44.3 70.8,-128 27.1,-187.3 v 0 c -45.1,-61.4 -132.2,-73.3 -191.9,-26 -44.7,35.5 -102.8,72.7 -179,103.5 -140.5,56.6 -210.3,14.4 -234.7,-46.2 -28.7,-71.3 28.6,-147.2 184.5,-290.4 220.6,-194.4 276.5,-355.1 198.1,-549.7 -77.6,-192.4 -279.9,-301.8 -545.9,-244.8 l -88.9,-220.5 -211.8,85.3" /></g><path
         id="path176"
         style="fill:#86b1f2;fill-opacity:1;fill-rule:nonzero;stroke:none"
         d="m 13465.9,12386.2 c 21.7,-35.1 15.5,-80.7 -14.8,-108.7 -59.4,-55 -154.1,-119.3 -269.5,-162.6 -168.7,-63.3 -356,-69.4 -524.7,7.2 -105.5,47.9 -202,134.2 -270.1,245.7 l -99.7,-37.4 c -33.9,-12.7 -71.7,4.4 -84.4,38.3 l -1,2.6 c -12.7,33.9 4.5,71.6 38.3,84.4 l 81.9,30.7 c -13.2,27.1 -22.4,44.1 -28.2,59.4 -9.6,25.6 -18.6,57.2 -25.9,92.4 l -84.4,-31.7 c -33.8,-12.7 -71.6,4.4 -84.3,38.3 v 0 c -12.8,33.9 4.4,71.7 38.3,84.4 l 102.2,38.4 c -16,128.1 0.9,254 48.8,359.5 81.5,179.3 234.8,306.9 411.2,373.1 102.8,38.6 187.4,50 255.8,50.7 47.6,0.5 87,-36.7 89.3,-84.2 v -1.5 c 2.4,-49.3 -36.1,-90.5 -85.4,-92.5 -56,-2.2 -122.2,-13.4 -198.9,-42.2 -112.5,-42.2 -211.5,-120.2 -268.4,-240.7 -31.9,-70.4 -46.9,-154.7 -30,-238.8 l 575.2,215.9 c 33.9,12.7 71.7,-4.4 84.4,-38.3 v 0 c 12.7,-33.9 -4.4,-71.7 -38.3,-84.4 l -600.8,-225.4 c 8,-29.1 16,-58.2 22.7,-76.1 8.7,-23 17.3,-46 31.4,-75.7 l 602,225.9 c 34.6,13 73.2,-4.5 86.1,-39.1 v 0 c 13,-34.6 -4.5,-73.2 -39.1,-86.1 l -576.4,-216.4 c 45.7,-67.4 105.4,-117.9 168.7,-146.6 125.6,-55 241.3,-52.4 369.1,-4.4 78,29.2 142.8,69.4 192,108.2 40.5,32 99.8,21.6 126.9,-22.3 v 0" /><path
         id="path178"
         style="fill:#50bfa5;fill-opacity:1;fill-rule:nonzero;stroke:none"
         d="m 11895.6,14436.5 -261.2,-26.5 -89,415.5 -386.6,8.3 -117.5,300 -151.9,-59.4 157.1,-401.3 366.4,-7.9 92.7,-432.3 392.9,39.9 -2.9,163.7" /><g
         transform="scale(1.00263)"
         id="g180"><path
           id="path182"
           style="fill:#fae0b2;fill-opacity:1;fill-rule:nonzero;stroke:none"
           d="m 14874.6,14708.6 278.7,-91.9 c 0,0 441.9,143.1 485.3,233.2 43.5,90 55.8,308.5 118.7,314.5 62.9,6 184.3,-14.5 213.3,-164 21,-108.6 -138,-422.3 -113.1,-455.7 15.5,-20.9 174.1,-78.3 290.7,-118.4 76.7,-26.3 132,-93.8 143.8,-175.2 v -0.2 c 8,-55 -23.2,-108.6 -74.7,-128.5 l -80.2,-31 25.7,-82.7 c 19,-61.7 -14.8,-127.9 -75.6,-148.3 l -62.1,-20.8 19.9,-50.4 c 25.5,-65 -10.5,-138.6 -77.2,-158 l -54.2,-15.8 2.2,-14.5 c 9.4,-60.2 -28.4,-118.2 -86.9,-133.5 l -53.8,-14.2 -742.2,245 c -69.5,22.9 -133.5,60.1 -188.1,109.2 l -246.4,130.1 c -26.6,14 -38.7,45.6 -28.8,74.4 l 228.5,658 c 11.1,31.8 45.1,49 76.5,38.7" /></g><path
         id="path184"
         style="fill:#f7cc7f;fill-opacity:1;fill-rule:nonzero;stroke:none"
         d="m 10493.8,11791.7 59.2,293.2 275,117.5 c 31.4,13.4 33.8,56.9 4.1,73.7 l -260.6,146.8 -26.7,297.9 c -3.1,34 -43.7,49.7 -68.8,26.6 l -220.2,-202.4 -291.62,66.6 c -33.21,7.6 -60.71,-26.2 -46.53,-57.2 l 124.45,-271.9 -153.45,-256.8 c -17.48,-29.2 6.16,-65.8 40,-61.9 l 297.15,34.3 196.7,-225.3 c 22.5,-25.6 64.6,-14.5 71.3,18.9" /><path
         id="path186"
         style="fill:#f7a491;fill-opacity:1;fill-rule:nonzero;stroke:none"
         d="m 6904.17,4589.7 c 0,0 -366.64,-264.3 -424.38,-343.2 -83.16,-113.6 621.15,-326 544.29,-193 -17.68,30.6 -68.38,133.5 -70.59,143.6 -11.8,54.2 137.58,200 137.58,200 l -186.9,192.6" /><path
         id="path188"
         style="fill:#f7cc7f;fill-opacity:1;fill-rule:nonzero;stroke:none"
         d="M 7214.58,3831.2 6965.62,4183 c 0,0 -155.44,36.2 -314.99,215.7 0,0 -143.39,-54.8 -231.61,-173.4 0,0 166.7,-179.6 423.46,-381.8 0,0 152.21,-134.8 362.61,-205.9 210.41,-71.1 9.49,193.6 9.49,193.6" /><path
         id="path190"
         style="fill:#f8a492;fill-opacity:1;fill-rule:nonzero;stroke:none"
         d="m 3840.21,9407.2 c 0,0 45.06,-39.9 61.01,-52 18.7,-14.2 77.84,-52.6 77.84,-52.6 0,0 213.99,-121.7 221.24,-105.7 7.27,16 6.95,62.2 -3.63,74.3 -10.58,12.2 -41.4,24.7 -51.98,36.9 -10.57,12.1 -14.19,36.6 -0.58,50.2 13.61,13.6 86.74,-26.4 86.74,-26.4 0,0 59.24,-32.9 84,-72.6 85.81,-137.7 59.8,-145.7 71.27,-163.1 13.58,-20.6 313.71,-156.8 313.71,-156.8 0,0 897.35,-373.1 945.71,-393.4 h 0.61 c 6.55,-41.6 -15.69,-79.8 -27.11,-116.6 -21.45,-128.2 -59.61,-136.7 -88.71,-260.3 -137.64,69.6 -1090.38,594.5 -1187.23,649.2 0,0 -145.08,24.7 -235.76,43.3 -90.68,18.5 -169.7,75.9 -194.55,85 -3.67,1.3 -84.81,36.3 -174.01,105.4 -76.88,59.6 22.38,37.2 22.38,37.2 0,0 161.58,-85.7 165.76,-72.1 3.24,10.5 -87.61,52.2 -173.34,117.2 -22.04,16.8 -43.73,33.4 -63.54,48.8 -52.01,40.4 -42.92,82.8 18.01,48.9 21.52,-12 56.79,-32.7 79.95,-50.9 25.02,-19.8 54.16,-30.1 77.63,-43.5 46.62,-26.7 80.27,-46.8 80.28,-44.3 0,3.2 12.8,4.3 -10.07,22.7 -27.49,22.2 -95.98,56.9 -133.96,92.6 -21.52,20.2 -69.03,59.8 -69.03,59.8 0,0 -60.96,72.9 -57.98,77.7 16.13,26.2 71.52,-12.4 97.28,-43.5 26.39,-11.8 75.22,-54.9 75.22,-54.9 0,0 117.72,-65.7 126.8,-49.6 3.86,6.8 -63.76,55.6 -122.84,113.4 -54.85,53.8 -101.71,116.7 -93,128.7 14.77,20.4 81.88,-33 81.88,-33" /><path
         id="path192"
         style="fill:#b75742;fill-opacity:1;fill-rule:nonzero;stroke:none"
         d="m 6343.39,7306.4 58.04,-286.8 1457.89,-1326.1 -1043.57,-1056.1 281.8,-287.9 c 0,0 1541.25,1131.7 1596.81,1280 85.52,228.4 -1104.83,1740.9 -1104.83,1740.9 l -1246.14,-64" /><path
         id="path194"
         style="fill:#f7a491;fill-opacity:1;fill-rule:nonzero;stroke:none"
         d="m 5332.47,3838 c 0,0 -294.12,-320.5 -351.85,-399.4 -83.17,-113.6 537.91,-281.3 461.05,-148.3 -17.68,30.6 -68.38,133.6 -70.59,143.7 -11.8,54.1 137.59,200 137.59,200 l -176.2,204" /><path
         id="path196"
         style="fill:#f7cc7f;fill-opacity:1;fill-rule:nonzero;stroke:none"
         d="m 5769.08,3300.5 -404.8,148 c 0,0 -152.99,-69.6 -386.28,-12.6 0,0 -82.3,-115.6 -87.45,-263.3 0,0 767.26,-97.9 980.78,-36.8 213.52,61.1 -102.25,164.7 -102.25,164.7" /><path
         id="path198"
         style="fill:#f47458;fill-opacity:1;fill-rule:nonzero;stroke:none"
         d="M 6393.3,7173.5 6458.77,5364 5165.18,3777.9 5515.14,3586.3 c 0,0 1430.98,1228.2 1588.11,1570.3 97.46,212.2 425.37,2130.3 425.37,2130.3 L 6393.3,7173.5" /><path
         id="path200"
         style="fill:#fae0b2;fill-opacity:1;fill-rule:nonzero;stroke:none"
         d="m 7569.27,7322 c -118.58,267.6 -104.86,2186.1 -566.33,2635.5 -162.36,-27.5 -278.16,-42.8 -305.26,-50 -24.08,-197.6 -50.57,-922.8 -66.84,-1587.5 -10.84,-442.7 0.35,-907.1 -54.19,-1151.9 -33.81,-151.7 1100.95,-90.6 992.62,153.9" /><path
         id="path202"
         style="fill:#466eb6;fill-opacity:1;fill-rule:nonzero;stroke:none"
         d="M 6320.14,9808.5 C 6190.6,9779 6095.21,9758.3 5925.42,9507.4 5762.86,9267.3 5401.93,8697.5 5401.93,8697.5 l -950.67,422.3 -44.44,-481.5 c 0,0 1075.48,-559.1 1227.22,-508.7 151.74,50.4 578.36,674 609.91,716.1 7.41,9.9 -35.81,-666.1 -35.81,-774.1 0,-107.9 -206.18,-1048.2 -206.18,-1048.2 0,0 523.16,-128.8 625.27,105.1 313.05,717.1 72.75,2779.7 72.75,2779.7 0,0 -286.63,-78.4 -379.84,-99.7" /><path
         id="path204"
         style="fill:#f7a491;fill-opacity:1;fill-rule:nonzero;stroke:none"
         d="m 8272.85,11861.8 c -39.95,33.4 -57.38,113.6 -63.97,165.2 l -17.78,68.3 c 16.21,6.7 333.25,51.8 428.87,54.3 9.31,-30.3 13.94,-55.9 10.97,-72.2 -14.23,-78.1 -114.01,-585.5 -114.01,-585.5 l -273.04,-5.4 c 0,0 59.39,300.8 28.96,375.3" /><path
         id="path206"
         style="fill:#466eb6;fill-opacity:1;fill-rule:nonzero;stroke:none"
         d="m 7109.92,9845.2 c 0,0 187.34,-533.1 341.5,-456.3 154.16,76.8 1020.26,959.8 1028.82,1002.4 8.57,42.7 68.52,1126.5 68.52,1126.5 l -342.58,68.2 -196.99,-887.5 c 0,0 -633.77,-605.8 -762.24,-665.6 -128.46,-59.7 -137.03,-187.7 -137.03,-187.7" /><path
         id="path208"
         style="fill:#466eb6;fill-opacity:1;fill-rule:nonzero;stroke:none"
         d="m 7615.63,7193.7 c 103.71,0 141.97,14.4 211.05,35.1 0,0 -197.47,1113.1 -312.3,2216.9 -45.35,436 -87.45,614.8 -267.34,583.2 -52.02,-9.1 -192.92,-62.8 -244.08,-71.4 452.04,-1279 453.61,-2263.4 517.6,-2548.9 32.1,-143.3 60.08,-215.8 95.07,-214.9" /><path
         id="path210"
         style="fill:#f7a491;fill-opacity:1;fill-rule:nonzero;stroke:none"
         d="m 6955.26,10150.7 47.37,-193.2 c 0,0 10.8,-168.3 -67.29,-183.4 -94.17,-18.2 -234.11,122.7 -234.11,122.7 l -81.05,545 335.08,-291.1" /><path
         id="path212"
         style="fill:#f7a491;fill-opacity:1;fill-rule:nonzero;stroke:none"
         d="m 6955.26,10150.7 47.37,-193.2 c 0,0 10.8,-168.3 -67.29,-183.4 -94.17,-18.2 -234.11,122.7 -234.11,122.7 l -81.05,545 335.08,-291.1" /><path
         id="path214"
         style="fill:#f47458;fill-opacity:1;fill-rule:nonzero;stroke:none"
         d="m 6620.98,10439.3 334.28,-288.6 35.39,-144.3 c -127.78,30.7 -309.95,171.3 -369.67,432.9" /><path
         id="path216"
         style="fill:#f7a491;fill-opacity:1;fill-rule:nonzero;stroke:none"
         d="m 6956.39,10940.6 c 80.83,0.3 153.6,-55.8 182.02,-136.5 23.57,-66.8 53.74,-166 72.94,-279.7 35.38,-209.6 -83.97,-401.5 -187.81,-416.8 -103.83,-15.3 -351.19,53.5 -405.89,350.4 -23.45,127.2 -54.3,294.1 50.36,381.8 81.42,68.2 195.46,100.6 288.38,100.8" /><path
         id="path218"
         style="fill:#184655;fill-opacity:1;fill-rule:nonzero;stroke:none"
         d="m 6651.39,10231.8 c 0,0 -366.05,326.2 -382.03,581 -15.98,254.9 219.39,391.4 420.65,398.5 90.92,3.2 152.43,-0.9 246.31,-12.7 201.64,-25.4 332.32,-114.8 286.32,-280 -61.75,-221.8 -480.25,-34.7 -565.81,-103.5 -70.61,-56.9 43.86,-193.5 -24.74,-245.6 -64.47,-49 -31.63,-32.4 -10.28,-125.6 21.34,-93.2 29.58,-212.1 29.58,-212.1" /><path
         id="path220"
         style="fill:#f7a491;fill-opacity:1;fill-rule:nonzero;stroke:none"
         d="m 6510.25,10527.3 c 9.08,-61.1 46.41,-106.2 83.39,-100.7 36.98,5.4 59.61,59.4 50.53,120.4 -9.07,61.1 -46.4,106.2 -83.38,100.7 -36.99,-5.4 -59.61,-59.4 -50.54,-120.4" /><path
         id="path222"
         style="fill:#f47458;fill-opacity:1;fill-rule:nonzero;stroke:none"
         d="m 8291.42,12096.1 c 0,0 59.27,-33.6 118.22,-111.7 0,0 154.37,98.9 148.97,130.3 -7.17,41.6 -164.97,-35.6 -164.97,-35.6 l -102.22,17" /><g
         transform="scale(1.05589)"
         id="g224"><path
           id="path226"
           style="fill:#96d9c9;fill-opacity:1;fill-rule:nonzero;stroke:none"
           d="m 4082.78,13396.9 3947.53,-2032.6 c 212.42,-109.4 480.97,-10.9 599.83,219.9 l 1008.06,1957.9 c 118.85,230.8 42.99,506.6 -169.4,616 l -3947.53,2032.5 c -212.41,109.4 -480.97,10.9 -599.83,-219.9 L 3913.36,14012.9 c -118.86,-230.9 -43,-506.7 169.42,-616" /></g><path
         id="path228"
         style="fill:#355389;fill-opacity:1;fill-rule:nonzero;stroke:none"
         d="m 9136.43,12278.2 -4980.42,2564.3 322.91,627.2 4980.42,-2564.4 -322.91,-627.1" /><g
         transform="scale(1.0307)"
         id="g230"><path
           id="path232"
           style="fill:#f7cc7f;fill-opacity:1;fill-rule:nonzero;stroke:none"
           d="m 6336.72,15159.9 -1064.87,549.4 304.79,590.7 1064.87,-549.5 -304.79,-590.6" /></g><path
         id="path234"
         style="fill:#f7a491;fill-opacity:1;fill-rule:nonzero;stroke:none"
         d="m 8290.25,12099.4 c -7.25,19.6 -21.53,47 -14.51,57.7 44.45,67.9 -3.46,141.7 -35.8,84 -18.77,-33.6 -51.62,-107.4 -48.85,-145.8 2.02,-27.8 30.23,-133.8 30.23,-133.8 0,0 110.05,26.8 68.93,137.9" /><g
         transform="scale(1.28313)"
         id="g236"><path
           id="path238"
           style="fill:#f7a491;fill-opacity:1;fill-rule:nonzero;stroke:none"
           d="m 16246.7,3863.92 c 0,0 -20,-249.08 -3.7,-329.98 8.6,-43.33 57,-132.57 34.8,-173.33 -22.1,-40.76 -47.6,-50.97 -47.6,-50.97 l -575.1,-9.11 c -31.3,-0.47 -10.7,19.32 14.6,37.56 41.3,29.93 74.7,49.72 206.8,112.54 8.7,4.13 40,23.69 51.3,30.47 28.7,17.22 57.5,44.35 82.3,71.46 41.3,45.29 44.9,264.6 44.9,264.6 l 191.7,46.76" /></g><g
         transform="scale(1.2902)"
         id="g240"><path
           id="path242"
           style="fill:#355389;fill-opacity:1;fill-rule:nonzero;stroke:none"
           d="m 15710.6,7134.62 c 0,0 -245.9,121.22 -198.6,-142.38 47.3,-263.68 407.5,-3228.18 407.5,-3228.18 l 337.4,-18.68 c 0,0 43.1,988.37 33.6,1130.29 -9.4,141.91 -65.3,361.49 -65.3,361.49 l -28.6,876.84 -318.3,1082.62 -167.7,-62" /></g><g
         transform="scale(1.28258)"
         id="g244"><path
           id="path246"
           style="fill:#3c8f7c;fill-opacity:1;fill-rule:nonzero;stroke:none"
           d="m 15934.6,3482.66 c 152.2,-38.44 264.7,-12.32 327.7,12.63 16.2,-45.22 37.7,-101.98 26.3,-134.65 -13.9,-40.07 -32.2,-57.93 -49.7,-58.32 -139,-3.59 -510.9,0.24 -616.9,-1.09 -14.8,-0.23 -22.9,16.76 -13.4,27.99 26.3,30.88 314.7,146.58 326,153.44" /></g><g
         transform="scale(1.22783)"
         id="g248"><path
           id="path250"
           style="fill:#f7a491;fill-opacity:1;fill-rule:nonzero;stroke:none"
           d="m 16300,9369.16 c 0,0 -218.4,420.3 -252.3,574.6 -33.9,154.34 -151.3,931.34 -141.4,981.34 9.9,50.1 195.5,170.5 172.6,213 -22.9,42.5 -199.7,42.6 -240.2,39 -40.5,-3.7 -121.8,-27.3 -156.6,-56 -34.8,-28.7 39.2,-959.9 61.2,-1160.35 22.1,-200.48 293.6,-817.86 293.6,-817.86 l 263.1,226.27" /></g><g
         transform="scale(1.42208)"
         id="g252"><path
           id="path254"
           style="fill:#f7a491;fill-opacity:1;fill-rule:nonzero;stroke:none"
           d="m 15542.9,5261.17 c 0,0 155.6,163.14 190.3,229.03 18.4,35.3 35.3,125.31 74,141.27 38.7,15.96 62.3,8.72 62.3,8.72 l 408.2,-320.59 c 22.3,-17.51 -3.5,-19.62 -31.6,-18.07 -46,2.6 -80.6,7.67 -208.9,38.75 -8.4,2.04 -41.5,6.11 -53.2,7.8 -29.9,4.22 -65.5,1.62 -98.3,-3.3 -54.7,-8.23 -181.9,-159.84 -181.9,-159.84 l -160.9,76.23" /></g><g
         transform="scale(1.42352)"
         id="g256"><path
           id="path258"
           style="fill:#3c8f7c;fill-opacity:1;fill-rule:nonzero;stroke:none"
           d="m 15967.8,5342.69 c -84.7,113.24 -178.2,158.83 -236.5,177.1 14.4,40.88 30,94.27 56.6,110.71 32.5,20.09 54.9,15.94 67.5,6.25 99.3,-76.36 359.2,-285.35 434.1,-344.57 10.5,-8.29 6.6,-24.8 -6.4,-27.26 -36,-6.67 -303.5,76.08 -315.3,77.77" /></g><g
         transform="scale(1.40599)"
         id="g260"><path
           id="path262"
           style="fill:#184655;fill-opacity:1;fill-rule:nonzero;stroke:none"
           d="m 15724.5,8293.73 c -97.9,205.42 -314.9,318.51 -525.1,263.78 -75.4,102.04 -192,173.44 -313.4,190.64 -239.4,33.93 -548.3,-82.2 -516.7,-332.1 -75.6,-174.8 -57.2,-415.64 93.9,-533.71 -27.7,-229.75 202.6,-433.56 475.3,-406.07 109.7,-151.41 300.4,-240.23 478.8,-205.65 42.8,8.31 107.8,23.92 119,21.97 -14,1.56 310.9,-211.23 535,167.7 228.7,386.68 3.5,818.94 -346.8,833.44" /></g><g
         transform="scale(1.3834)"
         id="g264"><path
           id="path266"
           style="fill:#466eb6;fill-opacity:1;fill-rule:nonzero;stroke:none"
           d="m 14559.8,6564.82 c 0,0 514.2,228.64 522.3,202.61 64.5,-207.67 265.1,-140.66 384.2,-506.43 49.8,-153.17 101.1,-1172.03 101.1,-1172.03 0,0 202.7,168.28 492.5,462.33 22.2,22.56 240.1,-184.61 240.1,-184.61 -575.2,-777.14 -823.3,-817.7 -919.3,-774.18 -200.3,90.79 -623.1,1361.35 -622.4,1361.21 -50.8,98.88 -198.5,611.1 -198.5,611.1" /></g><g
         transform="scale(1.49468)"
         id="g268"><path
           id="path270"
           style="fill:#f7a491;fill-opacity:1;fill-rule:nonzero;stroke:none"
           d="m 14265,7404.55 c 0,0 687.9,0.87 835.3,9.38 133.2,7.68 662.1,-5.78 682.7,-3.38 20.7,2.39 157.3,233.86 180.1,209.01 22.6,-24.85 -76.1,-114.78 -45.5,-138.11 30.5,-23.32 358.6,28.93 354.3,4.67 -8.2,-45.4 -199.6,-39.62 -199.4,-61.53 0.2,-21.91 200.4,12.29 213.9,-24.09 13.6,-36.38 -192.5,-14.83 -200.8,-31.07 -8.2,-16.23 191.3,-45.96 170.8,-79.8 -11.1,-18.38 -176.7,30.69 -175.8,5.64 0.8,-25.04 121.6,-82.03 106.8,-101.99 -14.9,-19.95 -94.9,61.24 -165,62.25 -70,1 -120.3,37.58 -232.1,6.88 -55.3,-15.16 -477.1,-66.72 -833.6,-97.18 -365.4,-31.22 -665,-41.15 -665,-41.15 l -26.7,280.47" /></g><g
         transform="scale(1.29538)"
         id="g272"><path
           id="path274"
           style="fill:#f7cc7f;fill-opacity:1;fill-rule:nonzero;stroke:none"
           d="m 15282.5,7982.54 c -10.5,127.45 14.6,225.61 20.3,267.9 -38.5,132.4 -120.5,414.84 -150,470.34 0,0 138.2,265.61 279.7,263.79 0,0 144.5,-325.7 256.2,-383.97 1.6,0.43 39.5,-16.89 56.2,-16.76 107.8,0.76 484.8,12.19 555.1,13.46 l -39.6,-534.75 c -273.1,-535.42 -199.2,-816.34 -95.3,-920.25 49,-48.86 -681.5,-247.26 -715.1,-178.01 -39.7,81.6 -146.2,760.59 -167.5,1018.25" /></g><g
         transform="scale(1.33126)"
         id="g276"><path
           id="path278"
           style="fill:#f7cc7f;fill-opacity:1;fill-rule:nonzero;stroke:none"
           d="m 15674.4,8345.93 c 67.6,32.31 557.2,16.13 557.2,16.13 0,0 68.4,-340.92 13.1,-422.85 0,0 -437.7,-65.14 -425.3,-101.05 l -145,507.77" /></g><g
         transform="scale(1.2704)"
         id="g280"><path
           id="path282"
           style="fill:#f7a491;fill-opacity:1;fill-rule:nonzero;stroke:none"
           d="m 16290.8,8975.31 c 0,0 -9.1,-194.83 0.1,-275.98 9.1,-81.15 -83.2,-271.42 -255.2,-274.72 -172,-3.3 -25.3,182.55 -10.2,262.41 15.1,79.86 33.1,392.46 33.1,392.46 l 232.2,-104.17" /></g><g
         transform="scale(1.26968)"
         id="g284"><path
           id="path286"
           style="fill:#f47458;fill-opacity:1;fill-rule:nonzero;stroke:none"
           d="m 16067.7,9084.61 c 0,0 -4.2,-72.6 -10.2,-156.78 54.2,-64.75 137.7,-97.82 239,-58.41 1.1,60.37 3.5,110.96 3.5,110.96 l -232.3,104.23" /></g><g
         transform="scale(1.28869)"
         id="g288"><path
           id="path290"
           style="fill:#f7a491;fill-opacity:1;fill-rule:nonzero;stroke:none"
           d="m 16073.6,9420.23 c 0,0 96,-28.7 149.8,-124.74 53.9,-96.05 76.6,-369.42 -130.4,-482.03 -207.1,-112.62 -349,76.64 -339.5,251.04 9.4,174.39 62.8,404.32 320.1,355.73" /></g><g
         transform="scale(1.25051)"
         id="g292"><path
           id="path294"
           style="fill:#f7a491;fill-opacity:1;fill-rule:nonzero;stroke:none"
           d="m 16191.6,9400.69 c 14.4,-44.53 47.1,-73.79 73.1,-65.37 25.9,8.41 35.3,51.34 20.8,95.85 -14.4,44.53 -47.2,73.8 -73.1,65.39 -26,-8.43 -35.3,-51.34 -20.8,-95.87" /></g><g
         transform="scale(1.2945)"
         id="g296"><path
           id="path298"
           style="fill:#184655;fill-opacity:1;fill-rule:nonzero;stroke:none"
           d="m 15972.7,9385.63 c 0,0 104.6,-286.14 211.7,-318.43 106.9,-32.29 95.7,-171.87 95.7,-171.87 0,0 19.9,322.76 -77,403.77 -96.8,81.02 -230.4,86.53 -230.4,86.53" /></g><g
         transform="scale(1.29153)"
         id="g300"><path
           id="path302"
           style="fill:#f7a491;fill-opacity:1;fill-rule:nonzero;stroke:none"
           d="m 16174.3,9033.24 c -17.4,-44.2 -7.3,-89.6 22.6,-101.4 29.8,-11.81 68.2,14.46 85.6,58.66 17.5,44.2 7.4,89.6 -22.5,101.4 -29.8,11.81 -68.2,-14.46 -85.7,-58.66" /></g><g
         transform="scale(1.20805)"
         id="g304"><path
           id="path306"
           style="fill:#f47458;fill-opacity:1;fill-rule:nonzero;stroke:none"
           d="m 15906.8,11230.3 c 0,0 249.4,-10.9 278.7,-10.9 29.2,0 114.5,88.1 114.5,88.1 l -393.2,-77.2" /></g><g
         transform="scale(1.26217)"
         id="g308"><path
           id="path310"
           style="fill:#fae0b2;fill-opacity:1;fill-rule:nonzero;stroke:none"
           d="m 16006,12197.4 c 294,-418.9 192.7,-996.8 -226.1,-1290.8 -418.9,-294 -996.8,-192.7 -1290.8,226.2 -294.1,418.9 -192.8,996.8 226.1,1290.8 418.9,294 996.8,192.7 1290.8,-226.2" /></g><g
         transform="scale(1.24906)"
         id="g312"><path
           id="path314"
           style="fill:#f7cc7f;fill-opacity:1;fill-rule:nonzero;stroke:none"
           d="m 16050.7,12238.9 c 249.3,-355.2 163.5,-845.2 -191.8,-1094.5 -355.2,-249.3 -845.2,-163.4 -1094.5,191.8 -249.3,355.2 -163.4,845.2 191.8,1094.5 355.2,249.3 845.3,163.4 1094.5,-191.8" /></g><g
         transform="scale(1.21034)"
         id="g316"><path
           id="path318"
           style="fill:#ffffff;fill-opacity:1;fill-rule:nonzero;stroke:none"
           d="m 15994,11594.2 -35.4,130.7 c -59.7,-13.4 -120.6,-17.9 -172.6,-15.2 -43.4,2.2 -77.6,37.8 -78.1,81.2 v 5.2 c -0.7,47.9 39.4,86.5 87.2,83.3 48.7,-3.1 102.3,0.1 156.2,14.7 78.4,21.2 123.8,66 108.9,121 -14.1,52.3 -67.1,73.4 -178.1,80.2 -160.6,9.7 -279.6,51.4 -315.7,184.8 -32.7,121 26.9,239 166.2,307.7 l -35.3,130.7 134.8,36.4 32.7,-121 c 50.7,11.3 93.6,15.7 130.5,15.8 45,0.2 81.6,-36.3 82.2,-81.3 v 0 c 0.7,-46.6 -37.4,-84.5 -84,-83.5 -35,0.8 -76.9,-2.4 -125.5,-15.5 -89.4,-24.2 -107.8,-70.5 -97.4,-109 12.2,-45.4 68.2,-61.3 197,-73.7 179.3,-13.5 265.8,-71.3 299.3,-195.1 33.1,-122.4 -25.3,-250.4 -176.1,-320.7 l 38,-140.3 -134.8,-36.4" /></g><g
         transform="scale(1.21169)"
         id="g320"><path
           id="path322"
           style="fill:#f7a491;fill-opacity:1;fill-rule:nonzero;stroke:none"
           d="m 16136.9,11185.8 102.6,92.2 c 0,0 -48.4,57.9 -28.3,69 32.8,18.1 88.8,-51.8 83.8,-68.8 -5,-17 -65.2,-71.8 -65.2,-71.8 l -92.9,-20.6" /></g></g></g></svg>