<svg width="395" height="347" viewBox="0 0 395 347" fill="none" xmlns="http://www.w3.org/2000/svg">
<path d="M78.7283 329.932C97.3166 316.972 101.54 292.915 100.8 271.281C100.673 267.678 101.07 263.868 99.3559 260.698C97.6414 257.528 93.617 255.366 90.3324 256.888C87.6254 258.149 86.4794 261.274 84.9725 263.85C82.9696 267.298 80.0285 270.109 76.4905 271.956C74.1895 273.145 71.3471 273.875 69.0732 272.623C65.9511 270.911 65.5811 266.606 65.6082 263.013C65.6443 256.324 65.6834 249.632 65.7255 242.937C65.7255 239.334 65.7255 235.686 64.6427 232.273C63.5599 228.859 61.0333 225.707 57.6315 224.743C54.2296 223.78 49.9796 225.761 49.2577 229.247C48.9509 230.706 49.2577 232.228 49.1494 233.75C49.0411 235.272 48.3553 236.893 46.9387 237.353C45.522 237.812 44.0602 236.758 42.9864 235.704C39.2778 232.102 36.7602 227.409 34.4051 222.762C32.05 218.114 29.767 213.368 26.3923 209.414C23.0175 205.46 18.3614 202.326 13.218 202.037C8.07467 201.749 2.57036 204.92 1.27098 209.963C-0.0283954 215.007 2.92227 220.159 6.14365 224.257C10.9494 230.316 16.6086 235.65 22.9453 240.091C24.0732 240.901 25.3095 241.766 25.7426 243.099C26.5186 245.486 24.2447 247.863 21.8805 248.656C19.1735 249.557 16.295 249.268 13.4887 249.557C10.6824 249.845 7.60545 251.205 6.5497 253.808C5.06986 257.509 8.14685 261.319 11.2148 263.814C17.2771 268.854 24.1633 272.815 31.5717 275.523C34.2246 276.496 36.9858 277.324 39.1424 279.198C41.299 281.071 37.9603 287.619 36.67 290.15C35.3796 292.681 36.67 290.15 33.8998 289.636C31.1296 289.123 28.6481 287.619 26.0043 286.628C21.0684 284.764 14.6798 285.106 11.5126 289.33C9.43721 292.131 9.24771 296.04 10.3035 299.381C11.3592 302.723 13.4887 305.596 15.7175 308.253C23.6401 317.53 33.7644 324.996 45.2513 328.968C56.7381 332.94 67.3407 334.012 78.7373 329.869" fill="#EBEBEB"/>
<path d="M79.0171 345.964C78.0086 335.937 76.0415 326.03 73.1428 316.377C69.5435 304.596 65.2715 293.031 60.3476 281.737L56.5216 272.821C55.2584 269.903 54.0131 267.003 52.6145 264.246C49.9298 258.961 46.9535 253.828 43.6993 248.872C40.6133 244.117 37.5183 239.712 34.5947 235.614C31.6711 231.516 28.8467 227.769 26.1397 224.446C21.883 219.194 17.2152 214.288 12.1804 209.774C10.3757 208.171 8.9861 206.973 8.02059 206.172L6.9107 205.271C6.78944 205.158 6.65633 205.058 6.51367 204.974C6.61782 205.1 6.73586 205.215 6.86559 205.316L7.93035 206.271C8.8327 207.099 10.2584 208.324 12.009 209.954C16.9503 214.541 21.5438 219.487 25.7517 224.752C28.4587 228.085 31.1657 231.849 34.1164 235.948C37.0671 240.046 40.099 244.459 43.1399 249.214C46.3769 254.153 49.341 259.264 52.0189 264.526C53.4085 267.228 54.6448 270.137 55.899 273.073L59.7159 281.972C64.6467 293.248 68.9396 304.792 72.5744 316.548C75.492 326.159 77.498 336.023 78.5659 346.009" fill="#E0E0E0"/>
<path d="M52.4251 264.228C52.6002 263.733 52.7183 263.219 52.777 262.697C52.9665 261.707 53.1921 260.265 53.4447 258.473C53.9501 254.87 54.4824 249.935 55.0509 244.468C55.6194 239.001 56.224 234.092 56.7834 230.489C57.0631 228.688 57.2978 227.274 57.4782 226.274C57.6029 225.764 57.6695 225.241 57.6767 224.716C57.4751 225.201 57.3239 225.705 57.2256 226.22C56.9729 227.202 56.6571 228.634 56.3232 230.408C55.6465 233.957 54.9607 238.911 54.4012 244.387C53.8418 249.863 53.3545 254.681 52.9755 258.41C52.7951 260.094 52.6417 261.508 52.5244 262.652C52.4323 263.172 52.399 263.701 52.4251 264.228Z" fill="#E0E0E0"/>
<path d="M6.17969 255.6C6.77302 255.73 7.37715 255.806 7.98438 255.825C9.17547 255.924 10.8899 256.068 13.0104 256.321C17.2424 256.771 23.0716 257.608 29.4602 258.806C35.8488 260.004 41.5877 261.364 45.7024 262.463C47.7688 262.994 49.4291 263.463 50.5751 263.787C51.1613 263.991 51.7655 264.139 52.3798 264.228C51.8258 263.943 51.2456 263.71 50.6473 263.535C49.5193 263.139 47.8771 262.634 45.8287 262.004C41.7231 260.788 35.9842 259.374 29.5865 258.149C23.1889 256.924 17.3146 256.185 13.0556 255.843C10.926 255.663 9.19352 255.591 8.00243 255.564C7.39498 255.522 6.78499 255.534 6.17969 255.6Z" fill="#E0E0E0"/>
<path d="M72.5742 315.521C72.5742 315.521 72.7096 315.341 72.8991 314.963L73.6841 313.288C74.3699 311.838 75.2993 309.685 76.3911 307.064C78.6199 301.777 81.4713 294.374 84.5122 286.169C87.5531 277.964 90.3324 270.533 92.4439 265.21L94.9704 258.905C95.2411 258.221 95.4667 257.654 95.6472 257.185C95.7404 256.991 95.8071 256.785 95.8457 256.573C95.717 256.745 95.6109 256.932 95.5299 257.131L94.7358 258.797C94.059 260.256 93.1296 262.4 92.0288 265.03C89.8 270.317 86.9486 277.72 83.9077 285.934C80.8668 294.149 78.0966 301.561 75.9761 306.884C74.9384 309.478 74.0902 311.603 73.4495 313.189C73.1788 313.873 72.9532 314.441 72.7727 314.909C72.6849 315.105 72.6183 315.311 72.5742 315.521Z" fill="#E0E0E0"/>
<path d="M11.1157 295.752C11.3069 295.865 11.5136 295.95 11.7293 296.004L13.534 296.607L20.1211 298.733C25.6706 300.534 33.3224 303.101 41.7774 305.938C50.2324 308.775 57.8933 311.297 63.4969 312.981C66.2941 313.828 68.559 314.486 70.1381 314.909L71.9428 315.386C72.1492 315.457 72.3652 315.497 72.5835 315.503C72.3939 315.393 72.1906 315.308 71.9789 315.251L70.1742 314.657L63.5961 312.531C58.0377 310.73 50.3948 308.163 41.9398 305.326C33.4849 302.489 25.8239 299.967 20.2384 298.283C17.4412 297.436 15.1673 296.778 13.5882 296.355L11.7835 295.878C11.5662 295.812 11.3422 295.769 11.1157 295.752Z" fill="#E0E0E0"/>
<path d="M306.462 14.6719L256.797 135.73L345.958 171.478L394.856 51.2029L306.462 14.6719Z" fill="#E6E6E6"/>
<path d="M306.462 14.6719L394.892 51.1038H394.991L394.946 51.2029C381.213 84.9959 364.321 126.58 346.066 171.487L346.021 171.604H345.895L345.245 171.343L256.743 135.848H256.635L256.68 135.739L306.462 14.6719L256.905 135.775L256.842 135.622L345.353 171.091L346.003 171.352L345.832 171.424C364.104 126.526 381.023 84.9599 394.766 51.1579L394.82 51.293L306.462 14.6719Z" fill="#E6E6E6"/>
<path d="M299.956 3.11633L250.291 124.184L339.452 159.922L388.359 39.6474L299.956 3.11633Z" fill="#FAFAFA"/>
<path d="M299.965 3.11621L388.395 39.5482H388.494V39.6472L339.569 159.967L339.524 160.093L339.407 160.039L338.757 159.778L250.246 124.292L250.138 124.247L250.183 124.13L299.965 3.11621L250.399 124.211L250.336 124.058L338.847 159.535L339.497 159.787L339.335 159.859C357.598 114.961 374.526 73.3952 388.26 39.5932L388.314 39.7373L299.965 3.11621Z" fill="#EBEBEB"/>
<path d="M367.072 58.048C366.991 58.2551 351.534 52.4278 332.549 45.0333C313.563 37.6389 298.26 31.5233 298.305 31.2982C298.35 31.073 313.843 36.9183 332.829 44.3128C351.814 51.7073 367.154 57.8498 367.072 58.048Z" fill="#E0E0E0"/>
<path d="M363.662 69.1262C363.581 69.3243 348.123 63.497 329.138 56.1115C310.153 48.7261 294.849 42.6015 294.894 42.3674C294.939 42.1332 310.433 47.9965 329.418 55.391C348.403 62.7855 363.734 68.928 363.662 69.1262Z" fill="#E0E0E0"/>
<path d="M352.13 102.685C352.058 102.883 336.592 97.0558 317.606 89.6704C298.621 82.2849 283.317 76.1604 283.371 75.9262C283.425 75.692 298.901 81.5554 317.895 88.9408C336.889 96.3263 352.211 102.487 352.13 102.685Z" fill="#E0E0E0"/>
<path d="M346.689 114.024C346.616 114.223 331.15 108.395 312.165 101.01C293.179 93.6243 277.876 87.4997 277.93 87.2656C277.984 87.0314 293.459 92.8857 312.454 100.28C331.448 107.675 346.77 113.817 346.689 114.024Z" fill="#E0E0E0"/>
<path d="M342.168 125.472C342.087 125.67 326.63 119.843 307.644 112.457C288.659 105.072 273.355 98.9471 273.409 98.713C273.463 98.4788 288.939 104.342 307.933 111.728C326.927 119.113 342.249 125.274 342.168 125.472Z" fill="#E0E0E0"/>
<path d="M337.647 136.919C337.566 137.117 322.109 131.29 303.123 123.905C284.138 116.519 268.834 110.395 268.888 110.16C268.942 109.926 284.418 115.79 303.412 123.175C322.406 130.561 337.728 136.721 337.647 136.919Z" fill="#E0E0E0"/>
<path d="M310.252 46.2402C310.026 46.7086 309.106 48.8342 309.106 48.8342L346.725 64.0644L347.871 60.84L310.252 46.2402Z" fill="#EBEBEB"/>
<path d="M291.311 50.9507C291.077 51.419 289.696 54.3012 289.696 54.3012L360.215 81.105L361.947 77.4303L291.311 50.9507Z" fill="#EBEBEB"/>
<path d="M287.215 62.3531L285.609 65.6676L356.118 92.4714L357.851 88.7967L287.215 62.3531Z" fill="#EBEBEB"/>
<path d="M283.669 74.314C283.597 74.4851 282.406 77.9166 282.406 77.9166L317.696 91.4266L319.682 87.2926L283.669 74.314Z" fill="#EBEBEB"/>
<path d="M375.871 344.55C375.871 344.685 292.097 344.784 188.797 344.784C85.4961 344.784 1.69531 344.685 1.69531 344.55C1.69531 344.415 85.451 344.316 188.797 344.316C292.142 344.316 375.871 344.424 375.871 344.55Z" fill="#263238"/>
<path d="M58.9847 10.5378C57.7756 51.257 54.2293 204.316 53.2909 245.152C53.2277 247.83 54.2284 250.424 56.0745 252.368C57.9206 254.312 60.4622 255.448 63.1445 255.528L231.197 260.653C232.538 260.694 233.874 260.469 235.127 259.993C236.381 259.516 237.527 258.796 238.501 257.876C239.475 256.955 240.257 255.851 240.801 254.627C241.345 253.403 241.642 252.084 241.674 250.746L244.29 132.452L258.52 132.218C260.203 132.19 261.809 131.508 262.997 130.318C264.185 129.127 264.861 127.521 264.882 125.841L265.974 30.5416C265.991 28.8366 265.331 27.1941 264.139 25.9725C262.948 24.7508 261.32 24.0493 259.612 24.0208L246.727 23.7686L246.826 14.5548C246.855 11.8909 245.828 9.32341 243.969 7.41196C242.109 5.50051 239.569 4.40001 236.9 4.35026L69.2534 0.747591C66.5959 0.703813 64.028 1.70675 62.106 3.53919C60.1841 5.37162 59.0627 7.88603 58.9847 10.5378Z" fill="#00BCD4"/>
<path opacity="0.4" d="M58.9847 10.5378C57.7756 51.257 54.2293 204.316 53.2909 245.152C53.2277 247.83 54.2284 250.424 56.0745 252.368C57.9206 254.312 60.4622 255.448 63.1445 255.528L231.197 260.653C232.538 260.694 233.874 260.469 235.127 259.993C236.381 259.516 237.527 258.796 238.501 257.876C239.475 256.955 240.257 255.851 240.801 254.627C241.345 253.403 241.642 252.084 241.674 250.746L244.29 132.452L258.52 132.218C260.203 132.19 261.809 131.508 262.997 130.318C264.185 129.127 264.861 127.521 264.882 125.841L265.974 30.5416C265.991 28.8366 265.331 27.1941 264.139 25.9725C262.948 24.7508 261.32 24.0493 259.612 24.0208L246.727 23.7686L246.826 14.5548C246.855 11.8909 245.828 9.32341 243.969 7.41196C242.109 5.50051 239.569 4.40001 236.9 4.35026L69.2534 0.747591C66.5959 0.703813 64.028 1.70675 62.106 3.53919C60.1841 5.37162 59.0627 7.88603 58.9847 10.5378Z" fill="black"/>
<path d="M71.7533 12.285L56.9277 247.971L230.097 257.645L244.074 23.7415L71.7533 12.285Z" fill="#E0E0E0"/>
<path d="M50.936 7.1693L52.091 243.315L225.522 241.298L223.645 6.99817L50.936 7.1693Z" fill="#EBEBEB"/>
<path d="M28.2329 23.4174L60.961 257.293L232.578 232.183L199.372 0.22522L28.2329 23.4174Z" fill="#FAFAFA"/>
<path d="M28.2329 23.4173L199.345 0H199.534V0.189139C208.873 65.3524 220.369 145.539 232.776 232.138V232.372H232.542L231.297 232.552L60.9971 257.51H60.7805V257.293C41.5425 118.924 28.5217 25.2547 28.2961 23.3903L61.2407 257.239L60.9971 257.05L231.351 232.111L232.605 231.922L232.407 232.192C220.026 145.584 208.558 65.3974 199.245 0.225167L199.462 0.387287L28.2329 23.4173Z" fill="#263238"/>
<path d="M188.589 77.6103C188.652 77.9976 159.235 82.9243 122.889 88.6255C86.5423 94.3267 57.0176 98.6229 57.0176 98.2446C57.0176 97.8663 86.3709 92.9307 122.717 87.2295C159.064 81.5282 188.525 77.2321 188.589 77.6103Z" fill="#263238"/>
<path d="M201.158 140.423C201.212 140.801 171.796 145.737 135.459 151.429C99.1212 157.121 69.5874 161.435 69.5874 161.048C69.5874 160.661 98.9317 155.734 135.287 150.042C171.643 144.35 201.095 140.027 201.158 140.423Z" fill="#263238"/>
<path d="M202.99 163.03C203.044 163.417 173.628 168.344 137.29 174.036C100.953 179.728 71.4189 184.042 71.4189 183.655C71.4189 183.268 100.763 178.341 137.119 172.649C173.474 166.957 202.927 162.642 202.99 163.03Z" fill="#263238"/>
<path d="M181.911 27.9927C181.911 28.344 162.168 31.4153 137.787 34.8558C113.405 38.2964 93.5718 40.8002 93.5718 40.449C93.5718 40.0977 113.315 37.0174 137.705 33.5859C162.096 30.1543 181.893 27.6415 181.911 27.9927Z" fill="#263238"/>
<path d="M184.699 40.512C184.699 40.8633 164.956 43.9435 140.575 47.3751C116.193 50.8066 96.3599 53.3195 96.3599 52.9682C96.3599 52.617 116.094 49.5457 140.485 46.1051C164.875 42.6646 184.69 40.1607 184.699 40.512Z" fill="#263238"/>
<path d="M188.074 53.7248C188.074 54.085 168.331 57.1563 143.941 60.5968C119.55 64.0374 99.7798 66.5322 99.7257 66.181C99.6716 65.8297 119.496 62.7584 143.859 59.3629C168.223 55.9674 188.074 53.3735 188.074 53.7248Z" fill="#263238"/>
<path d="M206.356 184.988C206.419 185.366 177.003 190.302 140.656 195.994C104.31 201.686 74.7852 206 74.7852 205.613C74.7852 205.226 104.138 200.299 140.485 194.607C176.831 188.915 206.293 184.601 206.356 184.988Z" fill="#263238"/>
<path d="M209.73 206.946C209.794 207.324 180.377 212.26 144.04 217.952C107.702 223.645 78.1685 227.959 78.1143 227.571C78.0602 227.184 107.468 222.258 143.823 216.565C180.179 210.873 209.667 206.559 209.73 206.946Z" fill="#263238"/>
<path d="M84.4492 90.3459C84.5214 91.2465 85.0177 95.4436 85.0177 95.4436L157.557 85.0679L156.429 79.0065L84.4492 90.3459Z" fill="#00BCD4"/>
<path d="M59.1836 114.88C59.2648 115.781 59.725 121.572 59.725 121.572L194.111 99.4245L193.471 92.1292L59.1836 114.88Z" fill="#00BCD4"/>
<path d="M63.1807 136.37C63.2619 137.271 63.7221 143.071 63.7221 143.071L198.108 120.923L197.468 113.619L63.1807 136.37Z" fill="#00BCD4"/>
<path d="M68.5498 158.247C68.5498 158.58 69.8672 165.047 69.8672 165.047L137.209 154.113L136.542 145.854L68.5498 158.247Z" fill="#00BCD4"/>
<path d="M48.978 39.17L55.0147 82.5821L94.6186 77.052L89.2226 33.766L48.978 39.17Z" fill="#263238"/>
<path d="M48.978 39.17L55.0147 82.5821L94.6186 77.052L89.2226 33.766L48.978 39.17Z" fill="#00BCD4"/>
<path d="M68.7304 75.1246L80.6955 71.9002C80.5061 70.4682 79.3781 65.0282 79.3781 65.0282C79.3781 65.0282 84.2779 63.3079 83.3936 58.2642C82.5093 53.2204 79.4864 41.836 79.4864 41.836C76.3974 41.149 73.1807 41.2958 70.1674 42.2614C67.1541 43.2271 64.4529 44.9766 62.3418 47.3301L61.7012 48.0416L68.7304 75.1246Z" fill="#FFBE9D"/>
<path d="M79.9101 50.6985C79.8173 50.6526 79.7352 50.5878 79.669 50.5083C79.6029 50.4287 79.5542 50.3362 79.5262 50.2367C79.4981 50.1372 79.4913 50.0329 79.5062 49.9306C79.5211 49.8283 79.5573 49.7302 79.6125 49.6428C79.6678 49.5553 79.7408 49.4804 79.8268 49.4229C79.9129 49.3654 80.0101 49.3266 80.1122 49.3089C80.2142 49.2913 80.3188 49.2952 80.4193 49.3205C80.5197 49.3458 80.6137 49.3918 80.6952 49.4556C80.7792 49.5055 80.8523 49.5716 80.9103 49.6502C80.9682 49.7288 81.0098 49.8182 81.0325 49.9131C81.0552 50.008 81.0586 50.1064 81.0425 50.2027C81.0264 50.2989 80.9912 50.3909 80.9388 50.4733C80.8316 50.6384 80.6634 50.7547 80.4708 50.7969C80.2782 50.839 80.0768 50.8037 79.9101 50.6985Z" fill="#263238"/>
<path d="M80.9206 49.3204C80.8575 49.4285 80.289 49.1403 79.5942 49.2664C78.8994 49.3925 78.4663 49.8428 78.376 49.7708C78.2858 49.6987 78.376 49.5636 78.5655 49.3565C78.8181 49.0837 79.1548 48.903 79.522 48.8431C79.8872 48.783 80.2621 48.8364 80.5958 48.9962C80.8485 49.1313 80.9477 49.2754 80.9206 49.3204Z" fill="#263238"/>
<path d="M73.0345 51.4191C73.126 51.4531 73.2098 51.5048 73.2811 51.5713C73.3524 51.6378 73.4099 51.7177 73.4502 51.8064C73.4904 51.8952 73.5127 51.991 73.5157 52.0884C73.5187 52.1857 73.5024 52.2827 73.4677 52.3738C73.4327 52.4648 73.3801 52.5481 73.3129 52.6189C73.2457 52.6897 73.1652 52.7466 73.0759 52.7863C72.9867 52.8261 72.8905 52.8479 72.7928 52.8505C72.6951 52.8531 72.5979 52.8365 72.5067 52.8016C72.4154 52.7667 72.332 52.7142 72.261 52.6471C72.1901 52.58 72.1331 52.4997 72.0933 52.4106C72.0535 52.3215 72.0317 52.2255 72.0291 52.128C72.0265 52.0305 72.0431 51.9334 72.0781 51.8424C72.1487 51.6597 72.2891 51.5124 72.4685 51.433C72.6478 51.3536 72.8515 51.3486 73.0345 51.4191Z" fill="#263238"/>
<path d="M73.4763 51.338C73.4132 51.4371 72.8447 51.1489 72.1589 51.2749C71.4731 51.401 71.0219 51.8604 70.9317 51.7793C70.8415 51.6983 70.9317 51.5812 71.1212 51.365C71.384 51.1048 71.7206 50.9315 72.0854 50.8686C72.4502 50.8058 72.8255 50.8565 73.1605 51.0138C73.4222 51.1489 73.5305 51.2569 73.4763 51.338Z" fill="#263238"/>
<path d="M77.3475 56.5348C77.6778 56.3261 78.0407 56.1739 78.4213 56.0845C78.6017 56.0305 78.7371 55.9674 78.7371 55.8684C78.7053 55.6851 78.6242 55.5138 78.5025 55.373L77.6904 54.067C76.9538 52.9713 76.3252 51.807 75.8135 50.5905C76.6669 51.5991 77.4109 52.695 78.0333 53.8599L78.8183 55.1838C78.9801 55.3924 79.066 55.6497 79.0619 55.9134C79.0503 55.9888 79.0203 56.0602 78.9747 56.1214C78.9291 56.1826 78.8692 56.2318 78.8002 56.2646C78.7055 56.3098 78.6054 56.3431 78.5025 56.3637C78.1299 56.4854 77.7394 56.5433 77.3475 56.5348Z" fill="#263238"/>
<path d="M75.281 57.7237C74.4779 57.4265 77.4737 58.4082 78.8904 58.075C78.7228 58.482 78.4218 58.8204 78.0367 59.0347C77.6515 59.249 77.2049 59.3266 76.7699 59.2548C75.0915 58.9846 75.281 57.7237 75.281 57.7237Z" fill="white"/>
<path d="M79.3507 64.9561C77.0314 65.4356 74.6214 65.2129 72.4297 64.3167C72.4297 64.3167 74.6585 67.6491 79.6484 66.2531L79.3507 64.9561Z" fill="#EB996E"/>
<path d="M62.5309 52.9052C62.4136 52.9052 58.723 53.3285 60.1217 57.4085C61.5203 61.4885 65.2289 58.7595 65.2019 58.6424C65.1748 58.5253 62.5309 52.9052 62.5309 52.9052Z" fill="#FFBE9D"/>
<path d="M63.4427 57.6697C63.4427 57.6697 63.3885 57.7417 63.2803 57.8408C63.1334 57.9692 62.943 58.0368 62.7479 58.0299C62.2606 58.0299 61.656 57.4535 61.3853 56.715C61.2559 56.364 61.2066 55.9886 61.241 55.6162C61.2371 55.4741 61.2669 55.3331 61.3281 55.2047C61.3892 55.0764 61.48 54.9643 61.5929 54.8776C61.6673 54.8275 61.7572 54.8055 61.8464 54.8154C61.9357 54.8253 62.0185 54.8665 62.0801 54.9317C62.1794 55.0307 62.1794 55.1208 62.2065 55.1208C62.2335 55.1208 62.2696 55.0217 62.2065 54.8596C62.1471 54.7669 62.058 54.6971 61.9538 54.6615C61.8852 54.6327 61.8116 54.6179 61.7372 54.6179C61.6629 54.6179 61.5892 54.6327 61.5207 54.6615C61.3623 54.7537 61.2302 54.8849 61.137 55.0426C61.0438 55.2002 60.9926 55.3791 60.9883 55.5621C60.9316 55.9783 60.9781 56.402 61.1236 56.796C61.2276 57.1718 61.4409 57.5083 61.7364 57.7632C62.0319 58.0181 62.3964 58.1799 62.784 58.2281C62.9049 58.2229 63.0231 58.1902 63.1294 58.1324C63.2358 58.0747 63.3275 57.9934 63.3976 57.8948C63.4697 57.7688 63.4607 57.6697 63.4427 57.6697Z" fill="#EB996E"/>
<path d="M79.4138 41.6918C78.7551 45.3935 73.9997 47.6902 70.3362 48.5819C71.771 46.7806 70.7694 47.2759 71.6356 46.024C69.2469 49.0154 65.8571 51.0462 62.0888 51.7432C61.6444 50.9436 61.3658 50.0629 61.2694 49.1535C61.173 48.2442 61.2608 47.3248 61.5277 46.45C61.7946 45.5752 62.235 44.763 62.8228 44.0616C63.4106 43.3602 64.1338 42.784 64.9492 42.3673C66.023 41.8179 67.2141 41.5567 68.324 41.0793C69.2263 40.674 70.1287 40.1066 71.0852 39.7734C73.9727 38.7826 78.6378 37.0714 79.4138 41.6918Z" fill="#263238"/>
<path d="M64.002 49.4556C63.9028 49.978 63.9118 55.8863 63.9118 55.8863L61.5928 50.6174L64.002 49.4556Z" fill="#263238"/>
<path d="M45.0166 96.1552L55.0417 81.4113C56.9472 78.4875 59.5161 76.0529 62.5401 74.305C64.141 73.3671 65.8797 72.6863 67.6925 72.2875C72.1449 72.829 76.6564 71.9894 80.6141 69.8827C84.2224 69.6059 87.8515 69.9502 91.343 70.9005L111.195 74.9355L108.325 92.3183L97.8399 90.8863L100.114 106.306L106.358 128.822L68.1347 136.352L64.7419 115.483L61.9626 100.451L57.4509 106.846L45.0166 96.1552Z" fill="#455A64"/>
<path d="M261.787 341.415L261.742 333.129L277.281 332.949L277.479 345.063L276.514 345.135C272.228 345.423 254.704 346.306 251.826 345.468C248.622 344.541 261.787 341.415 261.787 341.415Z" fill="#00BCD4"/>
<path d="M271.849 345.009C272.063 343.698 272.754 342.512 273.789 341.677C274.802 340.849 276.09 340.431 277.398 340.506L277.452 344.838L271.849 345.009Z" fill="#00BCD4"/>
<path d="M255.353 343.172C255.353 343.172 250.742 344.559 251.329 345.315C251.915 346.072 269.665 345.847 277.497 345.063V344.712L256.797 345.153C256.797 345.153 256.265 343.199 255.353 343.172Z" fill="#00BCD4"/>
<path d="M277.695 344.703H277.425L276.658 344.766L273.842 344.919C271.451 345.036 268.158 345.153 264.512 345.198C260.867 345.244 257.573 345.198 255.182 345.198L252.358 345.117H251.591H251.32H252.358H255.191C257.573 345.117 260.867 345.117 264.512 345.117C268.158 345.117 271.451 344.964 273.833 344.883L276.658 344.793H277.425L277.695 344.703Z" fill="#263238"/>
<path d="M256.761 345.396C256.634 344.929 256.452 344.479 256.22 344.054C255.937 343.664 255.61 343.307 255.245 342.992C255.735 343.164 256.141 343.515 256.382 343.973C256.676 344.387 256.811 344.892 256.761 345.396Z" fill="#263238"/>
<path d="M261.318 343.01C261.273 343.01 261.056 342.776 260.821 342.424C260.656 342.222 260.539 341.985 260.479 341.731C260.524 341.731 260.749 341.965 260.975 342.325C261.2 342.686 261.363 342.983 261.318 343.01Z" fill="#263238"/>
<path d="M262.572 342.334C262.572 342.334 262.283 342.208 262.012 341.974C261.742 341.74 261.552 341.515 261.588 341.479C261.624 341.443 261.868 341.596 262.139 341.83C262.41 342.064 262.599 342.298 262.572 342.334Z" fill="#263238"/>
<path d="M263.348 340.857C263.091 340.96 262.812 341 262.536 340.974C262.263 341.006 261.987 340.982 261.724 340.902C261.982 340.8 262.26 340.759 262.536 340.785C262.809 340.754 263.085 340.778 263.348 340.857Z" fill="#263238"/>
<path d="M263.61 339.821C263.344 340.004 263.03 340.101 262.708 340.101C262.402 340.153 262.087 340.113 261.805 339.983C262.103 339.932 262.405 339.908 262.708 339.911C263.005 339.857 263.307 339.827 263.61 339.821Z" fill="#263238"/>
<path d="M260.777 341.668C260.445 341.723 260.107 341.723 259.775 341.668C259.414 341.623 259.058 341.547 258.71 341.443C258.497 341.386 258.291 341.305 258.097 341.2C257.977 341.132 257.887 341.023 257.844 340.893C257.829 340.82 257.836 340.743 257.863 340.673C257.89 340.603 257.937 340.542 257.997 340.497C258.374 340.302 258.808 340.245 259.222 340.338C259.636 340.43 260.005 340.665 260.262 341.001C260.42 341.194 260.534 341.418 260.596 341.659C260.616 341.748 260.616 341.84 260.596 341.929C260.487 341.623 260.329 341.337 260.127 341.082C259.896 340.828 259.599 340.641 259.27 340.542C259.074 340.48 258.869 340.456 258.664 340.473C258.46 340.49 258.261 340.547 258.079 340.641C257.916 340.758 257.988 340.947 258.16 341.046C258.341 341.143 258.532 341.221 258.728 341.281C259.064 341.393 259.408 341.478 259.757 341.533C260.398 341.641 260.777 341.641 260.777 341.668Z" fill="#263238"/>
<path d="M260.515 341.722C260.394 341.512 260.35 341.267 260.389 341.028C260.42 340.767 260.512 340.517 260.659 340.299C260.741 340.15 260.859 340.024 261.003 339.932C261.146 339.841 261.311 339.787 261.481 339.776C261.583 339.796 261.674 339.855 261.733 339.941C261.792 340.027 261.815 340.133 261.796 340.236C261.774 340.395 261.719 340.549 261.634 340.686C261.505 340.907 261.347 341.11 261.165 341.289C261.015 341.476 260.819 341.619 260.596 341.704C260.596 341.704 260.795 341.524 261.065 341.199C261.228 341.016 261.367 340.813 261.481 340.596C261.616 340.389 261.706 340.011 261.481 339.965C261.255 339.92 260.975 340.2 260.822 340.398C260.686 340.592 260.593 340.813 260.551 341.046C260.52 341.27 260.508 341.496 260.515 341.722Z" fill="#263238"/>
<path d="M277.326 340.461C277.326 340.461 276.874 340.461 276.18 340.515C275.265 340.628 274.402 340.997 273.688 341.578C272.974 342.16 272.44 342.931 272.146 343.802C271.921 344.478 271.902 344.919 271.866 344.919C271.851 344.815 271.851 344.709 271.866 344.604C271.895 344.32 271.949 344.04 272.029 343.766C272.295 342.85 272.834 342.036 273.573 341.432C274.313 340.827 275.218 340.46 276.171 340.38C276.456 340.351 276.743 340.351 277.028 340.38C277.13 340.393 277.23 340.421 277.326 340.461Z" fill="#263238"/>
<path d="M275.602 334.066C275.789 336.183 275.843 338.31 275.764 340.434C275.59 338.316 275.536 336.19 275.602 334.066Z" fill="#263238"/>
<path d="M269.872 343.523C268.386 343.822 266.858 343.856 265.36 343.622C265.36 343.568 266.38 343.622 267.634 343.622C268.889 343.622 269.863 343.469 269.872 343.523Z" fill="#263238"/>
<path d="M272.895 343.478C272.895 343.478 272.814 343.694 272.715 343.928C272.616 344.163 272.561 344.37 272.507 344.361C272.453 344.352 272.426 344.118 272.507 343.847C272.589 343.577 272.895 343.442 272.895 343.478Z" fill="#263238"/>
<path d="M274.041 342.037C274.086 342.037 273.987 342.235 273.825 342.397C273.662 342.559 273.509 342.667 273.473 342.631C273.437 342.595 273.527 342.433 273.689 342.271C273.852 342.109 274.005 342.001 274.041 342.037Z" fill="#263238"/>
<path d="M275.674 341.361C275.674 341.416 275.458 341.416 275.232 341.497C275.007 341.578 274.844 341.704 274.799 341.668C274.754 341.632 274.889 341.425 275.169 341.325C275.449 341.226 275.692 341.316 275.674 341.361Z" fill="#263238"/>
<path d="M276.847 341.037C276.847 341.091 276.775 341.172 276.649 341.217C276.523 341.262 276.396 341.28 276.378 341.217C276.36 341.154 276.45 341.091 276.577 341.037C276.703 340.983 276.82 340.992 276.847 341.037Z" fill="#263238"/>
<path d="M341.212 337.137L338.676 329.248L323.851 333.886L327.46 345.46L328.362 345.234C332.531 344.181 349.459 339.587 351.941 337.903C354.702 336.03 341.212 337.137 341.212 337.137Z" fill="#00BCD4"/>
<path d="M332.765 343.667C332.159 342.485 331.133 341.57 329.887 341.1C328.663 340.623 327.303 340.623 326.079 341.1L327.378 345.234L332.765 343.667Z" fill="#00BCD4"/>
<path d="M347.871 336.813C347.871 336.813 352.689 336.705 352.383 337.606C352.076 338.506 335.121 343.784 327.442 345.46L327.37 345.126L347.176 339.128C347.176 339.128 347.023 337.119 347.871 336.813Z" fill="#00BCD4"/>
<path d="M327.108 345.189L327.379 345.135L328.119 344.946L330.826 344.226C333.127 343.595 336.303 342.685 339.777 341.605C343.251 340.524 346.382 339.47 348.638 338.687L351.3 337.732L352.022 337.462C352.107 337.435 352.189 337.399 352.265 337.354L352.004 337.426L351.273 337.66L348.566 338.56C346.301 339.317 343.152 340.362 339.696 341.425C336.24 342.487 333.054 343.433 330.762 344.127L328.055 344.91L327.324 345.126C327.251 345.142 327.178 345.163 327.108 345.189Z" fill="#263238"/>
<path d="M347.221 339.362C347.206 338.879 347.242 338.396 347.33 337.921C347.476 337.461 347.676 337.02 347.925 336.606C347.513 336.915 347.232 337.369 347.14 337.876C346.991 338.365 347.02 338.892 347.221 339.362Z" fill="#263238"/>
<path d="M342.15 338.506C342.204 338.506 342.331 338.2 342.448 337.795C342.565 337.39 342.601 337.047 342.547 337.029C342.402 337.247 342.304 337.492 342.258 337.75C342.166 337.991 342.129 338.249 342.15 338.506Z" fill="#263238"/>
<path d="M340.751 338.254C340.797 338.254 340.986 338.047 341.167 337.741C341.347 337.435 341.464 337.156 341.419 337.129C341.374 337.102 341.194 337.336 341.004 337.642C340.815 337.948 340.706 338.227 340.751 338.254Z" fill="#263238"/>
<path d="M339.56 337.093C339.835 337.1 340.108 337.051 340.363 336.948C340.633 336.893 340.887 336.782 341.112 336.624C340.837 336.605 340.561 336.654 340.309 336.768C339.876 336.894 339.542 337.039 339.56 337.093Z" fill="#263238"/>
<path d="M338.992 336.183C339.285 336.278 339.601 336.278 339.894 336.183C340.213 336.139 340.512 336.001 340.751 335.786C340.444 335.83 340.142 335.903 339.849 336.003C339.559 336.039 339.272 336.099 338.992 336.183Z" fill="#263238"/>
<path d="M342.249 337.056C342.584 337.019 342.909 336.918 343.206 336.759C343.537 336.607 343.854 336.426 344.153 336.219C344.337 336.097 344.506 335.955 344.658 335.796C344.749 335.693 344.8 335.562 344.803 335.426C344.794 335.351 344.765 335.279 344.717 335.22C344.669 335.161 344.605 335.117 344.532 335.093C344.112 335.022 343.681 335.102 343.315 335.318C342.948 335.534 342.67 335.872 342.529 336.273C342.444 336.509 342.407 336.76 342.421 337.011C342.417 337.102 342.435 337.191 342.475 337.273C342.478 336.949 342.539 336.629 342.655 336.327C342.792 336.009 343.017 335.737 343.305 335.543C343.471 335.423 343.659 335.336 343.859 335.288C344.059 335.24 344.266 335.232 344.469 335.264C344.649 335.336 344.649 335.525 344.514 335.678C344.373 335.827 344.215 335.96 344.045 336.075C343.758 336.286 343.457 336.475 343.143 336.642C342.61 336.921 342.24 337.029 342.249 337.056Z" fill="#263238"/>
<path d="M342.511 337.029C342.566 336.795 342.534 336.548 342.421 336.336C342.316 336.095 342.151 335.884 341.942 335.723C341.823 335.613 341.679 335.533 341.521 335.49C341.364 335.448 341.199 335.445 341.04 335.48C340.995 335.505 340.955 335.538 340.922 335.578C340.89 335.618 340.866 335.664 340.852 335.714C340.837 335.763 340.833 335.815 340.839 335.866C340.845 335.917 340.861 335.967 340.887 336.012C340.953 336.158 341.052 336.287 341.175 336.39C341.368 336.558 341.58 336.703 341.807 336.822C342.007 336.952 342.237 337.026 342.475 337.038C342.475 337.038 342.231 336.93 341.87 336.705C341.664 336.578 341.47 336.43 341.293 336.264C341.103 336.102 340.896 335.768 341.121 335.651C341.255 335.627 341.393 335.632 341.524 335.668C341.655 335.704 341.777 335.769 341.879 335.859C342.07 336 342.227 336.182 342.339 336.39C342.422 336.596 342.479 336.81 342.511 337.029Z" fill="#263238"/>
<path d="M326.133 341.037C326.133 341.037 326.548 340.866 327.243 340.74C328.147 340.561 329.083 340.642 329.943 340.974C330.802 341.306 331.55 341.874 332.098 342.613C332.522 343.181 332.675 343.604 332.711 343.586C332.696 343.483 332.665 343.383 332.621 343.289C332.509 343.026 332.37 342.776 332.206 342.541C331.667 341.754 330.902 341.148 330.011 340.802C329.121 340.456 328.146 340.388 327.216 340.605C326.937 340.672 326.665 340.766 326.404 340.884C326.306 340.92 326.215 340.972 326.133 341.037Z" fill="#263238"/>
<path d="M325.754 334.399C326.23 336.47 326.832 338.509 327.559 340.506C327.338 339.465 327.061 338.437 326.729 337.426C326.465 336.398 326.14 335.388 325.754 334.399Z" fill="#263238"/>
<path d="M334.182 341.641C334.944 341.58 335.696 341.426 336.42 341.181C337.157 340.987 337.867 340.699 338.531 340.326C338.531 340.281 337.557 340.641 336.366 341.001C335.175 341.362 334.173 341.587 334.182 341.641Z" fill="#263238"/>
<path d="M331.277 342.541C331.277 342.541 331.421 342.722 331.584 342.911C331.746 343.1 331.872 343.28 331.918 343.262C331.963 343.244 331.918 343.01 331.728 342.785C331.539 342.559 331.295 342.496 331.277 342.541Z" fill="#263238"/>
<path d="M329.743 341.524C329.743 341.569 329.86 341.695 330.068 341.803C330.275 341.911 330.456 341.956 330.474 341.911C330.492 341.866 330.356 341.74 330.158 341.632C329.959 341.524 329.743 341.479 329.743 341.524Z" fill="#263238"/>
<path d="M327.992 341.389C327.992 341.434 328.209 341.389 328.453 341.389C328.696 341.389 328.895 341.47 328.922 341.389C328.949 341.308 328.759 341.181 328.462 341.172C328.164 341.163 327.938 341.344 327.992 341.389Z" fill="#263238"/>
<path d="M326.783 341.443C326.783 341.497 326.891 341.542 327.027 341.551C327.162 341.56 327.279 341.551 327.279 341.479C327.279 341.407 327.18 341.38 327.036 341.371C326.891 341.362 326.783 341.389 326.783 341.443Z" fill="#263238"/>
<path d="M251.212 176.945L258.467 337.849L282.668 338.353L278.652 203.65L322.506 339.957L342.286 334.553L298.152 176.945" fill="#263238"/>
<path d="M321.468 339.047L322.596 341.208L343.558 335.111L342.285 331.598L321.468 339.047Z" fill="#455A64"/>
<path d="M339.867 330.797C339.994 330.797 340.183 331.022 340.291 331.373C340.4 331.725 340.382 332.058 340.291 332.094C340.201 332.13 339.985 331.869 339.876 331.508C339.768 331.148 339.741 330.833 339.867 330.797Z" fill="#455A64"/>
<path d="M338.297 325.573C338.424 325.573 338.703 326.086 338.92 326.807C339.136 327.527 339.209 328.149 339.082 328.185C338.956 328.221 338.685 327.671 338.469 326.942C338.252 326.212 338.171 325.609 338.297 325.573Z" fill="#455A64"/>
<path d="M336.727 320.349C336.853 320.349 337.133 320.863 337.35 321.583C337.566 322.304 337.638 322.925 337.512 322.961C337.386 322.997 337.115 322.439 336.898 321.718C336.682 320.998 336.601 320.385 336.727 320.349Z" fill="#455A64"/>
<path d="M335.157 315.152C335.283 315.152 335.563 315.665 335.78 316.386C335.996 317.107 336.068 317.728 335.942 317.764C335.816 317.8 335.545 317.242 335.328 316.521C335.112 315.801 335.031 315.152 335.157 315.152Z" fill="#455A64"/>
<path d="M333.587 309.901C333.713 309.901 333.993 310.415 334.209 311.135C334.426 311.856 334.498 312.477 334.372 312.513C334.245 312.549 333.975 311.991 333.758 311.27C333.542 310.55 333.469 309.937 333.587 309.901Z" fill="#455A64"/>
<path d="M332.017 304.677C332.143 304.632 332.423 305.191 332.639 305.911C332.856 306.632 332.928 307.244 332.802 307.289C332.676 307.334 332.405 306.767 332.188 306.046C331.972 305.326 331.9 304.713 332.017 304.677Z" fill="#455A64"/>
<path d="M330.447 299.444C330.573 299.444 330.853 299.967 331.069 300.687C331.286 301.408 331.358 302.02 331.232 302.065C331.105 302.11 330.835 301.543 330.618 300.822C330.401 300.102 330.329 299.489 330.447 299.444Z" fill="#455A64"/>
<path d="M328.841 294.221C328.967 294.221 329.247 294.743 329.463 295.464C329.68 296.184 329.752 296.797 329.626 296.833C329.499 296.869 329.229 296.319 329.012 295.599C328.796 294.878 328.759 294.266 328.841 294.221Z" fill="#455A64"/>
<path d="M327.306 289.033C327.433 289.033 327.712 289.555 327.929 290.276C328.146 290.996 328.218 291.609 328.091 291.645C327.965 291.681 327.694 291.131 327.478 290.411C327.261 289.69 327.189 289.033 327.306 289.033Z" fill="#455A64"/>
<path d="M325.737 283.773C325.863 283.773 326.143 284.295 326.359 285.016C326.576 285.736 326.648 286.349 326.522 286.385C326.395 286.421 326.125 285.871 325.908 285.151C325.691 284.43 325.619 283.809 325.737 283.773Z" fill="#455A64"/>
<path d="M324.175 278.549C324.293 278.549 324.572 279.071 324.789 279.792C325.006 280.513 325.078 281.125 324.96 281.161C324.843 281.197 324.554 280.648 324.338 279.927C324.121 279.207 324.049 278.585 324.175 278.549Z" fill="#455A64"/>
<path d="M322.605 273.325C322.722 273.325 323.002 273.839 323.219 274.568C323.435 275.298 323.507 275.901 323.39 275.937C323.273 275.973 322.984 275.424 322.768 274.703C322.551 273.983 322.524 273.361 322.605 273.325Z" fill="#455A64"/>
<path d="M321.035 268.101C321.153 268.101 321.432 268.615 321.649 269.335C321.865 270.056 321.938 270.677 321.82 270.713C321.703 270.749 321.414 270.2 321.198 269.47C320.981 268.741 320.909 268.137 321.035 268.101Z" fill="#455A64"/>
<path d="M319.465 262.914C319.582 262.914 319.862 263.427 320.079 264.147C320.295 264.868 320.367 265.489 320.25 265.525C320.133 265.562 319.844 265.003 319.627 264.283C319.411 263.562 319.339 262.914 319.465 262.914Z" fill="#455A64"/>
<path d="M317.895 257.654C318.012 257.654 318.292 258.167 318.509 258.887C318.725 259.608 318.798 260.229 318.68 260.265C318.563 260.301 318.274 259.743 318.058 259.023C317.841 258.302 317.769 257.69 317.895 257.654Z" fill="#455A64"/>
<path d="M316.325 252.43C316.451 252.43 316.722 252.943 316.938 253.664C317.155 254.384 317.236 255.006 317.11 255.042C316.984 255.078 316.704 254.519 316.487 253.799C316.271 253.078 316.207 252.466 316.325 252.43Z" fill="#455A64"/>
<path d="M314.755 247.206C314.881 247.161 315.152 247.719 315.369 248.44C315.585 249.16 315.666 249.773 315.54 249.818C315.414 249.863 315.134 249.295 314.917 248.575C314.701 247.854 314.629 247.242 314.755 247.206Z" fill="#455A64"/>
<path d="M313.185 241.973C313.311 241.973 313.582 242.495 313.798 243.216C314.015 243.936 314.096 244.549 313.97 244.594C313.843 244.639 313.564 244.072 313.347 243.351C313.131 242.63 313.058 242.018 313.185 241.973Z" fill="#455A64"/>
<path d="M311.615 236.794C311.741 236.794 312.012 237.317 312.228 238.037C312.445 238.758 312.526 239.37 312.4 239.406C312.274 239.442 311.994 238.893 311.777 238.172C311.561 237.452 311.489 236.794 311.615 236.794Z" fill="#455A64"/>
<path d="M310.045 231.525C310.171 231.525 310.442 232.048 310.658 232.768C310.875 233.489 310.956 234.101 310.83 234.137C310.704 234.173 310.424 233.624 310.207 232.903C309.991 232.183 309.891 231.561 310.045 231.525Z" fill="#455A64"/>
<path d="M308.474 226.302C308.601 226.302 308.871 226.824 309.088 227.544C309.305 228.265 309.386 228.877 309.259 228.913C309.133 228.949 308.862 228.4 308.637 227.68C308.411 226.959 308.348 226.338 308.474 226.302Z" fill="#455A64"/>
<path d="M306.905 221.078C307.031 221.078 307.302 221.6 307.518 222.321C307.735 223.041 307.816 223.654 307.69 223.69C307.563 223.726 307.293 223.176 307.076 222.456C306.859 221.735 306.778 221.114 306.905 221.078Z" fill="#455A64"/>
<path d="M305.38 215.854C305.506 215.854 305.777 216.367 305.993 217.097C306.21 217.826 306.291 218.43 306.165 218.466C306.038 218.502 305.768 217.952 305.551 217.232C305.335 216.511 305.208 215.89 305.38 215.854Z" fill="#455A64"/>
<path d="M303.764 210.675C303.89 210.675 304.161 211.188 304.387 211.909C304.612 212.629 304.675 213.251 304.549 213.287C304.423 213.323 304.152 212.773 303.935 212.044C303.719 211.314 303.638 210.675 303.764 210.675Z" fill="#455A64"/>
<path d="M302.194 205.406C302.32 205.406 302.6 205.919 302.817 206.64C303.033 207.36 303.106 207.982 302.979 208.018C302.853 208.054 302.582 207.496 302.366 206.775C302.149 206.054 302.068 205.442 302.194 205.406Z" fill="#455A64"/>
<path d="M300.624 200.182C300.751 200.182 301.03 200.696 301.247 201.416C301.463 202.137 301.536 202.758 301.409 202.794C301.283 202.83 301.012 202.272 300.796 201.551C300.579 200.831 300.498 200.218 300.624 200.182Z" fill="#455A64"/>
<path d="M299.063 194.958C299.189 194.958 299.469 195.472 299.686 196.192C299.902 196.913 299.974 197.534 299.848 197.57C299.722 197.606 299.451 197.048 299.234 196.327C299.018 195.607 298.928 194.994 299.063 194.958Z" fill="#455A64"/>
<path d="M297.484 189.734C297.61 189.689 297.89 190.248 298.106 190.968C298.323 191.689 298.395 192.301 298.269 192.346C298.142 192.391 297.872 191.824 297.655 191.103C297.439 190.383 297.357 189.77 297.484 189.734Z" fill="#455A64"/>
<path d="M295.914 184.501C296.04 184.501 296.32 185.024 296.536 185.744C296.753 186.465 296.825 187.077 296.699 187.122C296.573 187.167 296.302 186.6 296.085 185.879C295.869 185.159 295.796 184.556 295.914 184.501Z" fill="#455A64"/>
<path d="M294.741 180.602C294.867 180.602 295.057 180.818 295.165 181.178C295.273 181.538 295.255 181.853 295.165 181.89C295.075 181.926 294.858 181.673 294.75 181.313C294.641 180.953 294.614 180.638 294.741 180.602Z" fill="#455A64"/>
<path d="M278.499 337.038C278.625 337.038 278.742 337.327 278.77 337.696C278.797 338.065 278.697 338.38 278.562 338.389C278.427 338.398 278.318 338.101 278.3 337.723C278.282 337.345 278.364 337.047 278.499 337.038Z" fill="#455A64"/>
<path d="M278.309 331.679C278.435 331.679 278.571 332.265 278.598 333.012C278.625 333.76 278.543 334.354 278.408 334.354C278.273 334.354 278.156 333.769 278.128 333.03C278.101 332.292 278.146 331.679 278.309 331.679Z" fill="#455A64"/>
<path d="M278.111 326.32C278.237 326.32 278.363 326.906 278.381 327.653C278.399 328.401 278.318 328.995 278.183 328.995C278.047 328.995 277.93 328.401 277.912 327.662C277.894 326.924 277.975 326.32 278.111 326.32Z" fill="#455A64"/>
<path d="M277.975 320.952C278.102 320.952 278.219 321.547 278.237 322.285C278.255 323.024 278.165 323.627 278.039 323.636C277.912 323.645 277.786 323.042 277.768 322.303C277.75 321.565 277.84 320.952 277.975 320.952Z" fill="#455A64"/>
<path d="M277.84 315.584C277.975 315.584 278.093 316.179 278.111 316.926C278.129 317.674 278.038 318.268 277.912 318.268C277.786 318.268 277.66 317.674 277.641 316.935C277.623 316.197 277.714 315.593 277.84 315.584Z" fill="#455A64"/>
<path d="M277.705 310.217C277.831 310.217 277.957 310.811 277.975 311.559C277.994 312.306 277.903 312.901 277.777 312.901C277.651 312.901 277.524 312.306 277.506 311.568C277.488 310.829 277.578 310.226 277.705 310.217Z" fill="#455A64"/>
<path d="M277.524 304.858C277.659 304.858 277.785 305.443 277.813 306.191C277.84 306.938 277.749 307.533 277.623 307.542C277.497 307.551 277.361 306.947 277.343 306.209C277.325 305.47 277.407 304.858 277.524 304.858Z" fill="#455A64"/>
<path d="M277.298 299.499C277.434 299.499 277.56 300.084 277.596 300.823C277.632 301.561 277.542 302.174 277.416 302.174C277.289 302.174 277.154 301.588 277.118 300.841C277.082 300.093 277.172 299.499 277.298 299.499Z" fill="#455A64"/>
<path d="M277.091 294.131C277.217 294.131 277.353 294.725 277.38 295.464C277.407 296.202 277.326 296.806 277.19 296.815C277.055 296.824 276.938 296.22 276.91 295.482C276.883 294.743 276.965 294.14 277.091 294.131Z" fill="#455A64"/>
<path d="M276.901 288.772C277.037 288.772 277.163 289.366 277.181 290.105C277.199 290.843 277.127 291.447 276.992 291.456C276.856 291.465 276.739 290.861 276.712 290.123C276.685 289.384 276.775 288.781 276.901 288.772Z" fill="#455A64"/>
<path d="M276.739 283.404C276.865 283.404 276.992 283.998 277.01 284.737C277.028 285.475 276.947 286.079 276.82 286.088C276.694 286.097 276.568 285.493 276.541 284.755C276.514 284.016 276.613 283.413 276.739 283.404Z" fill="#455A64"/>
<path d="M276.595 278.045C276.73 278.045 276.847 278.639 276.865 279.378C276.884 280.116 276.793 280.72 276.667 280.72C276.541 280.72 276.414 280.125 276.396 279.387C276.378 278.648 276.505 278.045 276.595 278.045Z" fill="#455A64"/>
<path d="M276.504 272.677C276.631 272.677 276.748 273.271 276.766 274.019C276.784 274.766 276.685 275.361 276.558 275.361C276.432 275.361 276.306 274.766 276.297 274.028C276.288 273.289 276.351 272.677 276.504 272.677Z" fill="#455A64"/>
<path d="M276.396 267.318C276.522 267.318 276.64 267.912 276.649 268.651C276.658 269.389 276.567 269.993 276.432 269.993C276.297 269.993 276.188 269.398 276.179 268.66C276.17 267.921 276.261 267.318 276.396 267.318Z" fill="#455A64"/>
<path d="M276.324 261.95C276.459 261.95 276.568 262.544 276.577 263.292C276.586 264.039 276.486 264.634 276.36 264.634C276.234 264.634 276.117 264.03 276.108 263.292C276.098 262.553 276.198 261.95 276.324 261.95Z" fill="#455A64"/>
<path d="M276.288 256.609C276.423 256.609 276.531 257.212 276.531 257.951C276.531 258.689 276.432 259.293 276.306 259.293C276.179 259.293 276.071 258.698 276.062 257.951C276.053 257.203 276.161 256.609 276.288 256.609Z" fill="#455A64"/>
<path d="M276.279 251.205C276.405 251.205 276.513 251.799 276.513 252.547C276.513 253.294 276.414 253.88 276.279 253.889C276.143 253.898 276.044 253.285 276.044 252.547C276.044 251.808 276.152 251.205 276.279 251.205Z" fill="#455A64"/>
<path d="M276.297 245.855C276.423 245.855 276.522 246.458 276.522 247.197C276.522 247.935 276.414 248.539 276.279 248.539C276.143 248.539 276.053 247.935 276.053 247.197C276.053 246.458 276.161 245.855 276.297 245.855Z" fill="#455A64"/>
<path d="M276.333 240.487C276.468 240.487 276.568 241.09 276.559 241.829C276.55 242.567 276.441 243.171 276.315 243.171C276.189 243.171 276.08 242.567 276.089 241.829C276.098 241.09 276.207 240.487 276.333 240.487Z" fill="#455A64"/>
<path d="M276.405 235.128C276.531 235.128 276.631 235.731 276.622 236.47C276.613 237.209 276.495 237.812 276.369 237.812C276.243 237.812 276.143 237.208 276.152 236.461C276.161 235.713 276.279 235.128 276.405 235.128Z" fill="#455A64"/>
<path d="M276.505 229.76C276.631 229.76 276.721 230.372 276.712 231.111C276.703 231.85 276.577 232.444 276.45 232.444C276.324 232.444 276.225 231.841 276.243 231.102C276.261 230.363 276.369 229.76 276.505 229.76Z" fill="#455A64"/>
<path d="M276.621 224.392C276.748 224.392 276.838 225.005 276.82 225.743C276.802 226.482 276.685 227.085 276.558 227.076C276.432 227.067 276.333 226.473 276.351 225.734C276.369 224.996 276.504 224.392 276.621 224.392Z" fill="#455A64"/>
<path d="M276.811 219.024C276.937 219.024 277.019 219.636 276.991 220.375C276.964 221.114 276.838 221.717 276.703 221.708C276.567 221.699 276.495 221.105 276.522 220.357C276.549 219.609 276.685 219.024 276.811 219.024Z" fill="#455A64"/>
<path d="M277.127 213.674C277.253 213.674 277.317 214.286 277.271 215.025C277.226 215.764 277.082 216.358 276.947 216.349C276.811 216.34 276.757 215.737 276.802 214.989C276.847 214.241 276.992 213.656 277.127 213.674Z" fill="#455A64"/>
<path d="M277.614 208.324C277.75 208.324 277.786 208.946 277.714 209.684C277.641 210.423 277.47 211.008 277.344 210.999C277.217 210.99 277.172 210.378 277.244 209.639C277.317 208.9 277.488 208.315 277.614 208.324Z" fill="#455A64"/>
<path d="M278.137 204.37C278.264 204.37 278.327 204.703 278.273 205.064C278.219 205.424 278.074 205.721 277.948 205.703C277.822 205.685 277.758 205.37 277.804 205.001C277.849 204.631 278.011 204.316 278.137 204.37Z" fill="#455A64"/>
<path d="M257.835 338.632L283.425 339.047L283.227 334.787L257.835 334.922V338.632Z" fill="#455A64"/>
<path d="M274.618 178.98C274.709 179.3 274.76 179.63 274.772 179.962C274.835 180.602 274.925 181.52 275.015 182.664C275.196 184.943 275.422 188.068 275.629 191.563C275.737 193.292 275.828 194.949 275.918 196.462C275.902 197.783 276.06 199.1 276.387 200.38C276.653 201.216 277.241 201.912 278.02 202.317C278.313 202.431 278.615 202.522 278.923 202.587C278.837 202.608 278.747 202.608 278.661 202.587C278.408 202.587 278.157 202.541 277.921 202.452C277.488 202.266 277.098 201.994 276.775 201.651C276.453 201.309 276.204 200.904 276.044 200.461C275.663 199.159 275.465 197.81 275.458 196.453C275.358 194.94 275.25 193.283 275.142 191.554C274.925 188.077 274.754 184.934 274.655 182.655C274.6 181.511 274.573 180.593 274.564 179.953C274.538 179.628 274.556 179.301 274.618 178.98Z" fill="#455A64"/>
<path d="M277.1 181.115C277.1 181.178 276.902 181.34 276.875 181.718C276.868 181.818 276.881 181.918 276.914 182.012C276.946 182.107 276.997 182.194 277.064 182.268C277.15 182.341 277.255 182.389 277.367 182.404C277.479 182.42 277.593 182.404 277.696 182.358C277.803 182.321 277.898 182.253 277.968 182.164C278.039 182.074 278.082 181.967 278.093 181.854C278.089 181.754 278.064 181.656 278.021 181.566C277.977 181.476 277.916 181.396 277.84 181.331C277.56 181.07 277.272 181.124 277.263 181.052C277.254 180.98 277.56 180.782 278.039 181.052C278.175 181.137 278.289 181.251 278.374 181.387C278.458 181.523 278.51 181.676 278.526 181.836C278.526 182.044 278.463 182.248 278.346 182.421C278.229 182.594 278.062 182.728 277.868 182.806C277.674 182.883 277.461 182.901 277.256 182.856C277.052 182.812 276.866 182.707 276.721 182.556C276.619 182.433 276.547 182.286 276.513 182.13C276.478 181.973 276.482 181.81 276.523 181.655C276.703 181.133 277.1 181.061 277.1 181.115Z" fill="#455A64"/>
<path d="M299.875 184.934C299.273 185.342 298.584 185.604 297.863 185.699C296.126 186.048 294.324 185.848 292.706 185.126C291.089 184.405 289.737 183.198 288.84 181.673C288.426 181.074 288.16 180.386 288.063 179.665C288.145 179.665 288.388 180.421 289.119 181.466C290.044 182.872 291.353 183.985 292.891 184.673C294.429 185.361 296.133 185.595 297.8 185.348C299.063 185.195 299.848 184.862 299.875 184.934Z" fill="#455A64"/>
<path d="M259.63 178.98C259.749 179.561 259.718 180.162 259.54 180.728C259.213 182.125 258.456 183.385 257.375 184.33C256.287 185.278 254.931 185.863 253.494 186.006C252.911 186.107 252.312 186.057 251.753 185.862C251.753 185.781 252.43 185.862 253.458 185.672C254.795 185.451 256.044 184.865 257.068 183.979C258.076 183.077 258.821 181.919 259.224 180.629C259.531 179.647 259.549 178.98 259.63 178.98Z" fill="#455A64"/>
<path d="M256.03 109.026C256.03 109.026 231.919 119.203 231.152 118.816C230.385 118.429 229.844 99.0463 229.844 99.0463H217.852C217.852 99.0463 215.578 127.796 222.806 132.371C232.686 138.676 256.608 125.562 256.608 125.562L256.03 109.026Z" fill="#FFBE9D"/>
<path d="M175.514 74.3049L173.042 85.0589L184.61 87.8059C184.61 87.8059 189.365 88.8597 194.093 95.5877C198.822 102.316 200.653 105.297 200.653 105.297L208.666 65.7756L199.967 71.9722C198.243 73.1824 196.328 74.0957 194.301 74.6742C191.819 75.3948 188.508 76.2144 186.658 76.1243C182.907 75.7641 179.184 75.1563 175.514 74.3049Z" fill="#263238"/>
<path d="M305.316 120.176L200.653 105.297L208.666 65.7756L310.433 90.2738C311.528 90.5365 312.484 91.2037 313.107 92.1412C313.729 93.0786 313.973 94.2168 313.789 95.3265L310.351 116.474C310.154 117.621 309.519 118.647 308.581 119.337C307.642 120.027 306.472 120.328 305.316 120.176Z" fill="#00BCD4"/>
<path d="M166.175 74.8093C166.102 74.7961 166.028 74.8008 165.958 74.823C165.887 74.8452 165.824 74.8842 165.772 74.9366C165.72 74.9891 165.682 75.0533 165.661 75.1237C165.64 75.1941 165.637 75.2686 165.651 75.3407C166.089 77.6782 166.665 79.9879 167.375 82.2578C167.618 82.8793 173.412 83.4377 173.412 83.4377L175.009 76.4936L166.175 74.8093Z" fill="#00BCD4"/>
<path d="M296.916 106.567L298.513 100.181L230.9 86.491L229.52 92.9127L296.916 106.567Z" fill="#263238"/>
<path d="M283.777 106.351L268.834 105.153C268.735 103.414 268.834 96.6775 268.834 96.6775C268.834 96.6775 262.617 95.7138 262.518 89.4722C262.419 83.2305 263.52 69.027 263.52 69.027C267.05 67.5083 270.923 66.958 274.738 67.433C278.553 67.908 282.172 69.3911 285.221 71.729L286.123 72.4406L283.777 106.351Z" fill="#FFBE9D"/>
<path d="M264.999 79.7179C265.161 79.554 265.253 79.3348 265.257 79.1052C265.262 78.8756 265.179 78.6529 265.024 78.4827C264.87 78.3124 264.656 78.2075 264.427 78.1893C264.197 78.1712 263.97 78.2411 263.79 78.3849C263.701 78.4644 263.629 78.5607 263.578 78.6682C263.527 78.7757 263.497 78.8923 263.491 79.0113C263.485 79.1302 263.503 79.2491 263.544 79.3611C263.584 79.4732 263.647 79.5761 263.727 79.6639C263.889 79.839 264.114 79.943 264.352 79.9531C264.591 79.9633 264.823 79.8787 264.999 79.7179Z" fill="#263238"/>
<path d="M263.493 78.2769C263.592 78.385 264.205 77.9167 265.054 77.9167C265.902 77.9167 266.533 78.349 266.633 78.2409C266.732 78.1328 266.579 77.9977 266.308 77.7906C265.941 77.5313 265.503 77.3928 265.054 77.3943C264.602 77.3988 264.165 77.5507 263.808 77.8266C263.538 78.0608 263.447 78.2769 263.493 78.2769Z" fill="#263238"/>
<path d="M273.355 79.0515C273.249 79.1108 273.156 79.191 273.082 79.2872C273.007 79.3835 272.953 79.4937 272.922 79.6114C272.892 79.7291 272.885 79.8517 272.904 79.9719C272.922 80.0921 272.964 80.2074 273.028 80.3108C273.092 80.4142 273.176 80.5037 273.276 80.5737C273.376 80.6437 273.488 80.6929 273.607 80.7183C273.727 80.7437 273.849 80.7448 273.969 80.7215C274.089 80.6981 274.202 80.6509 274.303 80.5826C274.506 80.4578 274.651 80.258 274.706 80.0269C274.762 79.7957 274.724 79.5519 274.601 79.3487C274.539 79.2473 274.457 79.159 274.361 79.0892C274.265 79.0193 274.156 78.9691 274.04 78.9414C273.924 78.9138 273.804 78.9093 273.687 78.9282C273.569 78.9471 273.457 78.989 273.355 79.0515Z" fill="#263238"/>
<path d="M272.796 79.0605C272.886 79.1686 273.499 78.7002 274.357 78.6912C275.214 78.6822 275.836 79.1326 275.927 79.0245C276.017 78.9164 275.882 78.7813 275.611 78.5741C275.244 78.3085 274.801 78.1694 274.348 78.1779C273.898 78.1836 273.462 78.3319 273.102 78.6012C272.841 78.8173 272.741 79.0155 272.796 79.0605Z" fill="#263238"/>
<path d="M269.358 86.1037C268.917 85.9318 268.45 85.8343 267.977 85.8155C267.752 85.8155 267.58 85.7435 267.562 85.6174C267.553 85.3942 267.606 85.1728 267.715 84.9779C267.941 84.4195 268.167 83.8431 268.401 83.2396C269.039 81.7729 269.529 80.2462 269.863 78.6823C269.076 80.0759 268.432 81.5455 267.941 83.0685C267.724 83.6719 267.508 84.2484 267.3 84.8698C267.164 85.1491 267.12 85.4645 267.174 85.7705C267.208 85.8547 267.26 85.9301 267.327 85.991C267.395 86.0519 267.475 86.0966 267.562 86.1218C267.686 86.1538 267.813 86.1719 267.941 86.1758C268.414 86.2359 268.894 86.2115 269.358 86.1037Z" fill="#263238"/>
<path d="M272.137 87.0494C273.04 86.518 269.683 88.3554 267.941 88.2653C268.237 88.7085 268.675 89.0387 269.183 89.2023C269.691 89.3658 270.239 89.353 270.739 89.166C272.597 88.5265 272.137 87.0494 272.137 87.0494Z" fill="white"/>
<path d="M268.853 96.5875C271.728 96.6465 274.556 95.8467 276.974 94.2908C276.974 94.2908 275.061 98.7941 268.853 98.1997V96.5875Z" fill="#EB996E"/>
<path d="M286.214 78.4931C286.349 78.4481 290.843 78.1509 290.103 83.3747C289.363 88.5986 284.31 86.1308 284.319 85.9777C284.328 85.8245 286.214 78.4931 286.214 78.4931Z" fill="#FFBE9D"/>
<path d="M286.187 84.3653C286.187 84.3653 286.268 84.4464 286.412 84.5365C286.514 84.5988 286.627 84.6404 286.744 84.659C286.862 84.6775 286.982 84.6726 287.098 84.6446C287.468 84.4804 287.786 84.2197 288.019 83.8899C288.253 83.5602 288.393 83.1737 288.424 82.7712C288.5 82.3245 288.478 81.8669 288.361 81.4292C288.335 81.2596 288.268 81.0989 288.166 80.9609C288.064 80.8229 287.929 80.7116 287.775 80.6366C287.673 80.5947 287.561 80.5888 287.456 80.62C287.351 80.6511 287.259 80.7174 287.197 80.8077C287.107 80.9428 287.125 81.0509 287.098 81.0599C287.071 81.0689 286.999 80.9608 287.098 80.7447C287.143 80.6181 287.233 80.5124 287.351 80.4474C287.511 80.3613 287.698 80.3388 287.874 80.3844C288.077 80.4549 288.259 80.5738 288.406 80.7308C288.552 80.8877 288.658 81.078 288.713 81.2851C288.869 81.7707 288.906 82.2863 288.822 82.7892C288.781 83.2597 288.602 83.7076 288.306 84.0764C288.011 84.4451 287.612 84.7181 287.161 84.8607C287.015 84.8822 286.866 84.8698 286.725 84.8245C286.584 84.7792 286.455 84.7022 286.349 84.5995C286.178 84.5004 286.169 84.3743 286.187 84.3653Z" fill="#EB996E"/>
<path d="M263.583 68.874C265.198 73.1342 271.388 74.8184 275.936 75.0706C273.833 73.2242 275.133 73.6115 273.833 72.3146C277.342 75.3439 281.827 77.0098 286.466 77.007C286.814 75.9549 286.948 74.8438 286.858 73.7394C286.768 72.635 286.458 71.5598 285.945 70.5773C285.432 69.5948 284.726 68.725 283.87 68.0194C283.014 67.3138 282.025 66.7867 280.962 66.4692C279.563 66.0459 278.074 66.0099 276.649 65.6766C275.449 65.3974 274.294 64.9201 273.039 64.776C269.376 64.2356 263.429 63.2448 263.529 68.91" fill="#263238"/>
<path d="M283.723 74.6742C283.958 75.2776 285.266 82.3209 285.266 82.3209L286.854 75.5298L283.723 74.6742Z" fill="#263238"/>
<path d="M328.164 161.778C330.566 159.02 331.884 155.485 331.87 151.83C331.857 148.175 330.514 144.65 328.091 141.909L303.963 114.601L297.502 132.614C297.944 132.902 316.289 152.537 316.289 152.537L300.525 172.153C299.328 173.64 298.528 175.406 298.2 177.285C297.871 179.164 298.026 181.095 298.648 182.898L302.862 193.193L314.403 188.032L313.501 186.69H304.847L304.333 184.619L328.164 161.778Z" fill="#FFBE9D"/>
<path d="M316.731 126.147L301.49 110.836C298.554 107.773 294.942 105.435 290.942 104.009C288.821 103.253 286.596 102.828 284.346 102.748C279.164 104.387 273.601 104.387 268.419 102.748C264.057 103.223 259.808 104.442 255.858 106.351L233.11 115.565L240.41 135.649L252.619 131.551L253.341 150.465L250.923 178.719L298.16 179.152L297.547 153.519V134.983L304.369 141.603L316.731 126.147Z" fill="#455A64"/>
</svg>
