<svg xmlns="http://www.w3.org/2000/svg" xmlns:xlink="http://www.w3.org/1999/xlink" width="400" height="400" viewBox="0 0 400 400">
  <defs>
    <clipPath id="clip-Instagram_Post_1">
      <rect width="400" height="400"/>
    </clipPath>
  </defs>
  <g id="Instagram_Post_1" data-name="Instagram Post – 1" clip-path="url(#clip-Instagram_Post_1)">
    <rect width="400" height="400" fill="#fff"/>
    <g id="image" transform="translate(122.645 122.645)">
      <g id="Group_2" data-name="Group 2">
        <g id="Group_1" data-name="Group 1">
          <path id="Path_1" data-name="Path 1" d="M212.033,96H105.669A9.669,9.669,0,0,0,96,105.669V212.033a9.669,9.669,0,0,0,9.669,9.669H212.033a9.669,9.669,0,0,0,9.669-9.669V105.669A9.669,9.669,0,0,0,212.033,96Zm0,116.033H105.669V105.669H212.033Z" transform="translate(-66.992 -66.992)" fill="#00bcd4"/>
          <path id="Path_2" data-name="Path 2" d="M9.669,9.669H116.033v9.669H125.7V9.669A9.669,9.669,0,0,0,116.033,0H9.669A9.669,9.669,0,0,0,0,9.669V116.033A9.669,9.669,0,0,0,9.669,125.7h9.669v-9.669H9.669Z" fill="#00bcd4"/>
          <path id="Path_3" data-name="Path 3" d="M164.991,310.78h77.355a4.835,4.835,0,0,0,3.433-8.267L226.44,283.174a4.835,4.835,0,0,0-6.817,0l-6.285,6.285-15.906-15.906a4.834,4.834,0,0,0-6.817,0l-29.008,29.008a4.835,4.835,0,0,0,3.384,8.219Z" transform="translate(-111.81 -189.913)" fill="#00bcd4"/>
          <ellipse id="Ellipse_1" data-name="Ellipse 1" cx="9.5" cy="10" rx="9.5" ry="10" transform="translate(106.355 62.355)" fill="#00bcd4"/>
        </g>
      </g>
    </g>
  </g>
</svg>
