<?xml version="1.0" encoding="UTF-8" standalone="no"?>
<svg
   xmlns:dc="http://purl.org/dc/elements/1.1/"
   xmlns:cc="http://creativecommons.org/ns#"
   xmlns:rdf="http://www.w3.org/1999/02/22-rdf-syntax-ns#"
   xmlns:svg="http://www.w3.org/2000/svg"
   xmlns="http://www.w3.org/2000/svg"
   viewBox="0 0 666.66669 565.98669"
   height="565.98669"
   width="666.66669"
   xml:space="preserve"
   id="svg2"
   version="1.1"><metadata
     id="metadata8"><rdf:RDF><cc:Work
         rdf:about=""><dc:format>image/svg+xml</dc:format><dc:type
           rdf:resource="http://purl.org/dc/dcmitype/StillImage" /></cc:Work></rdf:RDF></metadata><defs
     id="defs6" /><g
     transform="matrix(1.3333333,0,0,-1.3333333,0,565.98667)"
     id="g10"><g
       transform="scale(0.1)"
       id="g12"><path
         id="path14"
         style="fill:#cadef4;fill-opacity:1;fill-rule:nonzero;stroke:none"
         d="M 5000,967.941 H 0 v 2.5 h 5000 v -2.5" /><path
         id="path16"
         style="fill:#cadef4;fill-opacity:1;fill-rule:nonzero;stroke:none"
         d="m 4455.87,891.93 h -279.2 v 2.5 h 279.2 v -2.5" /><path
         id="path18"
         style="fill:#cadef4;fill-opacity:1;fill-rule:nonzero;stroke:none"
         d="m 2790.68,891.93 h -229.01 v 2.5 h 229.01 v -2.5" /><path
         id="path20"
         style="fill:#cadef4;fill-opacity:1;fill-rule:nonzero;stroke:none"
         d="m 1446.38,851.789 h 827.24 v -2.5 h -827.24 v 2.5" /><path
         id="path22"
         style="fill:#cadef4;fill-opacity:1;fill-rule:nonzero;stroke:none"
         d="M 1155.57,866.371 H 668.992 v 2.5 h 486.578 v -2.5" /><path
         id="path24"
         style="fill:#cadef4;fill-opacity:1;fill-rule:nonzero;stroke:none"
         d="m 4079.85,891.93 h -852.81 v 2.5 h 852.81 v -2.5" /><path
         id="path26"
         style="fill:#cadef4;fill-opacity:1;fill-rule:nonzero;stroke:none"
         d="m 587.324,866.371 h -70.863 v 2.5 h 70.863 v -2.5" /><path
         id="path28"
         style="fill:#cadef4;fill-opacity:1;fill-rule:nonzero;stroke:none"
         d="m 439.148,4242.4 c -30.093,0 -54.578,-24.48 -54.578,-54.58 V 1473.51 c 0,-30.1 24.485,-54.58 54.578,-54.58 H 2370.14 c 30.08,0 54.57,24.48 54.57,54.58 v 2714.31 c 0,30.1 -24.49,54.58 -54.57,54.58 z M 2370.14,1416.43 H 439.148 c -31.472,0 -57.078,25.6 -57.078,57.08 v 2714.31 c 0,31.47 25.606,57.08 57.078,57.08 H 2370.14 c 31.46,0 57.07,-25.61 57.07,-57.08 V 1473.51 c 0,-31.48 -25.61,-57.08 -57.07,-57.08" /><path
         id="path30"
         style="fill:#cadef4;fill-opacity:1;fill-rule:nonzero;stroke:none"
         d="m 2602.12,4242.4 c -30.09,0 -54.57,-24.48 -54.57,-54.58 V 1473.51 c 0,-30.1 24.48,-54.58 54.57,-54.58 h 1930.99 c 30.09,0 54.58,24.48 54.58,54.58 v 2714.31 c 0,30.1 -24.49,54.58 -54.58,54.58 z M 4533.11,1416.43 H 2602.12 c -31.47,0 -57.07,25.6 -57.07,57.08 v 2714.31 c 0,31.47 25.6,57.08 57.07,57.08 h 1930.99 c 31.47,0 57.08,-25.61 57.08,-57.08 V 1473.51 c 0,-31.48 -25.61,-57.08 -57.08,-57.08" /><path
         id="path32"
         style="fill:#deebf8;fill-opacity:1;fill-rule:nonzero;stroke:none"
         d="m 3417.47,1948.33 v -0.07 c -5.5,0 -11.02,-0.11 -16.61,-0.49 -117.3,-8.01 -212.14,-103.36 -219.62,-220.7 -1.7,-26.79 1.06,-52.69 7.62,-77.05 27.02,-100.33 37.12,-204.47 37.12,-308.38 v -302.78 c 0,-21.95 17.79,-39.758 39.74,-39.758 h 151.75 151.75 657.63 v 949.228 h -809.38" /><path
         id="path34"
         style="fill:#f1f7fd;fill-opacity:1;fill-rule:nonzero;stroke:none"
         d="m 4463.56,1711.6 c 0,136.24 -115.07,245.6 -253.34,236.17 -117.29,-8.01 -212.13,-103.36 -219.6,-220.7 -1.71,-26.79 1.05,-52.7 7.6,-77.05 27.02,-100.33 37.12,-204.47 37.12,-308.38 v -302.78 c 0,-21.95 17.8,-39.758 39.76,-39.758 h 303.48 c 21.97,0 39.76,17.808 39.76,39.758 v 320.57 c 0,97.46 10.62,194.99 36.66,288.91 5.58,20.14 8.56,41.35 8.56,63.26" /><path
         id="path36"
         style="fill:#deebf8;fill-opacity:1;fill-rule:nonzero;stroke:none"
         d="M 3900.64,1575.43 H 2553.1 V 999.102 h 1347.54 v 576.328" /><path
         id="path38"
         style="fill:#c2d9f2;fill-opacity:1;fill-rule:nonzero;stroke:none"
         d="M 3300.46,2265.77 H 2019.25 c -98.95,0 -179.16,-80.21 -179.16,-179.16 v -641.48 h 1639.53 v 641.48 c 0,98.95 -80.22,179.16 -179.16,179.16" /><path
         id="path40"
         style="fill:#f1f7fd;fill-opacity:1;fill-rule:nonzero;stroke:none"
         d="M 3534.67,2265.77 H 2236.19 c -94.18,0 -170.53,-76.34 -170.53,-170.52 V 1445.13 H 3705.2 v 650.12 c 0,94.18 -76.35,170.52 -170.53,170.52" /><path
         id="path42"
         style="fill:#c2d9f2;fill-opacity:1;fill-rule:nonzero;stroke:none"
         d="M 3889.58,1628.06 H 2609.56 c -8.58,0 -15.54,-6.95 -15.54,-15.54 v -203.64 c 0,-8.58 6.96,-15.53 15.54,-15.53 h 1280.02 c 28.71,0 51.99,23.27 51.99,51.99 v 130.72 c 0,28.72 -23.28,52 -51.99,52" /><path
         id="path44"
         style="fill:#deebf8;fill-opacity:1;fill-rule:nonzero;stroke:none"
         d="m 1755.01,1948.33 v -0.07 c -5.49,0 -11.03,-0.11 -16.61,-0.49 -117.29,-8.01 -212.14,-103.36 -219.62,-220.7 -1.7,-26.79 1.06,-52.69 7.62,-77.05 27.02,-100.33 37.12,-204.47 37.12,-308.38 v -302.78 c 0,-21.95 17.79,-39.758 39.75,-39.758 h 151.74 151.75 657.62 v 949.228 h -809.37" /><path
         id="path46"
         style="fill:#f1f7fd;fill-opacity:1;fill-rule:nonzero;stroke:none"
         d="m 2801.1,1711.6 c 0,136.24 -115.07,245.6 -253.33,236.17 -117.3,-8.01 -212.14,-103.36 -219.62,-220.7 -1.7,-26.79 1.06,-52.7 7.62,-77.05 27.01,-100.33 37.12,-204.47 37.12,-308.38 v -302.78 c 0,-21.95 17.79,-39.758 39.74,-39.758 h 303.5 c 21.96,0 39.75,17.808 39.75,39.758 v 320.57 c 0,97.46 10.61,194.99 36.66,288.91 5.59,20.14 8.56,41.35 8.56,63.26" /><path
         id="path48"
         style="fill:#c2d9f2;fill-opacity:1;fill-rule:nonzero;stroke:none"
         d="M 4209.95,970.289 H 1771.91 c -15.92,0 -28.82,12.902 -28.82,28.813 v 0 h 2495.67 v 0 c 0,-15.911 -12.9,-28.813 -28.81,-28.813" /><path
         id="path50"
         style="fill:#deebf8;fill-opacity:1;fill-rule:nonzero;stroke:none"
         d="M 749.813,1013.33 H 482.496 v 676.88 h 267.317 v -676.88" /><path
         id="path52"
         style="fill:#deebf8;fill-opacity:1;fill-rule:nonzero;stroke:none"
         d="M 1852.14,1013.33 H 533.824 V 970.441 H 1852.14 v 42.889" /><path
         id="path54"
         style="fill:#f1f7fd;fill-opacity:1;fill-rule:nonzero;stroke:none"
         d="M 749.813,1013.33 H 1903.47 v 676.88 H 749.813 v -676.88" /><path
         id="path56"
         style="fill:#deebf8;fill-opacity:1;fill-rule:nonzero;stroke:none"
         d="m 854.91,1384.9 h 943.45 v 222 H 854.91 v -222" /><path
         id="path58"
         style="fill:#deebf8;fill-opacity:1;fill-rule:nonzero;stroke:none"
         d="m 854.91,1096.65 h 943.45 v 221.99 H 854.91 v -221.99" /><path
         id="path60"
         style="fill:#f1f7fd;fill-opacity:1;fill-rule:nonzero;stroke:none"
         d="m 1443.4,1586.24 h -233.52 c -8.38,0 -15.23,6.85 -15.23,15.22 v 0 c 0,8.38 6.85,15.22 15.23,15.22 h 233.52 c 8.38,0 15.23,-6.84 15.23,-15.22 v 0 c 0,-8.37 -6.85,-15.22 -15.23,-15.22" /><path
         id="path62"
         style="fill:#f1f7fd;fill-opacity:1;fill-rule:nonzero;stroke:none"
         d="m 1443.4,1297.99 h -233.52 c -8.38,0 -15.23,6.85 -15.23,15.22 v 0 c 0,8.36 6.85,15.22 15.23,15.22 h 233.52 c 8.38,0 15.23,-6.86 15.23,-15.22 v 0 c 0,-8.37 -6.85,-15.22 -15.23,-15.22" /><path
         id="path64"
         style="fill:#cadef4;fill-opacity:1;fill-rule:nonzero;stroke:none"
         d="M 3412.95,2673.82 H 1531.83 V 4024.99 H 3412.95 V 2673.82" /><path
         id="path66"
         style="fill:#f1f7fd;fill-opacity:1;fill-rule:nonzero;stroke:none"
         d="m 3444.46,2673.82 h -1897.9 v 1351.17 h 1897.9 V 2673.82" /><path
         id="path68"
         style="fill:#cadef4;fill-opacity:1;fill-rule:nonzero;stroke:none"
         d="M 3412.95,2643.42 H 1531.83 v 30.4 h 1881.12 v -30.4" /><path
         id="path70"
         style="fill:#f1f7fd;fill-opacity:1;fill-rule:nonzero;stroke:none"
         d="M 3588.54,2643.42 H 1759.6 v 30.4 h 1828.94 v -30.4" /><path
         id="path72"
         style="fill:#f4fbfe;fill-opacity:1;fill-rule:nonzero;stroke:none"
         d="M 1590.68,2731.13 V 3967.68 H 3400.34 V 2731.13 H 1590.68" /><path
         id="path74"
         style="fill:#ffffff;fill-opacity:1;fill-rule:nonzero;stroke:none"
         d="m 2083.17,2731.13 258.96,1236.55 h 330.42 L 2413.58,2731.13 h -330.41" /><path
         id="path76"
         style="fill:#ffffff;fill-opacity:1;fill-rule:nonzero;stroke:none"
         d="m 2507.07,2731.13 258.97,1236.55 h 153.32 L 2660.38,2731.13 h -153.31" /><path
         id="path78"
         style="fill:#cadef4;fill-opacity:1;fill-rule:nonzero;stroke:none"
         d="m 3394.74,2860.52 v 1114.91 h 5.6 V 2860.52 h -5.6" /><path
         id="path80"
         style="fill:#cadef4;fill-opacity:1;fill-rule:nonzero;stroke:none"
         d="M 1498.72,4026.94 V 3545.88 H 1626 c 0,0 228.69,149.17 280.66,456.03 5.28,31.15 -18.58,59.66 -50.19,59.66 h -323.12 c -19.13,0 -34.63,-15.5 -34.63,-34.63" /><path
         id="path82"
         style="fill:#cadef4;fill-opacity:1;fill-rule:nonzero;stroke:none"
         d="m 1498.72,2774.69 v 732.35 H 1626 c 0,0 73.17,-147.83 146.15,-317.87 84.18,-196.16 -59.97,-414.48 -273.43,-414.48 v 0" /><path
         id="path84"
         style="fill:#f1f7fd;fill-opacity:1;fill-rule:nonzero;stroke:none"
         d="m 1622.26,3507.04 h -118.87 c -7.04,0 -12.75,5.71 -12.75,12.75 v 13.34 c 0,7.04 5.71,12.75 12.75,12.75 h 118.87 c 7.04,0 12.74,-5.71 12.74,-12.75 v -13.34 c 0,-7.04 -5.7,-12.75 -12.74,-12.75" /><path
         id="path86"
         style="fill:#cadef4;fill-opacity:1;fill-rule:nonzero;stroke:none"
         d="m 3480.51,4026.94 v -481.06 h -127.29 c 0,0 -228.69,149.17 -280.66,456.03 -5.27,31.15 18.58,59.66 50.18,59.66 h 323.13 c 19.13,0 34.64,-15.5 34.64,-34.63" /><path
         id="path88"
         style="fill:#cadef4;fill-opacity:1;fill-rule:nonzero;stroke:none"
         d="m 3480.51,2774.69 v 732.35 h -127.29 c 0,0 -73.18,-147.83 -146.15,-317.87 -84.19,-196.16 59.97,-414.48 273.44,-414.48 v 0" /><path
         id="path90"
         style="fill:#f1f7fd;fill-opacity:1;fill-rule:nonzero;stroke:none"
         d="m 3356.96,3507.04 h 118.86 c 7.05,0 12.75,5.71 12.75,12.75 v 13.34 c 0,7.04 -5.7,12.75 -12.75,12.75 h -118.86 c -7.04,0 -12.75,-5.71 -12.75,-12.75 v -13.34 c 0,-7.04 5.71,-12.75 12.75,-12.75" /><path
         id="path92"
         style="fill:#cadef4;fill-opacity:1;fill-rule:nonzero;stroke:none"
         d="m 4393.9,2938.13 h -624.61 v 932.96 h 624.61 v -932.96" /><path
         id="path94"
         style="fill:#f1f7fd;fill-opacity:1;fill-rule:nonzero;stroke:none"
         d="M 4484.31,2938.13 H 3785.3 v 932.96 h 699.01 v -932.96" /><path
         id="path96"
         style="fill:#ffffff;fill-opacity:1;fill-rule:nonzero;stroke:none"
         d="M 3857.4,3010.22 V 3799 h 554.81 V 3010.22 H 3857.4" /><path
         id="path98"
         style="fill:#cadef4;fill-opacity:1;fill-rule:nonzero;stroke:none"
         d="m 4081.59,3328.96 v 44.88 c 0,58.77 47.65,106.43 106.43,106.43 v 0 -44.89 c 0,-58.77 -47.65,-106.42 -106.43,-106.42 v 0" /><path
         id="path100"
         style="fill:#cadef4;fill-opacity:1;fill-rule:nonzero;stroke:none"
         d="m 4081.59,3116.36 v 44.88 c 0,58.78 47.65,106.43 106.43,106.43 v 0 -44.88 c 0,-58.78 -47.65,-106.43 -106.43,-106.43 v 0" /><path
         id="path102"
         style="fill:#cadef4;fill-opacity:1;fill-rule:nonzero;stroke:none"
         d="m 4081.59,3541.55 v 44.89 c 0,58.77 47.65,106.42 106.43,106.42 v 0 -44.88 c 0,-58.77 -47.65,-106.43 -106.43,-106.43 v 0" /><path
         id="path104"
         style="fill:#cadef4;fill-opacity:1;fill-rule:nonzero;stroke:none"
         d="m 911.133,1869.74 c 25.25,261.58 47.945,992.28 33.121,1123.48 l -35.012,25.53 c 0,0 10.781,-477.12 -8.027,-877.91 -18.813,-400.78 -2.742,-211.55 -10.625,-271.1 h 20.543" /><path
         id="path106"
         style="fill:#cadef4;fill-opacity:1;fill-rule:nonzero;stroke:none"
         d="m 1008.78,2390.09 c 70.55,55.4 214.67,94.8 361.52,94.59 57.66,-0.08 -175.4,-64.45 -272.33,-135.48 -75.3,-55.18 -160.193,-148.01 -189.052,-199.54 18.664,108.42 29.309,185.02 99.862,240.43" /><path
         id="path108"
         style="fill:#cadef4;fill-opacity:1;fill-rule:nonzero;stroke:none"
         d="m 868.922,2308.16 c -58.594,57.7 -193.859,102.07 -340.207,107.09 -57.453,1.96 161.148,-70.45 242.715,-144.66 63.371,-57.65 128.351,-153.15 146.23,-205.5 4.289,108.66 9.856,185.36 -48.738,243.07" /><path
         id="path110"
         style="fill:#cadef4;fill-opacity:1;fill-rule:nonzero;stroke:none"
         d="m 1011.93,2780.87 c 59.74,46.91 181.78,80.27 306.13,80.09 48.82,-0.06 -148.53,-54.57 -230.6,-114.72 -63.76,-46.73 -135.647,-125.33 -160.093,-168.96 15.809,91.8 24.821,156.67 84.563,203.59" /><path
         id="path112"
         style="fill:#cadef4;fill-opacity:1;fill-rule:nonzero;stroke:none"
         d="m 893.5,2711.49 c -49.613,48.86 -164.152,86.43 -288.07,90.68 -48.657,1.67 136.449,-59.65 205.523,-122.49 53.656,-48.82 108.68,-129.68 123.82,-174.02 3.629,92.02 8.34,156.96 -41.273,205.83" /><path
         id="path114"
         style="fill:#cadef4;fill-opacity:1;fill-rule:nonzero;stroke:none"
         d="m 922.258,3068.92 c -35.301,39.76 -120.813,73.69 -215.285,82.41 -37.09,3.42 101.078,-51.88 150.5,-103.26 38.382,-39.9 76.097,-104.52 85.293,-139.29 7.703,70.62 14.789,120.37 -20.508,160.14" /><path
         id="path116"
         style="fill:#cadef4;fill-opacity:1;fill-rule:nonzero;stroke:none"
         d="m 945.383,3042.46 c 25.5,34.31 86.127,64.11 152.577,72.45 26.08,3.27 -71.88,-45.28 -107.507,-89.64 -27.676,-34.47 -55.336,-90.04 -62.43,-119.83 -4.097,60.27 -8.14,102.71 17.36,137.02" /><path
         id="path118"
         style="fill:#deebf8;fill-opacity:1;fill-rule:nonzero;stroke:none"
         d="m 906.461,1690.21 v 0 c 77.301,0 141.179,60.31 145.619,137.48 l 12.88,122.8 H 747.961 l 12.879,-122.8 c 4.437,-77.17 68.316,-137.48 145.621,-137.48" /><path
         id="path120"
         style="fill:#deebf8;fill-opacity:1;fill-rule:nonzero;stroke:none"
         d="m 727.434,1899.76 h 358.046 l 10.26,92.89 H 717.18 l 10.254,-92.89" /><path
         id="path122"
         style="fill:#ecf4fb;fill-opacity:1;fill-rule:nonzero;stroke:none"
         d="m 4438.89,632.039 c 0,-62.539 -868.07,-113.23 -1938.89,-113.23 -1070.82,0 -1938.887,50.691 -1938.887,113.23 0,62.539 868.067,113.242 1938.887,113.242 1070.82,0 1938.89,-50.703 1938.89,-113.242" /><path
         id="path124"
         style="fill:#f9acb0;fill-opacity:1;fill-rule:nonzero;stroke:none"
         d="m 2508.07,797.641 -67.74,26.82 44.07,164.008 67.75,-26.809 -44.08,-164.019" /><path
         id="path126"
         style="fill:#f9acb0;fill-opacity:1;fill-rule:nonzero;stroke:none"
         d="m 3188.54,722.371 h -72.87 l -56.76,168.731 h 72.86 l 56.77,-168.731" /><path
         id="path128"
         style="fill:#1b365b;fill-opacity:1;fill-rule:nonzero;stroke:none"
         d="m 3105.95,730.801 h 88.83 c 2.97,0 5.55,-2.071 6.2,-4.973 l 14.39,-64.758 c 1.5,-6.718 -3.79,-13.082 -10.66,-12.961 -28.59,0.493 -49.44,2.172 -85.43,2.172 -22.15,0 -88.94,-2.312 -119.51,-2.312 -29.92,0 -34.58,30.25 -22.06,32.98 56.14,12.281 98.44,29.223 116.41,45.383 3.24,2.906 7.47,4.469 11.83,4.469" /><path
         id="path130"
         style="fill:#1b365b;fill-opacity:1;fill-rule:nonzero;stroke:none"
         d="m 2443.91,832.109 73.98,-29.289 c 2.77,-1.09 4.4,-3.961 3.94,-6.91 l -10.45,-65.512 c -1.09,-6.789 -8.17,-10.839 -14.52,-8.187 -26.51,11.008 -64.45,27.84 -98,41.117 -39.22,15.524 -73.94,26.793 -119.93,44.992 -27.82,11.02 -24.41,42.192 -11.76,40.129 57.59,-9.39 101.36,-25.269 158.33,-15.168 6.19,1.11 12.56,1.149 18.41,-1.172" /><path
         id="path132"
         style="fill:#f9acb0;fill-opacity:1;fill-rule:nonzero;stroke:none"
         d="m 2949.35,2914.39 c -6.78,-5.45 -12.1,-9.49 -18.12,-13.97 -5.84,-4.38 -11.82,-8.48 -17.78,-12.59 -11.95,-8.16 -24.06,-16.01 -36.4,-23.59 -24.73,-15.1 -50.51,-28.8 -77.69,-40.77 -27.18,-11.88 -55.74,-22.27 -86.54,-29.01 -30.69,-6.66 -63.99,-10.47 -99.34,-5.02 -8.99,1.21 -17.2,3.27 -26.95,5.86 -19.32,5.99 -30.06,15.92 -38.18,24.04 -15.57,16.73 -22.91,31.73 -30.04,46.19 -13.52,28.82 -21.57,56.4 -28.92,83.96 -13.96,55.18 -22.3,109.45 -26.9,165.29 l 53.75,10.19 c 16.64,-50.28 34.04,-101.35 53.43,-149.18 9.64,-23.78 20.36,-47.19 31.83,-66.43 5.54,-9.36 12.4,-17.81 15.87,-20.41 1.47,-1.31 1.89,0.18 -4.33,2.44 3.44,-0.39 8.42,-1.47 12.93,-1.57 18.46,-1.34 39.83,1.73 61.58,7.79 21.77,6.24 44.12,14.98 66.1,25.65 22.06,10.51 43.83,22.89 65.31,35.94 10.75,6.56 21.36,13.4 31.77,20.49 l 15.44,10.74 c 4.96,3.44 10.51,7.46 14.39,10.36 l 68.79,-86.4" /><path
         id="path134"
         style="fill:#4d6dbe;fill-opacity:1;fill-rule:nonzero;stroke:none"
         d="m 2994.79,2932.35 c -17.69,-67.39 -235.97,-142.89 -235.97,-142.89 l -67.22,151.58 c 0,0 88.65,46.69 170.76,83.82 55.1,24.91 151.66,-19.2 132.43,-92.51" /><path
         id="path136"
         style="fill:#f9acb0;fill-opacity:1;fill-rule:nonzero;stroke:none"
         d="m 2516.62,3112.95 1.84,64.95 -79.02,-23.44 c 0,0 0.93,-34.18 30.44,-56.14 l 46.74,14.63" /><path
         id="path138"
         style="fill:#f9acb0;fill-opacity:1;fill-rule:nonzero;stroke:none"
         d="m 2522.22,3223.17 -75.94,-26.18 -6.84,-42.53 79.02,23.44 3.76,45.27" /><path
         id="path140"
         style="fill:#3359b1;fill-opacity:1;fill-rule:nonzero;stroke:none"
         d="m 2507.8,3069.05 74.89,16.58 c 5.23,1.16 7.95,6.25 6.05,11.32 l -65.15,173.67 c -1.9,5.06 -7.73,8.26 -12.96,7.1 l -74.89,-16.58 c -5.23,-1.15 -7.96,-6.25 -6.05,-11.32 l 65.15,-173.66 c 1.9,-5.07 7.73,-8.26 12.96,-7.11" /><path
         id="path142"
         style="fill:#4d6dbe;fill-opacity:1;fill-rule:nonzero;stroke:none"
         d="m 2517,3071.09 74.88,16.58 c 5.24,1.16 7.96,6.25 6.06,11.32 l -65.15,173.66 c -1.9,5.07 -7.73,8.26 -12.97,7.11 l -74.88,-16.58 c -5.23,-1.16 -7.95,-6.25 -6.05,-11.32 l 65.15,-173.66 c 1.9,-5.07 7.74,-8.27 12.96,-7.11" /><path
         id="path144"
         style="fill:#d7e5f6;fill-opacity:1;fill-rule:nonzero;stroke:none"
         d="m 2441.13,3245.88 29.29,-78.07 2.68,-7.19 13.15,-35.06 2.8,-7.49 10.53,-28.02 93.89,20.8 -2.57,6.89 -2.78,7.29 -25.3,67.5 -7.87,21.13 -19.88,52.97 -31.06,-6.85 -7.95,-1.81 -42.52,-9.37 -6.66,-1.44 -5.75,-1.28" /><path
         id="path146"
         style="fill:#4d6dbe;fill-opacity:1;fill-rule:nonzero;stroke:none"
         d="m 2502.23,3214.01 -7.88,-64.41 c -0.63,-5.14 4.04,-9.35 9.09,-8.19 l 50.59,11.62 c 5.38,1.23 7.61,7.69 4.13,11.98 l -42.7,52.79 c -4.15,5.13 -12.43,2.75 -13.23,-3.79" /><path
         id="path148"
         style="fill:#ffffff;fill-opacity:1;fill-rule:nonzero;stroke:none"
         d="m 2529.43,3164.19 c 1.05,-3.5 -0.23,-6.82 -2.85,-7.43 -2.62,-0.6 -5.58,1.76 -6.62,5.25 -1.04,3.5 0.24,6.83 2.85,7.43 2.62,0.61 5.59,-1.75 6.62,-5.25" /><path
         id="path150"
         style="fill:#ffffff;fill-opacity:1;fill-rule:nonzero;stroke:none"
         d="m 2523.33,3175.46 -4.32,-0.99 c -0.85,-0.2 -1.82,0.51 -2.22,1.64 l -8.39,23.02 c -0.46,1.26 -0.03,2.53 0.93,2.75 l 7.19,1.65 c 0.96,0.23 2.04,-0.7 2.35,-1.99 l 5.5,-23.69 c 0.26,-1.15 -0.19,-2.19 -1.04,-2.39" /><path
         id="path152"
         style="fill:#f58188;fill-opacity:1;fill-rule:nonzero;stroke:none"
         d="m 2484.4,988.422 -22.73,-84.543 67.77,-26.828 22.74,84.539 -67.78,26.832" /><path
         id="path154"
         style="fill:#f58188;fill-opacity:1;fill-rule:nonzero;stroke:none"
         d="m 3131.8,891.051 h -72.89 l 29.29,-86.973 h 72.89 l -29.29,86.973" /><path
         id="path156"
         style="fill:#4d6dbe;fill-opacity:1;fill-rule:nonzero;stroke:none"
         d="m 3289.17,2962.76 c -31.02,-77.62 -54.13,-157.59 -71.86,-233.29 -12.93,-55.39 -22.85,-108.5 -30.66,-156.81 -18.36,-113.2 -25.27,-200.28 -31.85,-229.33 -56.21,10.07 -268.05,48.05 -383.56,68.81 -7.97,417.75 115.54,619.15 115.54,619.15 0,0 43.71,3.89 93.75,1.41 6.59,-0.29 13.28,-0.78 20.06,-1.38 43.87,-3.82 114.52,-18.11 163.07,-29.24 10.22,-2.35 20.51,-5 30.5,-7.74 50.83,-14.04 95.01,-31.58 95.01,-31.58" /><path
         id="path158"
         style="fill:#4065b9;fill-opacity:1;fill-rule:nonzero;stroke:none"
         d="m 3180.28,2869.09 c -7.23,-64.75 4.7,-121.42 29.69,-172.66 2.28,10.91 4.76,21.91 7.34,33.01 9.73,41.62 21.12,84.56 34.71,127.71 l -71.74,11.94" /><path
         id="path160"
         style="fill:#f9acb0;fill-opacity:1;fill-rule:nonzero;stroke:none"
         d="m 3180.45,3188.58 c -19.71,-50.62 -47.23,-144.91 -16.81,-186.5 -31.88,-22.88 -75.97,-39.31 -134.68,-27.45 -44.97,9.08 -41.57,41.04 -28.37,56.72 61.01,3.46 67.29,47.14 64.42,89.73 l 115.44,67.5" /><path
         id="path162"
         style="fill:#f58188;fill-opacity:1;fill-rule:nonzero;stroke:none"
         d="m 3133.38,3161.03 -68.31,-39.91 c 0.71,-10.09 0.85,-20.21 -0.18,-29.84 22.93,-0.79 58.04,18.23 64.61,41.21 3.28,11.46 4.81,22.76 3.88,28.54" /><path
         id="path164"
         style="fill:#1a2847;fill-opacity:1;fill-rule:nonzero;stroke:none"
         d="m 3002.83,3360.27 c -15.98,-32.48 -23.15,-133.17 21.92,-117.56 45.06,15.6 42.74,92.31 42.74,92.31 0,0 -27.21,101.31 -64.66,25.25" /><path
         id="path166"
         style="fill:#f9acb0;fill-opacity:1;fill-rule:nonzero;stroke:none"
         d="m 3200.86,3266.41 c -17.11,-70.26 -23.56,-112.25 -65.99,-142.27 -63.82,-45.16 -145.66,3.12 -149.88,77.07 -3.8,66.57 24.83,170.28 99.44,186.06 73.51,15.56 133.55,-50.61 116.43,-120.86" /><path
         id="path168"
         style="fill:#1a2847;fill-opacity:1;fill-rule:nonzero;stroke:none"
         d="m 3165.05,3323.77 c -41.12,-24.9 -34.18,-105.29 22.51,-126.39 56.69,-21.1 69.06,20.21 59.79,24.5 19.64,4.15 96.83,38.7 66.16,101.38 -18.64,38.07 -75.36,31.79 -75.36,31.79 0,0 67.24,65.94 -38.5,119.02 -129.18,64.83 -148.71,-54.12 -148.71,-54.12 0,0 -83.15,9.19 -76.11,-46.17 9.33,-73.39 87.28,-14.77 87.28,-14.77 0,0 4.9,-64.6 102.94,-35.24" /><path
         id="path170"
         style="fill:#1a2847;fill-opacity:1;fill-rule:nonzero;stroke:none"
         d="m 3055.39,3392.17 c -1.55,0 -3.01,0.97 -3.54,2.53 -0.78,2.22 -18.53,54.81 8.61,89.1 17.62,22.27 49.76,31.22 95.75,26.58 2.06,-0.21 3.56,-2.05 3.35,-4.11 -0.2,-2.05 -1.93,-3.64 -4.11,-3.35 -43.17,4.36 -73.16,-3.62 -89.09,-23.74 -24.59,-31.05 -7.6,-81.53 -7.42,-82.04 0.67,-1.95 -0.37,-4.09 -2.33,-4.76 -0.4,-0.14 -0.82,-0.21 -1.22,-0.21" /><path
         id="path172"
         style="fill:#f9acb0;fill-opacity:1;fill-rule:nonzero;stroke:none"
         d="m 3218.89,3182.34 c -13.01,-14.52 -31.51,-21.68 -47.52,-22.3 -24.08,-0.94 -30.57,21.95 -19.22,41.76 10.21,17.85 35.06,39.82 56.99,31.35 21.6,-8.34 24.63,-34.2 9.75,-50.81" /><path
         id="path174"
         style="fill:#9abee8;fill-opacity:1;fill-rule:nonzero;stroke:none"
         d="m 2442.48,929.578 114.73,-45.348 c 0,0 133.73,444.69 179.28,667.11 13.87,67.66 42.27,160.91 76.04,260.33 42.61,125.26 93.64,260.16 134.88,365.66 43.5,111.1 75.95,189.56 75.95,189.56 l -252.17,45.25 c 0,0 -219.09,-583.99 -250.53,-804.13 -32.72,-228.89 -78.18,-678.432 -78.18,-678.432" /><path
         id="path176"
         style="fill:#7aaae0;fill-opacity:1;fill-rule:nonzero;stroke:none"
         d="m 2812.53,1811.67 c 42.61,125.26 93.64,260.16 134.88,365.66 l -20.21,59.64 c -71.14,-68.06 -113.22,-298.04 -114.67,-425.3" /><path
         id="path178"
         style="fill:#9abee8;fill-opacity:1;fill-rule:nonzero;stroke:none"
         d="m 2907.25,2387.73 c 0,0 -39.79,-623.13 -31.98,-836.47 8.57,-233.62 178.66,-730.338 178.66,-730.338 h 133.44 c 0,0 -86.42,446.828 -103.83,674.098 -19.83,258.9 71.22,848.27 71.22,848.27 l -247.51,44.44" /><path
         id="path180"
         style="fill:#4d6dbe;fill-opacity:1;fill-rule:nonzero;stroke:none"
         d="m 3037.95,818.039 h 157.14 v 46.941 l -175.66,3.059 18.52,-50" /><path
         id="path182"
         style="fill:#4d6dbe;fill-opacity:1;fill-rule:nonzero;stroke:none"
         d="m 2427.01,932.609 136.7,-54.109 17.48,44.172 -151.88,62.808 -2.3,-52.871" /><path
         id="path184"
         style="fill:#1a2847;fill-opacity:1;fill-rule:nonzero;stroke:none"
         d="m 3089.55,3265.89 c -1.04,-5.78 -4.95,-9.92 -8.73,-9.24 -3.78,0.68 -6.01,5.92 -4.97,11.7 1.04,5.79 4.95,9.93 8.73,9.25 3.78,-0.68 6.01,-5.92 4.97,-11.71" /><path
         id="path186"
         style="fill:#1a2847;fill-opacity:1;fill-rule:nonzero;stroke:none"
         d="m 3024.17,3277.63 c -1.04,-5.78 -4.95,-9.92 -8.73,-9.24 -3.78,0.68 -6.01,5.92 -4.97,11.7 1.04,5.79 4.95,9.92 8.73,9.24 3.78,-0.67 6.01,-5.92 4.97,-11.7" /><path
         id="path188"
         style="fill:#f06b75;fill-opacity:1;fill-rule:nonzero;stroke:none"
         d="m 3044.43,3271.02 c 0,0 -19.14,-31 -36.51,-44.51 8.52,-11.39 26.7,-10.15 26.7,-10.15 l 9.81,54.66" /><path
         id="path190"
         style="fill:#1a2847;fill-opacity:1;fill-rule:nonzero;stroke:none"
         d="m 3076.14,3175.27 c -0.81,0 -1.52,0.56 -1.69,1.38 -0.19,0.94 0.41,1.85 1.35,2.03 9.74,1.98 10.32,3.93 10.33,3.94 -0.17,0.14 -0.34,0.3 -0.45,0.49 -0.02,0.02 -4.42,6.35 -26.86,7.33 -0.95,0.04 -1.69,0.84 -1.65,1.79 0.05,0.93 0.81,1.65 1.73,1.65 0.02,0 0.05,0 0.07,0 22.66,-0.99 28.45,-7.24 29.53,-8.78 0.62,-0.61 1.34,-1.81 0.99,-3.28 -0.67,-2.78 -4.8,-4.85 -13.01,-6.52 -0.11,-0.02 -0.23,-0.03 -0.34,-0.03" /><path
         id="path192"
         style="fill:#1a2847;fill-opacity:1;fill-rule:nonzero;stroke:none"
         d="m 3113.64,3283.39 c -1.26,0 -2.47,0.68 -3.07,1.89 -6.91,13.58 -19.22,15.18 -19.75,15.25 -1.88,0.22 -3.24,1.93 -3.03,3.81 0.21,1.89 1.77,3.34 3.79,3.05 0.67,-0.07 16.5,-1.96 25.14,-18.99 0.86,-1.7 0.18,-3.77 -1.51,-4.64 -0.5,-0.25 -1.04,-0.37 -1.57,-0.37" /><path
         id="path194"
         style="fill:#1a2847;fill-opacity:1;fill-rule:nonzero;stroke:none"
         d="m 3000.19,3305.17 c -0.71,0 -1.42,0.22 -2.04,0.67 -1.54,1.12 -1.88,3.28 -0.76,4.82 11.26,15.45 27.19,14.76 27.85,14.74 1.9,-0.1 3.36,-1.72 3.27,-3.63 -0.1,-1.89 -1.37,-3.49 -3.62,-3.26 v 0 c -0.46,-0.06 -12.93,0.41 -21.91,-11.92 -0.69,-0.92 -1.73,-1.42 -2.79,-1.42" /><path
         id="path196"
         style="fill:#4d6dbe;fill-opacity:1;fill-rule:nonzero;stroke:none"
         d="m 3071.03,733.16 c -0.9,0 -1.66,-0.14 -2.24,-0.441 -0.47,-0.239 -1.01,-0.688 -1.09,-2.02 -0.17,-2.75 0.59,-4.801 2.34,-6.258 3.99,-3.359 13.5,-3.812 25.87,-1.32 -8.22,4.75 -19.3,10.039 -24.88,10.039 z m 10.83,-15.09 c -5.55,0 -10.74,0.95 -14.04,3.719 -2.61,2.199 -3.81,5.262 -3.56,9.121 0.17,2.871 1.7,4.238 2.95,4.879 8.11,4.09 31.56,-10.301 34.22,-11.957 0.58,-0.371 0.89,-1.051 0.78,-1.742 -0.11,-0.692 -0.62,-1.238 -1.3,-1.399 -5.05,-1.222 -12.32,-2.621 -19.05,-2.621" /><path
         id="path198"
         style="fill:#4d6dbe;fill-opacity:1;fill-rule:nonzero;stroke:none"
         d="m 3085.81,750.18 c -0.26,0 -0.52,-0.02 -0.78,-0.051 -2.25,-0.277 -2.44,-1.309 -2.53,-1.75 -0.91,-4.789 8.38,-16.848 15.87,-22.551 -0.85,6.141 -3.17,18.402 -8.6,22.832 -1.24,1.02 -2.54,1.52 -3.96,1.52 z m 14.7,-29.539 c -0.29,0 -0.57,0.07 -0.82,0.211 -7.54,4.089 -22.12,20.058 -20.58,28.179 0.28,1.469 1.37,4.02 5.49,4.52 2.67,0.379 5.16,-0.41 7.35,-2.211 8.47,-6.918 10.21,-27.949 10.28,-28.84 0.05,-0.629 -0.25,-1.238 -0.78,-1.578 -0.29,-0.192 -0.61,-0.281 -0.94,-0.281" /><path
         id="path200"
         style="fill:#4d6dbe;fill-opacity:1;fill-rule:nonzero;stroke:none"
         d="m 2401.6,850.922 c -0.17,0 -0.34,-0.012 -0.5,-0.031 -0.78,-0.11 -1.29,-0.5 -1.68,-1.313 -1.03,-2.109 -1.07,-4.047 -0.11,-5.937 2.71,-5.34 13.6,-10.403 29.54,-13.821 -8.82,9.469 -21.54,21.102 -27.25,21.102 z m 32.01,-25.543 c -0.1,0 -0.21,0.012 -0.31,0.031 -11.78,2.149 -32.25,7.16 -37.07,16.68 -1.45,2.859 -1.43,5.89 0.08,9 0.9,1.851 2.41,2.961 4.34,3.219 0.27,0.043 0.54,0.062 0.82,0.062 10.37,0 31.05,-23.391 33.44,-26.133 0.48,-0.539 0.56,-1.34 0.2,-1.976 -0.31,-0.543 -0.89,-0.883 -1.5,-0.883" /><path
         id="path202"
         style="fill:#4d6dbe;fill-opacity:1;fill-rule:nonzero;stroke:none"
         d="m 2424.36,860.172 c -1.35,0 -1.72,-0.641 -1.87,-0.891 -2.57,-4.312 3.88,-20.179 10.24,-28.492 1.24,5.672 3.15,17.539 -0.67,24.43 -1.33,2.402 -3.21,3.91 -5.73,4.633 -0.82,0.23 -1.46,0.32 -1.97,0.32 z m 9.25,-34.793 c -0.46,0 -0.91,0.191 -1.24,0.531 -6.72,6.899 -17.12,27.961 -12.85,35.141 1.01,1.679 3.17,3.398 7.75,2.121 3.41,-0.973 6.04,-3.082 7.81,-6.281 5.82,-10.493 0.42,-29.461 0.18,-30.262 -0.17,-0.59 -0.64,-1.039 -1.23,-1.188 -0.14,-0.043 -0.28,-0.062 -0.42,-0.062" /><path
         id="path204"
         style="fill:#f9acb0;fill-opacity:1;fill-rule:nonzero;stroke:none"
         d="m 3291.24,2928.75 c 9.71,-11.31 17.97,-21.46 26.31,-32.48 8.33,-10.82 16.43,-21.76 24.43,-32.8 15.8,-22.2 30.89,-44.98 45.03,-68.53 14.33,-23.41 27.38,-47.91 39.56,-73.1 l 8.92,-19.09 8.16,-19.71 c 2.8,-6.47 5.14,-13.36 7.57,-20.15 l 3.62,-10.2 0.9,-2.54 1.37,-4.27 c 1.04,-3.28 1.68,-6.22 2.33,-9.26 4.31,-23.58 1.74,-40.69 -0.99,-56.76 -2.98,-15.92 -7.17,-30.2 -11.73,-44.01 -9.3,-27.46 -20.66,-52.66 -32.73,-77.19 -24.39,-48.97 -52.22,-94.25 -83.61,-138.46 l -47.52,27.11 c 19.57,47.24 38.6,95.78 54.93,143.27 8.1,23.77 15.31,47.64 20.47,70.51 2.56,11.35 4.56,22.57 5.34,32.57 0.87,9.75 0.22,19.23 -0.95,21.35 -0.14,0.14 -0.2,0.4 -0.27,0.21 -0.11,0.17 0.21,-0.55 -0.21,0.37 l -0.92,2.01 -3.64,8.05 c -2.44,5.36 -4.72,10.72 -7.58,16.06 l -8.14,16.02 -8.72,15.99 c -12.04,21.2 -24.87,42.27 -38.63,63.04 -13.82,20.71 -28.06,41.33 -42.86,61.6 -14.41,20.22 -30.48,40.73 -44.91,59.26 l 84.47,71.13" /><path
         id="path206"
         style="fill:#4d6dbe;fill-opacity:1;fill-rule:nonzero;stroke:none"
         d="m 3269.5,2968.75 c 68.88,-10.42 160.43,-165.9 160.43,-165.9 l -129.43,-140.9 c 0,0 -71.13,91.45 -112.44,171.45 -45.01,87.13 -2,147.97 81.44,135.35" /><path
         id="path208"
         style="fill:#f9acb0;fill-opacity:1;fill-rule:nonzero;stroke:none"
         d="m 3296.24,2361.15 -63.72,-37.55 76.39,-53.17 c 0,0 47.14,44.02 26.62,71.61 l -39.29,19.11" /><path
         id="path210"
         style="fill:#f9acb0;fill-opacity:1;fill-rule:nonzero;stroke:none"
         d="m 3209.91,2267.08 65.2,-40.97 33.8,44.32 -76.39,53.17 -22.61,-56.52" /><path
         id="path212"
         style="fill:#4d6dbe;fill-opacity:1;fill-rule:nonzero;stroke:none"
         d="m 2561.33,3262.41 h -10 c 0,19.3 -15.7,35 -35,35 v 10 c 24.81,0 45,-20.19 45,-45" /><path
         id="path214"
         style="fill:#4d6dbe;fill-opacity:1;fill-rule:nonzero;stroke:none"
         d="m 2581.33,3262.41 h -10 c 0,30.33 -24.68,55 -55,55 v 10 c 35.84,0 65,-29.16 65,-65" /><path
         id="path216"
         style="fill:#4d6dbe;fill-opacity:1;fill-rule:nonzero;stroke:none"
         d="m 2601.33,3262.41 h -10 c 0,41.36 -33.64,75 -75,75 v 10 c 46.86,0 85,-38.13 85,-85" /><path
         id="path218"
         style="fill:#4d6dbe;fill-opacity:1;fill-rule:nonzero;stroke:none"
         d="m 2509.08,3028.53 c -24.81,0 -45,20.18 -45,45 h 10 c 0,-19.3 15.71,-35 35,-35 v -10" /><path
         id="path220"
         style="fill:#4d6dbe;fill-opacity:1;fill-rule:nonzero;stroke:none"
         d="m 2509.08,3008.53 c -35.84,0 -65,29.16 -65,65 h 10 c 0,-30.33 24.67,-55 55,-55 v -10" /><path
         id="path222"
         style="fill:#4d6dbe;fill-opacity:1;fill-rule:nonzero;stroke:none"
         d="m 2509.08,2988.53 c -46.87,0 -85,38.13 -85,85 h 10 c 0,-41.36 33.64,-75 75,-75 v -10" /><path
         id="path224"
         style="fill:#4d6dbe;fill-opacity:1;fill-rule:nonzero;stroke:none"
         d="m 1019.4,3161.03 h -10 v 196.73 h 10 v -196.73" /><path
         id="path226"
         style="fill:#4d6dbe;fill-opacity:1;fill-rule:nonzero;stroke:none"
         d="m 1019.4,3043.53 h -10 v 63.13 h 10 v -63.13" /><path
         id="path228"
         style="fill:#4d6dbe;fill-opacity:1;fill-rule:nonzero;stroke:none"
         d="m 2027.96,2681.13 h -847.03 c -75.1,0 -136.53,61.44 -136.53,136.53 v 604.43 c 0,75.09 61.43,136.53 136.53,136.53 h 847.03 c 75.09,0 136.53,-61.44 136.53,-136.53 v -604.43 c 0,-75.09 -61.44,-136.53 -136.53,-136.53" /><path
         id="path230"
         style="fill:#4d6dbe;fill-opacity:1;fill-rule:nonzero;stroke:none"
         d="m 1031,3561.71 c -2.56,0 -5.12,0.97 -7.07,2.93 l -77.215,77.21 c -3.906,3.91 -3.906,10.24 0,14.14 3.906,3.91 10.234,3.91 14.14,0 l 77.215,-77.21 c 3.91,-3.91 3.91,-10.24 0,-14.14 -1.95,-1.96 -4.51,-2.93 -7.07,-2.93" /><path
         id="path232"
         style="fill:#4d6dbe;fill-opacity:1;fill-rule:nonzero;stroke:none"
         d="m 1080.6,3582.96 c -4.71,0 -8.9,3.33 -9.81,8.12 l -14.18,73.77 c -1.04,5.42 2.51,10.66 7.94,11.7 5.43,1.04 10.66,-2.51 11.7,-7.94 l 14.17,-73.76 c 1.05,-5.42 -2.5,-10.66 -7.93,-11.7 -0.63,-0.13 -1.27,-0.19 -1.89,-0.19" /><path
         id="path234"
         style="fill:#4d6dbe;fill-opacity:1;fill-rule:nonzero;stroke:none"
         d="m 1009.75,3512.1 c -0.62,0 -1.26,0.06 -1.89,0.18 l -73.766,14.18 c -5.426,1.04 -8.981,6.28 -7.938,11.7 1.047,5.43 6.317,8.95 11.703,7.94 l 73.771,-14.18 c 5.42,-1.04 8.98,-6.28 7.93,-11.7 -0.92,-4.79 -5.11,-8.12 -9.81,-8.12" /><path
         id="path236"
         style="fill:#4d6dbe;fill-opacity:1;fill-rule:nonzero;stroke:none"
         d="m 2144.3,3159.75 245.51,75.28 -245.51,-260.28 z" /><path
         id="path238"
         style="fill:#ffffff;fill-opacity:1;fill-rule:nonzero;stroke:none"
         d="m 1847.63,2963.16 h -486.4 c 0,26 10.3,50.89 28.7,69.2 l 9.7,9.8 c 15.8,15.7 24.6,37.1 24.6,59.39 v 113.11 c 0,101.7 84.3,183.7 186.8,180.1 15.1,-0.6 29.6,-3.01 43.5,-7.1 -5.4,-14.3 -8.4,-29.9 -8.4,-46.11 0,-72.39 58.7,-131.19 131.2,-131.19 2.5,0 4.9,0.1 7.3,0.2 0,-0.1 0,-0.1 0,-0.2 v -108.81 c 0,-22.29 8.9,-43.69 24.6,-59.39 l 9.7,-9.8 c 9.2,-9.2 16.4,-20 21.3,-31.7 4.8,-11.81 7.4,-24.5 7.4,-37.5" /><path
         id="path240"
         style="fill:#ffffff;fill-opacity:1;fill-rule:nonzero;stroke:none"
         d="m 1700.57,2936.82 c -2.39,-52.4 -46.41,-93.8 -99.77,-91.88 -49.9,1.67 -89.26,42.59 -92.48,91.88 h 192.25" /><path
         id="path242"
         style="fill:#f14454;fill-opacity:1;fill-rule:nonzero;stroke:none"
         d="m 1875.5,3341.55 c 0,-54.23 -43.97,-98.19 -98.2,-98.19 -54.23,0 -98.2,43.96 -98.2,98.19 0,54.24 43.97,98.21 98.2,98.21 54.23,0 98.2,-43.97 98.2,-98.21" /><path
         id="path244"
         style="fill:#ffffff;fill-opacity:1;fill-rule:nonzero;stroke:none"
         d="m 1796.8,3388.87 v -98.8 h -27.3 v 64.74 c -4.42,-3.36 -8.69,-6.07 -12.83,-8.15 -4.13,-2.08 -9.3,-4.07 -15.53,-5.96 v 22.12 c 9.19,2.96 16.32,6.52 21.4,10.67 5.08,4.16 9.06,9.28 11.93,15.38 h 22.33" />
	
</g></g></svg>